<?xml version="1.0" encoding="utf-8"?>
<!-- Generator: Adobe Illustrator 25.2.3, SVG Export Plug-In . SVG Version: 6.00 Build 0)  -->
<svg version="1.1" id="katman_2_1_" xmlns="http://www.w3.org/2000/svg" xmlns:xlink="http://www.w3.org/1999/xlink" x="0px"
	 y="0px" viewBox="0 0 283.46 283.46" style="enable-background:new 0 0 283.46 283.46;" xml:space="preserve">
<style type="text/css">
	.st0{fill:#AFAFAF;}
</style>
<g>
	<path class="st0" d="M136.72,151.61c-1.14,3.04-2.27,5.98-3.33,8.94c-1.04,2.89-2.03,5.79-3,8.7c-0.37,1.12-1.13,1.32-2.17,1.25
		c-1.08-0.07-2.21,0.25-2.73-1.26c-1.63-4.75-3.34-9.47-5.04-14.2c-0.39-1.08-0.82-2.14-1.23-3.2c-2.59,0.84-2.88,1.45-2.46,3.84
		c1.09,6.24,2.08,12.49,3.11,18.73c0.2,1.24,0.49,2.49,0.48,3.73c-0.01,0.58-0.64,1.16-0.99,1.73c-0.47-0.36-1.15-0.62-1.37-1.1
		c-4.79-10.29-9.51-20.61-14.29-30.91c-0.43-0.92-0.08-1.49,0.45-2.12c3.53-4.15,7.08-8.28,10.53-12.49
		c0.64-0.78,1.12-1.84,1.29-2.83c1.72-9.95,3.37-19.91,5-29.88c0.8-4.91,1.5-9.85,2.27-14.76c0.76-4.83,1.56-9.65,2.34-14.47
		c0.35-2.16,0.66-4.32,0.99-6.49c0.03-0.23,0.02-0.47,0.07-0.69c0.21-0.83,0.18-1.96,1.37-1.96c1.16,0,1.08,1.06,1.2,1.87
		c1.65,10.57,3.28,21.15,4.97,31.72c1.52,9.46,3.12,18.92,4.68,28.38c0.3,1.79,0.62,3.58,0.87,5.37c0.22,1.6,0.78,2.95,1.89,4.21
		c3.4,3.83,6.65,7.79,9.99,11.68c0.75,0.87,0.92,1.62,0.4,2.75c-4.7,10.08-9.32,20.19-13.97,30.29c-0.3,0.66-0.5,1.57-1.5,1.3
		c-0.97-0.27-1.19-1.1-1.04-2.02c0.73-4.55,1.46-9.1,2.21-13.64c0.49-2.94,1.03-5.87,1.52-8.8
		C139.61,153.09,139.44,152.84,136.72,151.61z"/>
	<path class="st0" d="M44.42,211.31c0-0.82,0-1.65,0-2.47c0-11.56,0.02-23.11-0.03-34.67c-0.01-1.41,0.36-1.96,1.8-1.8
		c1.05,0.11,2.12,0.02,3.35,0.02c0,0.69,0,1.19,0,1.69c0,14.91-0.02,29.82,0.03,44.73c0,1.37-0.44,1.58-1.73,1.72
		c-2.48,0.26-3.77-0.71-5.04-2.82C35.82,206,28.65,194.4,21.54,182.76c-0.21-0.34-0.47-0.66-1.04-0.92c0,0.43,0,0.85,0,1.28
		c0,11.84,0,23.67-0.01,35.51c0,1.86,0,1.86-1.79,1.85c-3.32-0.03-3.32-0.03-3.33-3.39c-0.01-14.26-0.01-28.52-0.02-42.77
		c0-1.91,0.03-1.71,1.91-1.96c2.51-0.33,3.79,0.74,5.02,2.83c6.91,11.7,13.96,23.32,20.97,34.96c0.26,0.43,0.56,0.84,0.84,1.26
		C44.2,211.37,44.31,211.34,44.42,211.31z"/>
	<path class="st0" d="M53.33,196.41c0-7.41,0.03-14.81-0.03-22.22c-0.01-1.37,0.29-1.9,1.76-1.84c4.18,0.17,8.39-0.02,12.56,0.34
		c8.81,0.77,15.32,5.56,17.73,14.82c1.65,6.38,1.42,12.75-0.61,18.99c-2.79,8.56-9.83,13.56-19.39,13.9
		c-3.58,0.12-7.17,0.02-10.76,0.09c-1.12,0.02-1.28-0.51-1.28-1.45C53.34,211.5,53.33,203.96,53.33,196.41z M58.48,196.46
		c0,6.19,0.02,12.39-0.02,18.58c-0.01,1.06,0.29,1.55,1.42,1.47c2.17-0.17,4.38-0.09,6.53-0.43c6.22-1,10.54-4.49,12.66-10.43
		c1.97-5.52,2.18-11.21,0.81-16.91c-1.21-5.05-4.03-8.83-8.95-10.83c-3.4-1.39-6.98-1.46-10.57-1.41c-1.86,0.03-1.86,0.01-1.86,1.82
		C58.48,184.36,58.48,190.41,58.48,196.46z"/>
	<path class="st0" d="M106.7,199.01c1.56,2.52,2.97,4.87,4.46,7.16c0.51,0.79,0.63,1.46,0.23,2.32c-0.66,1.41-1.23,2.87-1.99,4.67
		c-1.18-1.94-2.18-3.58-3.17-5.22c-1.39-2.31-2.72-4.66-4.2-6.91c-0.33-0.5-1.13-0.94-1.74-0.97c-1.85-0.12-3.72,0.04-5.58-0.03
		c-1.15-0.04-1.39,0.43-1.39,1.48c0.04,5.82,0,11.64,0.05,17.46c0.01,1.14-0.32,1.53-1.49,1.53c-3.83-0.01-3.83,0.04-3.83-3.8
		c0-14.11,0-28.22,0-42.33c0-1.97,0.01-2,2.01-1.97c4.79,0.06,9.6-0.02,14.38,0.28c3.77,0.24,7.24,1.6,9.53,4.83
		c4.76,6.71,3.19,16.69-5.81,20.84C107.73,198.53,107.32,198.72,106.7,199.01z M93.34,186.28c0,2.84,0.02,5.67-0.01,8.51
		c-0.01,0.85,0.2,1.33,1.15,1.29c2.23-0.09,4.47-0.01,6.68-0.25c5.82-0.65,10.71-4.27,9.87-11.64c-0.4-3.52-2.57-6.33-6.1-6.84
		c-3.38-0.49-6.83-0.52-10.25-0.79c-1.04-0.08-1.38,0.32-1.36,1.36C93.37,180.7,93.34,183.49,93.34,186.28z"/>
	<path class="st0" d="M146.37,220.46c-1.86,0-3.48,0.07-5.09-0.05c-0.37-0.03-0.86-0.66-1-1.1c-1.47-4.56-2.91-9.12-4.26-13.71
		c-0.31-1.05-0.75-1.44-1.83-1.42c-3.63,0.05-7.27,0.02-10.9,0.01c-0.55,0-1.09-0.04-1.89-0.08c0.28-1.13,0.41-2.16,0.82-3.04
		c0.18-0.38,0.95-0.65,1.46-0.67c2.89-0.06,5.78-0.03,8.66-0.03c0.55,0,1.1,0,2.07,0c-2.26-7.21-4.45-14.19-6.63-21.18
		c-0.11-0.01-0.23-0.01-0.34-0.02c-0.4,1.16-0.82,2.31-1.19,3.48c-3.09,9.65-6.09,19.32-9.29,28.94c-0.68,2.05-0.48,3.62,0.79,5.26
		c0.76,0.98,1.32,2.12,2.12,3.44c-3.66,0-7.09,0-10.71,0c0.21-0.73,0.38-1.48,0.62-2.2c5.08-14.82,10.18-29.63,15.24-44.45
		c0.33-0.95,0.82-1.28,1.82-1.28c3.6-0.01,3.64-0.06,4.78,3.36c3.56,10.71,7.08,21.44,10.63,32.16c1.21,3.66,2.46,7.31,3.69,10.97
		C146.08,219.27,146.17,219.72,146.37,220.46z"/>
	<path class="st0" d="M219.73,192.95c1.37,0,2.57,0,3.77,0c3.77,0,7.55,0.03,11.32-0.01c0.95-0.01,1.33,0.26,1.31,1.26
		c-0.05,3.5,0.25,2.87-2.75,2.9c-4.1,0.04-8.2,0.04-12.3-0.01c-1.01-0.01-1.38,0.24-1.37,1.32c0.05,5.45,0.05,10.9,0,16.35
		c-0.01,1.09,0.29,1.44,1.41,1.43c6.05-0.05,12.11,0.02,18.16-0.05c1.38-0.02,1.91,0.32,1.85,1.78c-0.1,2.9,0.14,2.55-2.58,2.55
		c-7.5,0.01-15-0.02-22.5,0.03c-1.2,0.01-1.63-0.3-1.62-1.55c0.04-15,0.04-30,0-45c0-1.25,0.42-1.58,1.62-1.57
		c7.5,0.05,15,0.05,22.5,0c1.3-0.01,1.71,0.4,1.67,1.68c-0.08,2.93,0.26,2.68-2.74,2.69c-5.4,0.01-10.81,0.04-16.21-0.02
		c-1.22-0.01-1.59,0.34-1.58,1.58C219.77,183.08,219.73,187.88,219.73,192.95z"/>
	<path class="st0" d="M176.46,176.74c-0.75,0.8-1.49,1.51-2.12,2.31c-0.7,0.89-1.21,0.9-2.11,0.13c-4.2-3.63-9.03-4.48-14.2-2.59
		c-4.01,1.46-6.15,4.84-7.7,8.58c-2.05,4.96-2.19,10.13-1.53,15.38c0.54,4.28,1.98,8.11,4.66,11.61c4.72,6.16,15.32,6.18,19.81,0.17
		c1.26-1.69,1.37-1.61,3.02-0.35c2.19,1.68,2.17,1.67,0.31,3.66c-3.45,3.71-7.67,5.41-12.76,5.63
		c-10.37,0.44-16.44-5.91-19.04-13.57c-2.84-8.38-2.76-16.77,0.8-24.94c4.22-9.7,12.13-12.83,22.03-11.14
		C171.77,172.32,174.73,174.24,176.46,176.74z"/>
	<path class="st0" d="M242.52,176.84c0-1.27-0.06-2.43,0.04-3.58c0.03-0.31,0.48-0.66,0.82-0.84c0.26-0.14,0.64-0.03,0.96-0.03
		c10.43,0,20.86,0,31.29,0c1.94,0,1.96,0,1.94,1.89c-0.03,3.15,0.29,2.61-2.7,2.63c-3.45,0.03-6.89,0-10.34,0.01
		c-1.84,0-1.85,0-1.85,1.8c0,13.27,0,26.55,0,39.82c0,1.97,0,1.97-2.02,1.94c-3.27-0.04-3.27-0.04-3.27-3.38
		c0-12.76,0-25.52,0-38.29c0-1.89,0-1.9-1.92-1.9c-3.77,0-7.54,0-11.32,0C243.68,176.92,243.18,176.87,242.52,176.84z"/>
	<path class="st0" d="M212.8,220.43c-1.93,0-3.87,0.04-5.79-0.04c-0.38-0.02-0.79-0.45-1.1-0.78c-6.28-6.62-12.56-13.23-18.8-19.89
		c-0.43-0.45-0.66-1.19-0.76-1.84c-0.45-3,0.56-5.33,2.74-7.56c5.3-5.42,10.34-11.1,15.44-16.72c0.79-0.86,1.58-1.32,2.77-1.24
		c1.33,0.09,2.67,0.02,4.38,0.02c-0.46,0.63-0.69,1-0.97,1.31c-6.48,7-12.95,14.02-19.48,20.97c-0.99,1.05-0.99,1.64,0.02,2.68
		c6.96,7.19,13.85,14.44,20.76,21.68c0.32,0.33,0.61,0.68,0.91,1.02C212.88,220.18,212.84,220.31,212.8,220.43z"/>
	<path class="st0" d="M11.15,196.61c0,7.45-0.03,14.89,0.03,22.34c0.01,1.24-0.34,1.58-1.57,1.55c-3.73-0.09-3.73-0.04-3.73-3.76
		c0-14.15,0-28.3,0-42.45c0-1.89,0-1.89,1.94-1.9c3.33-0.01,3.33-0.01,3.33,3.28C11.15,182.65,11.15,189.63,11.15,196.61z"/>
	<path class="st0" d="M185.28,196.32c0,7.5-0.03,15,0.02,22.49c0.01,1.24-0.27,1.71-1.62,1.69c-3.64-0.07-3.64-0.01-3.64-3.7
		c0-14.11,0-28.22,0-42.33c0-2.09,0-2.09,2.01-2.08c3.22,0.01,3.22,0.01,3.22,3.25C185.28,182.54,185.28,189.43,185.28,196.32z"/>
</g>
</svg>
