<?xml version="1.0" encoding="utf-8"?>
<!-- Generator: Adobe Illustrator 25.2.3, SVG Export Plug-In . SVG Version: 6.00 Build 0)  -->
<svg version="1.1" id="katman_1" xmlns="http://www.w3.org/2000/svg" xmlns:xlink="http://www.w3.org/1999/xlink" x="0px" y="0px"
	 viewBox="0 0 283.46 283.46" style="enable-background:new 0 0 283.46 283.46;" xml:space="preserve">
<style type="text/css">
	.st0{fill:#AFAFAF;}
	.st1{fill:none;stroke:#AFAFAF;stroke-width:2;stroke-miterlimit:10;}
</style>
<g>
	<path class="st0" d="M47.21,73.41C16.21,70.87,3.35,83.74,3.35,83.74s4.48,9.36,6.43,7.6c1.95-1.75,0-5.85,0-5.85
		c1.56-1.95,12.28-3.31,12.28-3.31c-3.7,11.31-1.56,26.71-1.56,26.71c5.26,7.21,5.07-4.68,5.51-6.24c0.45-1.56,0-20.33,0-20.33
		s-1.81-1.89,13-2.28C53.83,79.65,47.21,73.41,47.21,73.41z M20.5,78.67c-1.17-0.39-6.82,2.14-6.82,2.14s-5.65,1.56,2.73-2.18
		S21.67,79.06,20.5,78.67z M23.23,87.25c-1.36,1.36,0,8.58,0,8.58s-1.75,1.36-1.95-4.29C21.09,85.88,24.6,85.88,23.23,87.25z"/>
	<path class="st1" d="M9,88.81c0,0,4.9-7.81,37.65-7.69c1.73,0.01,3.43-0.66,4.6-1.93c1.4-1.52,1.68-3.46-5.02-4.02
		c-11.5-0.97-20.22,3.94-20.22,3.94L7.83,84.32L9,88.81z"/>
	<path class="st1" d="M29.95,79.1c0,0-1.75,9.22-0.58,9.71C30.54,89.3,29.95,79.1,29.95,79.1z"/>
	<path class="st1" d="M36.83,83.96c0,0,5.56,19.81,4.09,25.22c0,0,0.03,2.59,2.22,1.27c2.19-1.32-2.8,4.8-5.14,0.74
		c-2.34-4.06,1.02-15.17-3.8-25.84C34.2,85.35,33.9,81.55,36.83,83.96z"/>
	<path class="st0" d="M34.19,83.54c0-0.37,0.07-0.74,0.24-1.08c0.23-0.47,0.65-1.02,1.38-1.06c0.7-0.04,2.13-0.11,3.33-0.17
		c1.16-0.06,2.22,0.67,2.58,1.78c1.35,4.19,4.33,14.78,3.77,25.23c-0.02,0.42-0.14,0.83-0.36,1.19c-0.32,0.52-0.88,1.1-1.67,0.84
		c-0.45-0.15-0.7,0.35-1.14,0.52c-0.59,0.24-1.54-0.21-1.39-1.62c0.23-2.22-1.54-15.79-3.73-23.93c-0.27-1.02-1.12-1.8-2.17-1.9
		c-0.46-0.04-0.83,0.09-0.83,0.61C34.19,84.96,34.19,84.1,34.19,83.54z"/>
	<path class="st0" d="M42.89,91.56l13.45-0.73c0,0-0.37-10.07-2.49-13.77c-2.12-3.7,5.12-5.82,5.92-0.78
		c0.8,5.04,4.82,23.25,3.65,35.31c0,0-2.85,5.33-6.94-0.74c0,0-0.44-14.57,0.73-14.88c1.17-0.32-12.44,0.07-12.44,0.07L42.89,91.56z
		"/>
	<path class="st1" d="M51.04,75.84c0,0,0.92-4.82,5.45-1.31c4.53,3.51,4.46,34.94,4.46,34.94l-0.28,4.26c0,0-5.86,2.53-6.81-2.88
		s1.17-10.23,0.58-16.3s-0.8-15.74-2.5-17.5C50.87,75.95,51.04,75.84,51.04,75.84z"/>
	<path class="st0" d="M93.31,104.4c-15.11,4.48-21.93,4.19-23.59-0.49c-1.26-3.55,4.5-6.25,7.35-7.34c0.87-0.33,1.8-0.5,2.73-0.49
		c4.16,0.04,5.18-1.24,5.18-2.51c0-1.36-1.24-2.39-2.6-2.29c-8.37,0.61-13.49-0.48-14.13-4.33c-0.68-4.09,1.75-6.24,6.43-7.86
		c2.93-1.01,3.53,0.08,3.57,1.04c0.05,1.2,0.44,2.37,1.28,3.23c1.78,1.81,2.99-0.32,3.15-4.27c0.19-4.93-6.04-4.91-6.04-4.91
		c-17.93-0.19-12.99,15.79-12.99,15.79l-2.21,0.39v4.19l4.19-1.85c4.48,2.92,3.9,3.34,3.9,3.34c-9.81,9.5-1.72,14.59,1.42,16.09
		c0.29,0.14,0.58-0.02,0.9-0.09c0.06-0.01,0.26,0.12,0.7,0.57c1,1.01,14.66-0.93,20.3-1.78c1.93-0.29,3.59-1.6,4.22-3.45
		C98.31,103.68,93.31,104.4,93.31,104.4z M64.46,81.92c0,0,3.18-5.74,7.02-6.37c3.83-0.63,1.95,1.46,1.95,1.46
		c-4.48,0.68-7.41,6.15-7.41,6.15C63.87,84.63,64.46,81.92,64.46,81.92z"/>
	<path class="st1" d="M71.38,91.44c0,0-4.13-9.75,7.97-10.92c0,0,3.04,9.51,6.26,3.44c0,0,1.27-6.26-4.39-7.34"/>
	<polygon class="st0" points="65.43,91.44 65.43,101.63 66.7,103.62 67.77,100.7 66.6,100.6 66.6,91.44 	"/>
	<path class="st0" d="M81.84,95.98c0,0-0.55,6.77,0,7.25c0.55,0.49,1.62,0.39,0.55-8.28l-1.36-0.49L81.84,95.98z"/>
	<path class="st1" d="M72.65,107.81c0,0-1.53-9.7,11.96-10.26c1.03-0.04,2.03-0.5,2.66-1.32c0.82-1.08,0.78-2.55-4.41-3.24"/>
	<path class="st1" d="M69.82,110.85c0,0,5.78,6.25,27.01,2.04c1.29-0.26,2.46-0.99,3.16-2.1c0.93-1.49,1.6-5.12-4.74-4.15"/>
	<path class="st0" d="M106.55,82.51c0.56,2.74,3.67,18.04,3.98,25.53c0.03,0.63,0.31,1.22,0.79,1.63c1.26,1.06,3.62,2.04,3.62-5.46
		c0-6.4-0.53-8.41-0.93-9.03c-0.25-0.38-0.41-0.82-0.4-1.27c0.04-3.15-0.22-12.45-4.41-13.58c0,0-2.02-0.54-2.59,1.07
		C106.48,81.76,106.48,82.14,106.55,82.51z"/>
	<path class="st0" d="M128.3,75.43c-1.85-3.53-5.26-0.47-5.26,1.19c0,1.66,4.39,14.81,4.39,14.81s-13.86-0.21-14.72,0l0.88,4.39
		l13.16-0.51c0.29,0.85-0.19,13.76-0.49,15.87c-0.29,2.11,4.68,6.76,7.11,0C135.8,104.43,130.15,78.96,128.3,75.43z M124.69,76.62
		c1.38,0.94,2.05,8.09,2.05,8.09C125.18,82.96,123.32,75.68,124.69,76.62z"/>
	<path class="st1" d="M124.21,92.13c0,0-1.27-12.39-3.03-15.51c-1.75-3.12,2.83-4.97,4.29-2.44"/>
	<path class="st1" d="M124.21,94.46c0,0-2.31,15.5,0,16.73c2.31,1.22,3.99,0.23,5.16-1.91"/>
	<path class="st1" d="M108.22,83.6c0,0-4.39-3.85-3.61,4.53c0,0,3.15,14.21,2.73,21.2c-0.06,1.05,0.25,2.1,0.94,2.89
		c1.12,1.28,3.09,1.81,5.58-4.4"/>
	<path class="st0" d="M158.8,85.79c-3.22-4.78-4.87,0-4.87,0s4.19,14.91,1.56,18.81c-2.63,3.9-9.06,0.97-9.65-0.49
		c-0.58-1.46-4.29-14.91-6.43-16.37c-2.14-1.46-3.7,1.85-3.7,1.85h-5.56l-0.78,0.39l2.83,3.41l4.48-0.68v1.56
		c-0.78,25.43,18.62,14.82,18.62,14.82c0.49,5.17,2.53,5.95,5.85,3.94C164.46,111.02,162.02,90.56,158.8,85.79z M138.04,90.95
		c-0.54,0-0.97-0.44-0.97-0.97c0-0.54,0.44-0.97,0.97-0.97c0.54,0,0.97,0.44,0.97,0.97C139.02,90.52,138.58,90.95,138.04,90.95z
		 M157.73,93.68c-0.49,1.66-2.24-2.92-1.75-7.8C155.98,85.88,158.22,92.02,157.73,93.68z"/>
	<path class="st0" d="M135.41,92.13c0,0-0.04,0.27-0.09,0.71c-0.28,2.2-1.03,8.68,0.09,7.37c1.35-1.57,0.78-8.67,0.78-8.67"/>
	<path class="st0" d="M157.34,113.08c0,0-0.97,5.07,0,4.68C158.32,117.36,157.34,113.08,157.34,113.08z"/>
	<path class="st0" d="M185.22,77.89c-5.75,1.56-1.66,15.4-4.78,14.81c-3.12-0.58-8.28-12.08-8.28-12.08
		c-5.75-12.18-8.77-4.09-8.77-4.09c-2.14,21.62,4.11,34.15,5.69,36.91c0.31,0.55,0.84,0.96,1.46,1.06c0.44,0.07,0.83-0.01,1.18-0.18
		c1.16-0.57,1.6-2.01,1.05-3.18c-4.01-8.48-2.95-24-2.95-24c6.78,5.74,9.94,10.04,9.94,10.04c-0.29,13.65,3.12,9.55,4.09,10.04
		C184.83,107.72,190.97,76.33,185.22,77.89z M163.87,84.71c0,0,0.49-12.87,1.66-8.17C166.7,81.23,163.87,84.71,163.87,84.71z
		 M185.71,80.63c-0.43,0-0.78-0.35-0.78-0.78c0-0.43,0.35-0.78,0.78-0.78c0.43,0,0.78,0.35,0.78,0.78
		C186.49,80.28,186.14,80.63,185.71,80.63z"/>
	<path class="st1" d="M158.71,86.86c0,0,4.16-1.67,5.17,5.27c0.97,6.72,0.97,18.6,0.97,21.91c0,3.62-4.77,3.74-6.62-0.96"/>
	<path class="st1" d="M169.53,112.69c0,0,3.61,6.42,5.22,2.67c0.49-1.13,0.46-2.41,0.02-3.56c-1.27-3.33-4.26-12.77-2.36-23.76"/>
	<path class="st0" d="M176.73,93.68c0,0-1.17,11.41,0,10.92c1.17-0.49,0.33-10.57,0.33-10.57L176.73,93.68z"/>
	<g>
		<path class="st0" d="M218.55,97.87c0,0,1.75-3.41,2.92-2.73c0,0-0.29-2.34-2.83-2.63c-2.53-0.29-18.23-0.49-17.25,3.12
			c0.97,3.61,3.9,2.63,11.79,2.83c0,0,1.85,7.8,1.07,9.26c-0.78,1.46-24.66,13.54-18.91-14.04c0,0-0.41-0.86-1.53,1.99
			c-1.86,4.74-1.88,8.95-1.88,8.95s-4.58-23.89,23.78-26.43c0,0,1.36-1.27,1.95-0.39c0.34,0.51,0.83,1.6,0.81,2.39
			c0.83-0.95,1.53-2.45-0.81-3.56c0,0-0.68-3.31-3.02-3.12c0,0-31.11,0.68-27.01,29.82C191.75,132.47,234.44,115.71,218.55,97.87z
			 M213.38,74.77c1.75,0.19,0,1.75,0,1.75c-3.61-2.14-18.42,6.92-18.42,6.92C201.1,76.14,211.63,74.58,213.38,74.77z"/>
	</g>
	<path class="st1" d="M193.84,99.16c0.95-4.8,3.34-9.23,6.96-12.51c3.7-3.35,9.34-6.36,17.68-6.46c0,0-16.56-2.53-23.97,13.92
		c-0.12,0.26-0.24,0.51-0.37,0.76c-0.49,0.89-1.87,3.92-2.19,9.75C191.67,109.54,193,103.39,193.84,99.16z"/>
	<path class="st0" d="M203.93,96.97c0,0-0.34,12.28,0.74,10.31C205.76,105.3,204.08,97.34,203.93,96.97z"/>
	<path class="st1" d="M192.97,113.49c0,0,4.69,11.08,20.39,6.85c4.1-1.1,7.57-3.97,9.16-7.91c1.5-3.71,1.66-8.59-3.67-13.27"/>
	<path class="st0" d="M255.32,109.1l-7.6-7.38c8.92-0.44,4.82-10.23,4.82-10.23c-7.75-19.08-21.78-19.08-29.6-17.25
		c-7.82,1.83-3.14,19.66-3.14,19.66l1.83,1.61c3.21,3.3,4.51,1.73,5.05,0.01c0.33-1.07,0.18-2.22-0.28-3.24
		c-1.33-2.96-1.55-10.29-1.55-10.29c0.49-3.86,6.63-3.71,8.61-3.57c0.32,0.02,0.64,0.04,0.96,0.03c6.39-0.33,14.7,11.2,14.92,14.14
		c0.22,3-13.3,1.32-13.3,1.32c-0.73-11.76-11.4-10.89-9.36-6.73c1.59,3.24,2.83,14.1,3.3,18.75c0.19,1.91,0.92,3.73,2.17,5.18
		c1.74,2.02,2.95,1.5,3.66,0.73c0.48-0.53,0.74-1.23,0.77-1.95l0.33-7.67h6.21c1.08,2.76,1.97,5.14,2.41,6.31
		c0.16,0.43,0.31,0.87,0.42,1.31c2.06,8.16,7.01,8.04,9.38,5.53C257.73,112.83,255.32,109.1,255.32,109.1z M225.59,95.35
		c0,0.6-0.49,1.08-1.08,1.08c-0.6,0-1.08-0.49-1.08-1.08c0-0.6,0.49-1.08,1.08-1.08C225.1,94.27,225.59,94.75,225.59,95.35z
		 M231.56,75.41c-6.36-1.24-9.48,3.7-9.48,3.7s-1.19,0.76-1.19-1.06c0-0.82,0.73-1.57,1.54-2.14c1-0.71,2.15-1.17,3.36-1.41
		C233.88,72.9,231.56,75.41,231.56,75.41z M245.89,99.16c0,0,5.77-1.1,6.07-3.36c0,0,2.49-0.47-1.06,2.92
		c-0.53,0.51-1.18,0.9-1.89,1.07C248.15,100,247.02,100,245.89,99.16z"/>
	<path class="st1" d="M224.51,85.64c0,0,4.82-15.9,24.29,5.28l1.7,1.52"/>
	<path class="st1" d="M233.32,77.89l0.37,10.53c0,0,2.7,6.58,0.8-11.04L233.32,77.89z"/>
	<path class="st0" d="M277.03,78.26c-3.36,0.07-9.21,14.55-9.21,14.55l-1.68-1.61c-14.25-15.06-16.01-7.7-16.01-7.7
		c-1.02,4.95,13.16,11.2,13.16,11.2c-6.51,5.34-14.18,15.64-7.31,17.25c6.87,1.61,13.3-9.94,19.81-20.61
		C282.29,80.67,280.39,78.18,277.03,78.26z M265.09,96.97c-1.55,0.15-9.63,10.09-9.63,10.09c-0.8-1.02-0.19-3.45,5.19-9.21
		C266.04,92.08,265.09,96.97,265.09,96.97z M272.86,86.96c1.02-3,3.63-8.58,3.95-7.05C277.12,81.44,272.86,86.96,272.86,86.96z"/>
	<path class="st1" d="M265.84,91.71c0,0,4.99-7.89,8.17-14.31c0.38-0.78,0.97-1.45,1.73-1.87c1.25-0.69,2.92-0.66,2.97,4.38"/>
	<path class="st0" d="M262.85,108.59c0,0-0.29,10.82,0.88,8.77C264.89,115.32,262.85,108.59,262.85,108.59z"/>
	<path class="st1" d="M186.49,80.63c0,0,5.84-3.45,3.33,6.33s-3.26,30.5-7.38,19.48"/>
	<g>
		<path class="st0" d="M64.39,173.8c33.55-27.34,23.9-41.96,23.9-41.96s-8.77-16.23-47.81,0c-39.03,16.23-20.32,24.71-20.32,24.71
			c6.58,4.53,9.65,0.58,10.67-3.65c1.02-4.24,9.06-6.87,9.06-6.87l1.2,26.47c-0.25-0.66-1.3-0.88-5.14,3.06
			c-5.99,6.14,3.07,8.19,3.07,8.19l0.29,10.67c-0.99,0.15-1.81,0.35-2.49,0.58c-2.71,0.91-2.92,4.68-0.36,5.94
			c27.88,13.68,45.98-6.08,45.98-6.08C96.77,177.01,64.39,173.8,64.39,173.8z M38.58,180.96c0.44,2.78-5.85-4.39,2.05-4.39
			C40.63,176.57,38.14,178.18,38.58,180.96z M40.63,196.75c-1.75,1.02-1.32,4.39-1.32,4.39s-1.9-1.46-2.69-3.51
			C35.83,195.58,42.38,195.73,40.63,196.75z M51.03,171.9c-2.61-0.58,0-1.9,0-1.9c27.51-18.42,24.83-29.68,24.83-29.68
			C81.56,153.04,51.03,171.9,51.03,171.9z M67.74,137.16c2.19,0.21,3.93,2,4.06,4.2c0.69,11.39-21.52,25.72-21.52,25.72l-2.34-24.71
			C57.79,137.3,64.28,136.82,67.74,137.16z M20.01,153.62c-4.09,0.58-1.61-3.07-1.61-3.07c7.43-11.75,19.77-17.22,28.61-19.73
			c3.3-1.19,6.83-1.96,10.57-2.05c0,0-4.45,0.32-10.57,2.05C30.57,136.78,20.01,153.62,20.01,153.62z M31.2,144.56
			c-2.37,2.27-3.73,3.94-3.73,3.94C28.47,147.05,29.77,145.74,31.2,144.56c4.98-4.78,14.38-12.24,24.78-12.43
			c0,0,4.38,1.24-10.44,5.12C45.55,137.25,37.15,139.71,31.2,144.56z M47.94,194.85c1.02-0.88,1.93-9.21,1.93-9.21
			c25.76-1.61,23.51,1.32,23.51,1.32C73.23,193.68,46.92,195.73,47.94,194.85z M77.47,190.1c-2.19,3-10.14,6.21-13.74,4.94
			c0,0,10.53-0.63,11.7-8.38C75.42,186.66,79.66,187.1,77.47,190.1z"/>
		<path class="st0" d="M34.34,147.04c0,0-1.9,16.23,0,14.91s0.73-17.1,0.73-17.1l-5.99,4.68l-3.36-1.02l3.36-3.65h1.49"/>
		<polygon class="st0" points="45.75,132.13 47.91,129.79 57.59,127.01 59.88,129.57 		"/>
		<path class="st0" d="M71.36,144.85c0,0-1.49-4.39-7.63-4.53c-6.14-0.15,7.75-2.57,8.77,0.91
			C73.52,144.7,71.36,144.85,71.36,144.85z"/>
		<path class="st0" d="M151.45,191.63c0,0-2.92-2.78-4.82-3.22c-1.88-0.43-1.4-4.82-33.67,2.3c-1.04,0.23-2.1,0.36-3.16,0.38
			c-4.96,0.1-17.58-0.71-12-12c0,0,5.85-8.95,21.49-9.53c0,0,7.6-0.31,6.27-5.14c-0.49-1.77-2.46-3.46-4.26-3.81
			c-2.05-0.39-6.86-1.18-20.73-0.56c0,0-8.19-11.78,10.82-17.95c0,0,1.1,8.15,7.05,4.21c5.96-3.95-0.45-15.94-3.84-16.74
			c-3.56-0.84-16.37-3.14-25.73,8.84c-9.36,11.99-5.26,13.65-5.26,13.65s0.15,13.25,13.3,16.32c0,0-21.05,17.84,0,30.19
			C117.97,210.93,162.85,200.55,151.45,191.63z M88.23,144.85c0,0-7.69,9.5,0-3.62c7.69-13.13,20.09-9.1,13.66-7.49
			C95.45,135.35,88.23,144.85,88.23,144.85z M96.18,156.98c-2.8-1.93-3.35-4.54-3.06-6.91c0.4-3.23,2.39-6.05,5.22-7.67
			c14.44-8.29,12.75-3.05,12.75-3.05C95.31,142.35,96.18,156.98,96.18,156.98z M149.48,196.19c-4.82,3.29-38.82,5.82-43.36,3.78
			c0,0,31.36,1.09,41.36-6.68c0.95-0.74,2.29-0.89,3.3-0.22C151.61,193.61,151.85,194.57,149.48,196.19z"/>
		<path class="st1" d="M101.15,190.99c0,0-3.73-18.18,23.71-19.07c2.03-0.07,3.86-1.43,4.32-3.41c0.44-1.89-0.46-3.78-6.25-3.33"/>
		<path class="st0" d="M118.72,169.58c0,0-1.73,15.76,0,13.28C120.45,180.38,118.72,169.58,118.72,169.58z"/>
		<path class="st1" d="M116.36,144.85c0,0,4.82,9.8,8.48,0.88c3.65-8.92-6.89-11.4-6.89-11.4"/>
		<path class="st0" d="M203.78,171.9c-1.75-6.73-25.73-5.36-25.73-5.36c-2.34-7.41-17.25-24.17-26.69-23.15
			c-9.44,1.02-12.79,25.44-12.79,25.44c-12.57,2.78-11.7,9.94-11.7,9.94c-3.51,15.5,9.21,4.36,9.21,4.36l1.02,6.17l12.87,1.7
			l0.44-15.44l23.83-0.29c0,0,10.23,19.59,10.23,23.1c0,3.51,10.96,7.75,9.94-0.58c-1.02-8.33-11.4-21.42-11.4-21.42
			s6.29-1.83,12.13,0.66C201.01,179.5,205.54,178.62,203.78,171.9z M146.62,152.16c1.32,0.88-5.26,15.2-5.26,15.2
			C143.26,155.81,145.31,151.28,146.62,152.16z M147.68,189.73l-2.81,0.59l1.93-13.96c0,0,1.79-1.68,1.76,0
			C148.52,178.04,147.68,189.73,147.68,189.73z M149.48,166.54c-2.99-3.99,2.12-9.3,3.12-10.26c0.01-0.01,0.01-0.01,0.02-0.02
			c0.01-0.01,0.02-0.02,0.03-0.03c0.14-0.13,0.16-0.14,0,0c-0.02,0.01-0.03,0.03-0.05,0.05
			C151.28,157.51,149.48,166.54,149.48,166.54z M152.76,165.19c0,0,2.48-11.57,3.8-11.71s7.6,2.82,12.28,11.71H152.76z"/>
		<path class="st1" d="M151.37,194.56c0,0,3.88,5.41,1.91-20.91"/>
		<path class="st1" d="M152.6,144.41c0,0,8.35-13.89,32.47,22.95s7.46,31.58,7.46,31.58"/>
		<path class="st0" d="M187.7,200.11c0,0-1.32,12.28,0,10.09S187.7,200.11,187.7,200.11z"/>
		<path class="st0" d="M243.4,179.35c10.23,5.85,21.34-30.99-23.1-50.53c-44.57-19.59-26.75,39.56-26.75,39.56s1.32,0.86,3.15,1.56
			l-0.52-3.78c0,0,5.41,1.58,5.85,0c0.44-1.58,0,3.78,0,3.78l-4.13,0.41c1.63,0.48,3.49,0.72,5.14,0.17
			c4.08-1.37,1.13-7.25,1.13-7.25c-2.75-5.57-2.94-9.98-2.36-13.1c0.69-3.69,3.45-6.58,7.07-7.57c17.63-4.85,38.36,20.22,33.94,23.3
			c-4.82,3.36-21.2-0.71-21.2-0.71c-5.12-19.72-20.18-19.46-17.45-11.72c2.72,7.74,4.73,38.89,7.81,44.01
			c3.07,5.12,9.36,2.63,10.82-2.46c1.46-5.1-0.29-14.2-0.29-14.2l10.53-0.44c3.4,3.4,5.15,10.85,5.82,14.37
			c0.29,1.53,0.83,3.01,1.6,4.37c8.13,14.39,16.79,7.11,18.46,0.99C260.65,193.68,243.4,179.35,243.4,179.35z M193.84,137.98
			c0-9.06,17.1-11.11,19.88-9.15c1.53,1.08,1.38,1.84,0.93,2.3c-0.4,0.42-1.02,0.53-1.58,0.38
			C200.35,128.08,193.84,137.98,193.84,137.98z M200.86,144.56c-1.83-1.39-1-3.33,0.28-4.92c1.87-2.32,4.66-3.72,7.62-3.99
			c15.17-1.39,32.44,18.55,32.44,18.55C216.06,129.65,200.86,144.56,200.86,144.56z M222.64,178.06c0,0,0.29-1.19,2.7-1.78
			c2.41-0.58,2.7,1.78,2.7,1.78H222.64z M241.94,177.45c-1.46-0.44-2.63-1.84-2.63-1.84c9.65-3.01,12.28-6.93,12.28-6.93
			C252.17,175.4,243.4,177.89,241.94,177.45z"/>
		<path class="st0" d="M216.65,135.58c0,0-2.13,20.61,0.47,19.4C219.72,153.77,216.65,135.58,216.65,135.58z"/>
	</g>
</g>
</svg>
