<?xml version="1.0" encoding="utf-8"?>
<!-- Generator: Adobe Illustrator 25.2.3, SVG Export Plug-In . SVG Version: 6.00 Build 0)  -->
<svg version="1.1" id="katman_1" xmlns="http://www.w3.org/2000/svg" xmlns:xlink="http://www.w3.org/1999/xlink" x="0px" y="0px"
	 viewBox="0 0 283.46 283.46" style="enable-background:new 0 0 283.46 283.46;" xml:space="preserve">
<style type="text/css">
	.st0{fill:#AFAFAF;}
	.st1{fill:#FEFEFE;}
</style>
<g>
	<path class="st0" d="M105.5,162.56c0,16.13,0,32.26,0,48.39c0,0.35,0.01,0.7,0,1.05c-0.04,0.86,0.11,1.85-1.01,2.17
		c-0.95,0.27-1.41-0.47-1.91-1.09c-2.4-3.02-4.8-6.04-7.2-9.07c-3.68-4.65-7.15-4.62-10.84,0.09c-2.32,2.97-4.61,5.98-7.01,8.88
		c-3.06,3.7-6.66,3.63-9.71-0.13c-2.27-2.79-4.46-5.64-6.68-8.47c-4-5.09-7.31-5.07-11.36,0.07c-2.17,2.76-4.29,5.55-6.48,8.29
		c-3.2,4-6.81,4.02-10.05,0.05c-2.49-3.06-4.89-6.19-7.36-9.27c-3.05-3.81-6.81-3.78-9.88,0.07c-2.35,2.95-4.67,5.93-7,8.89
		c-0.54,0.68-1.04,1.55-2.11,1.15c-1.06-0.4-0.87-1.41-0.87-2.26C6.02,200.15,6.01,188.93,6,177.71
		c-0.02-19.81-0.03-39.63-0.03-59.44c0-24.92,16.35-44.82,40.8-49.68c26.71-5.31,53.97,13.99,57.87,40.88
		c0.86,5.94,0.54,11.9,0.59,17.85c0.1,11.75,0.03,23.49,0.03,35.24C105.33,162.56,105.42,162.56,105.5,162.56z"/>
	<path class="st0" d="M213.32,139.85c4.42-4.31,8.54-5.22,12.91-3.14c1.6,0.76,2.46,3.2,3.88,2.94c1.45-0.27,2.61-2.16,4.25-2.89
		c7.6-3.44,14.51,0.69,14.76,8.96c0.15,5.17,0.09,10.34,0.03,15.51c-0.03,2.7-1.79,4.49-4.15,4.44c-2.36-0.04-3.96-1.83-4.01-4.58
		c-0.06-4.2,0.12-8.42-0.12-12.61c-0.24-4.27-3.17-6.27-6.69-4.89c-2.43,0.95-3,3.05-3.03,5.33c-0.06,3.94,0,7.89-0.03,11.83
		c-0.03,3.11-1.66,4.98-4.21,4.92c-2.41-0.06-4.03-1.91-4.08-4.85c-0.06-3.77,0.02-7.54-0.03-11.3c-0.05-4.25-1.57-6.27-4.66-6.33
		c-3.26-0.06-4.99,2.08-5.03,6.29c-0.03,3.68,0.01,7.36-0.01,11.04c-0.02,3.24-1.72,5.24-4.3,5.16c-2.51-0.08-4.02-1.97-4.03-5.14
		c-0.02-6.31-0.01-12.62,0-18.93c0-3.45,0.9-4.97,3.25-5.52C210.36,135.52,211.84,136.53,213.32,139.85z"/>
	<path class="st0" d="M268.99,209.67c-2.1,2.46-4.31,3.91-7.17,4.28c-5.44,0.71-10.04-2.61-10.72-8.06
		c-0.74-5.93-0.3-11.91-0.24-17.86c0.03-2.54,1.94-4.06,4.32-3.94c2.24,0.11,3.8,1.7,3.85,4.15c0.08,4.21-0.03,8.42,0.06,12.62
		c0.06,3.09,1.38,4.93,3.62,5.41c3.55,0.77,6.2-1.08,6.34-4.71c0.17-4.2,0.05-8.41,0.11-12.62c0.04-2.82,1.3-4.5,3.49-4.83
		c2.56-0.39,4.75,1.29,4.78,3.97c0.09,7.19,0.06,14.38,0.01,21.56c-0.01,2.08-1.14,3.52-3.19,3.94c-2.12,0.43-3.79-0.34-4.71-2.4
		C269.38,210.8,269.26,210.39,268.99,209.67z"/>
	<path class="st0" d="M207.97,209.63c-2.94,3.36-6.17,4.93-10.31,4.16c-4.29-0.8-7.21-3.53-7.64-7.85
		c-0.61-6.02-0.32-12.08-0.16-18.13c0.06-2.38,1.92-3.83,4.21-3.74c2.15,0.08,3.79,1.57,3.86,3.85c0.12,4.2,0,8.41,0.09,12.62
		c0.08,3.71,1.56,5.58,4.38,5.83c3.21,0.29,5.35-1.28,5.56-4.51c0.25-3.84,0.14-7.71,0.2-11.56c0.02-0.96-0.02-1.94,0.14-2.88
		c0.38-2.2,2.11-3.53,4.32-3.32c2.22,0.21,3.68,1.49,3.71,3.7c0.11,7.36,0.09,14.72,0.02,22.08c-0.02,2.09-1.3,3.43-3.38,3.74
		C210.22,214.03,208.74,212.51,207.97,209.63z"/>
	<path class="st0" d="M233.32,183.97c3.61,0,6.46,0.75,9.16,2.12c1.96,1,2.68,2.63,1.71,4.58c-0.9,1.81-2.5,2.29-4.45,1.45
		c-2.01-0.86-4-1.83-6.27-1.77c-1.25,0.04-2.59,0.09-2.92,1.63c-0.31,1.47,0.91,2,1.94,2.42c2.1,0.86,4.29,1.52,6.39,2.39
		c4.77,1.97,6.72,4.83,6.21,8.9c-0.58,4.6-3.29,7.19-8.35,8.03c-4.82,0.8-9.21-0.41-13.34-2.83c-1.87-1.1-2.54-2.78-1.48-4.68
		c1.09-1.95,2.9-2.09,4.77-1.01c2.39,1.38,4.9,2.41,7.69,2.36c1.27-0.02,2.8-0.05,3.15-1.75c0.35-1.76-1.09-2.23-2.3-2.67
		c-1.89-0.69-3.86-1.16-5.74-1.86c-5.1-1.89-7.03-4.91-6.36-9.77c0.57-4.12,4.07-7.05,8.92-7.47
		C232.66,184,233.27,183.98,233.32,183.97z"/>
	<path class="st0" d="M131.29,203.7c2-5.33,3.84-10.22,5.68-15.11c0.28-0.74,0.51-1.49,0.87-2.19c1.04-2.03,3.06-2.86,5.08-2.13
		c1.95,0.71,3.01,2.75,2.26,4.94c-0.81,2.39-1.87,4.7-2.88,7.03c-2.01,4.65-4.07,9.29-6.07,13.95c-0.97,2.27-2.42,3.88-5.08,3.87
		c-2.54-0.01-3.97-1.58-4.91-3.73c-2.88-6.66-5.78-13.31-8.61-19.99c-1.2-2.84-0.47-5.03,1.84-5.99c2.42-1.01,4.57,0.09,5.69,3.05
		C127.19,192.65,129.14,197.94,131.29,203.7z"/>
	<path class="st0" d="M175.9,188.44c0.89-1.35,1.59-2.56,2.72-3.45c1.38-1.08,2.89-1.23,4.44-0.52c1.53,0.69,2.13,2.05,2.1,3.64
		c-0.03,1.73-0.84,3.15-2.55,3.59c-5.57,1.41-7.09,5.4-7,10.52c0.04,2.28,0.06,4.55-0.01,6.83c-0.1,2.99-1.67,4.67-4.22,4.65
		c-2.54-0.02-4.08-1.74-4.09-4.72c-0.03-6.39-0.01-12.78-0.01-19.18c0-3.56,1.03-5.27,3.38-5.67
		C173.09,183.72,174.57,184.88,175.9,188.44z"/>
	<path class="st0" d="M180.59,145.47c0,5.08,0.02,10.16-0.01,15.24c-0.01,3.11-1.63,5.01-4.15,4.96c-2.42-0.05-4.01-1.88-4.02-4.84
		c-0.03-10.16-0.03-20.32,0-30.47c0.01-3.16,1.62-5,4.17-4.95c2.54,0.05,3.99,1.87,4,5.1C180.6,135.49,180.59,140.48,180.59,145.47z
		"/>
	<path class="st0" d="M164.21,150.85c0,3.41,0.04,6.83-0.01,10.24c-0.04,2.75-1.65,4.53-4.02,4.57c-2.34,0.04-4.12-1.75-4.15-4.44
		c-0.06-7-0.06-14.01,0.01-21.01c0.03-2.58,1.72-4.26,4.01-4.3c2.39-0.04,4.09,1.72,4.14,4.43
		C164.26,143.84,164.21,147.35,164.21,150.85z"/>
	<path class="st0" d="M188.82,150.44c0-3.33-0.04-6.66,0.01-9.98c0.04-2.76,1.64-4.53,4.02-4.56c2.37-0.03,4.12,1.71,4.15,4.45
		c0.07,7,0.06,14.01-0.01,21.01c-0.03,2.55-1.78,4.27-4.02,4.3c-2.37,0.03-4.08-1.75-4.12-4.45
		C188.78,157.63,188.82,154.03,188.82,150.44z"/>
	<path class="st0" d="M159.5,198.89c0,3.41,0.04,6.83-0.01,10.24c-0.05,2.86-1.52,4.5-3.96,4.56c-2.59,0.07-4.2-1.56-4.23-4.57
		c-0.06-6.82-0.06-13.65,0-20.48c0.03-2.98,1.68-4.64,4.23-4.57c2.43,0.07,3.91,1.72,3.96,4.57
		C159.54,192.07,159.5,195.48,159.5,198.89z"/>
	<path class="st0" d="M155.44,173.59c2.8,0.02,4.56,1.56,4.53,3.95c-0.03,2.35-1.9,3.94-4.62,3.92c-2.71-0.02-4.54-1.64-4.53-4.01
		C150.84,175.07,152.63,173.57,155.44,173.59z"/>
	<path class="st0" d="M160.24,133.31c-2.79,0.06-4.62-1.43-4.69-3.8c-0.07-2.44,1.61-3.97,4.44-4.03c2.8-0.05,4.64,1.42,4.7,3.78
		C164.75,131.65,162.99,133.26,160.24,133.31z"/>
	<path class="st0" d="M192.85,133.32c-2.75-0.02-4.54-1.6-4.52-3.98c0.02-2.38,1.81-3.88,4.62-3.86c2.82,0.02,4.55,1.54,4.52,3.96
		C197.43,131.82,195.63,133.34,192.85,133.32z"/>
	<path class="st0" d="M197.32,181.49c-2.46,0.04-4.29-1.63-4.32-3.95c-0.03-2.37,1.67-4.01,4.19-4.03c2.5-0.02,4.33,1.62,4.36,3.91
		C201.58,179.71,199.76,181.45,197.32,181.49z"/>
	<path class="st0" d="M258.31,181.5c-2.43-0.01-4.27-1.75-4.26-4.03c0.01-2.33,1.78-3.97,4.3-3.95c2.47,0.01,4.33,1.73,4.31,3.99
		C262.63,179.76,260.73,181.5,258.31,181.5z"/>
	<path class="st0" d="M208.92,181.49c-2.46,0.03-4.28-1.64-4.3-3.96c-0.02-2.36,1.69-4,4.2-4.02c2.5-0.02,4.31,1.62,4.34,3.92
		C213.18,179.73,211.37,181.46,208.92,181.49z"/>
	<path class="st0" d="M270.03,173.52c2.47,0.04,4.29,1.78,4.23,4.06c-0.06,2.24-1.99,3.96-4.41,3.92c-2.44-0.04-4.22-1.8-4.18-4.1
		C265.72,175.05,267.49,173.47,270.03,173.52z"/>
	<path class="st1" d="M55.73,143.1c-14.26,0.03-25.85-11.43-25.92-25.64c-0.06-14.11,11.59-25.76,25.8-25.82
		c14.02-0.05,25.67,11.53,25.73,25.57C81.42,131.5,69.97,143.06,55.73,143.1z"/>
	<path class="st1" d="M65.82,73.48c0.9,0.26,2.18,0.59,3.42,1C79.77,78,88.03,84.47,94.13,93.71c0.63,0.95,1.41,1.89,0.71,3.11
		C93.95,98.36,92.4,98,91,95.86c-5.41-8.27-12.76-14.11-22.05-17.49c-1.4-0.51-2.86-0.84-4.26-1.33c-1.05-0.37-1.51-1.17-1.26-2.28
		C63.67,73.72,64.47,73.45,65.82,73.48z"/>
	<path class="st0" d="M149.44,149.52c-0.33-5.77-2.62-10.38-8.14-12.75c-5.2-2.23-9.89-1.22-14.08,3.42c0-3.76,0.03-6.91-0.01-10.06
		c-0.03-2.89-1.71-4.75-4.16-4.72c-2.36,0.03-4.12,1.8-4.13,4.53c-0.05,10.43-0.04,20.86,0,31.29c0,2.27,1.17,3.91,3.45,4.33
		c2.16,0.4,3.73-0.62,4.6-2.65c0.14-0.3,0.3-0.6,0.45-0.91c5.83,4.97,12.83,5.1,17.74,0.3
		C148.75,158.78,149.72,154.34,149.44,149.52z M134.24,158.84c-4.06,0.06-7.1-3.43-7.08-8.13c0.02-4.55,3-7.98,6.96-8.02
		c4.02-0.03,7.21,3.6,7.16,8.16C141.23,155.36,138.22,158.79,134.24,158.84z"/>
	<path class="st0" d="M59.24,113.63c2.64-0.54,5.03-0.95,7.37-1.53c1.57-0.39,2.19,0.21,2.57,1.66c1.58,6.02-1.01,12.44-6.38,15.63
		c-5.4,3.21-12.22,2.45-16.77-1.86c-4.52-4.29-5.65-11.12-2.74-16.64s9.24-8.46,15.32-7.19c1.76,0.37,2.58,1.02,2.01,3.01
		C60,108.87,59.73,111.11,59.24,113.63z"/>
</g>
</svg>
