<svg width="284" height="284" viewBox="0 0 284 284" fill="none" xmlns="http://www.w3.org/2000/svg">
<g clip-path="url(#clip0)">
<path d="M27.7607 176.749C17.5226 175.974 9.77134 167.163 9.77134 156.945V138.265C9.7716 137.361 10.1326 136.494 10.7749 135.854L26.8141 119.893C27.4558 119.255 28.3256 118.896 29.2329 118.894C30.1401 118.893 31.0108 119.25 31.654 119.887L47.0219 135.106C47.4901 135.57 48.1239 135.83 48.7843 135.829C49.4447 135.828 50.0778 135.567 50.5448 135.102L53.7258 131.937C53.9577 131.706 54.1416 131.432 54.267 131.13C54.3923 130.829 54.4567 130.506 54.4565 130.18C54.4562 129.853 54.3912 129.53 54.2653 129.229C54.1395 128.928 53.9551 128.654 53.7228 128.424L32.9616 107.838C31.9716 106.857 30.6307 106.306 29.2332 106.307C27.8357 106.309 26.4958 106.862 25.5076 107.845L2.86592 130.375C1.21381 132.019 0.285662 134.249 0.285645 136.574V156.811C0.285645 171.988 11.8334 185.02 27.0426 186.161C43.1217 187.367 56.7345 175.435 58.1496 160.045C58.2808 158.615 57.1063 157.395 55.6631 157.395H51.6603C49.8816 157.395 48.8039 158.311 48.6663 159.546C47.5331 169.726 38.4566 177.558 27.7606 176.749" fill="#AFAFAF"/>
<path d="M47.4738 145.214C47.234 146.24 47.2607 147.309 47.5515 148.321C47.8422 149.333 48.3874 150.255 49.1356 151C49.8837 151.744 50.8102 152.287 51.8275 152.576C52.8448 152.865 53.9195 152.892 54.95 152.653C56.0796 152.396 57.1136 151.827 57.933 151.012C58.7525 150.197 59.3244 149.168 59.583 148.044C59.8227 147.018 59.7959 145.949 59.5051 144.937C59.2144 143.924 58.6692 143.002 57.921 142.258C57.1729 141.514 56.2465 140.971 55.2292 140.682C54.2119 140.392 53.1373 140.366 52.1068 140.604C50.9772 140.862 49.9433 141.431 49.1239 142.246C48.3044 143.062 47.7326 144.09 47.4738 145.214" fill="#AFAFAF"/>
<path d="M82.0935 169.19V134.493C82.0935 133.184 82.7514 132.529 84.0672 132.529H92.0716C93.3866 132.529 94.0445 133.183 94.0453 134.493V169.19C94.0453 170.5 93.3874 171.154 92.0716 171.154H84.0675C82.7511 171.154 82.0932 170.499 82.0939 169.19" fill="#AFAFAF"/>
<path d="M128.366 152.278V169.299C128.366 170.536 127.745 171.154 126.502 171.154H118.826C117.583 171.154 116.962 170.535 116.962 169.299V154.514C116.962 153.023 116.752 151.951 116.332 151.296C115.912 150.641 115.153 150.313 114.057 150.314C111.754 150.314 110.603 151.805 110.602 154.787V169.299C110.602 170.536 109.981 171.154 108.738 171.154H101.063C99.8201 171.154 99.1987 170.535 99.1987 169.299V143.549C99.1987 142.313 99.8201 141.695 101.063 141.694H107.861C108.884 141.694 109.524 142.167 109.78 143.113L110.383 145.022C112.283 142.368 115.116 141.04 118.881 141.04C122.207 141.04 124.62 141.976 126.118 143.849C127.617 145.722 128.366 148.532 128.366 152.278" fill="#AFAFAF"/>
<path d="M152.489 169.736L152.051 168.153C151.283 169.208 150.086 170.081 148.459 170.771C146.833 171.462 145.27 171.808 143.772 171.808C139.97 171.808 137.082 170.526 135.109 167.962C133.136 165.398 132.149 161.552 132.149 156.423C132.149 151.295 133.136 147.449 135.109 144.885C137.082 142.321 139.97 141.039 143.772 141.04C145.303 141.053 146.818 141.349 148.24 141.913C149.756 142.495 150.862 143.295 151.557 144.313V134.384C151.557 133.148 152.178 132.529 153.421 132.529H161.097C162.338 132.529 162.959 133.147 162.96 134.384V169.299C162.96 170.537 162.339 171.155 161.097 171.154H154.408C153.384 171.154 152.745 170.681 152.489 169.736L152.489 169.736ZM150.679 161.607C151.337 160.553 151.666 158.825 151.666 156.424C151.666 154.024 151.337 152.296 150.679 151.241C150.022 150.187 149.017 149.659 147.664 149.659C146.312 149.658 145.316 150.177 144.676 151.214C144.036 152.251 143.717 153.987 143.717 156.424C143.718 158.861 144.037 160.597 144.676 161.634C145.315 162.671 146.311 163.189 147.665 163.189C149.016 163.189 150.021 162.662 150.68 161.607" fill="#AFAFAF"/>
<path d="M184.726 164.171C187.139 164.171 189.533 163.643 191.909 162.589C193.078 162.116 193.864 162.498 194.266 163.734L195.363 167.117C195.691 168.099 195.308 168.881 194.212 169.462C191.141 171.027 187.614 171.809 183.63 171.809C178.22 171.809 174.062 170.49 171.157 167.853C168.252 165.216 166.799 161.406 166.798 156.424C166.798 151.55 168.169 147.768 170.911 145.076C173.652 142.385 177.362 141.039 182.04 141.039C186.572 141.039 190.099 142.349 192.622 144.967C195.144 147.586 196.405 151.114 196.405 155.551V158.169C196.405 159.407 195.783 160.025 194.541 160.024H178.037C178.842 162.79 181.071 164.172 184.726 164.171V164.171ZM182.314 148.677C180.889 148.677 179.802 149.113 179.052 149.987C178.303 150.86 177.837 152.242 177.655 154.133H186.482V153.751C186.482 150.368 185.093 148.677 182.315 148.677" fill="#AFAFAF"/>
<path d="M201.995 141.694H208.794C209.781 141.694 210.402 142.222 210.658 143.276L211.315 146.113C212.009 144.804 213.069 143.667 214.495 142.703C215.899 141.747 217.564 141.242 219.265 141.258C219.923 141.258 220.389 141.394 220.664 141.667C220.938 141.94 221.075 142.385 221.075 143.003V150.423C221.075 151.405 220.545 151.896 219.484 151.896C219.108 151.888 218.733 151.86 218.36 151.814C217.933 151.763 217.503 151.736 217.072 151.732C215.281 151.732 213.911 152.187 212.96 153.096C212.01 154.005 211.535 155.26 211.535 156.861V169.299C211.535 170.536 210.914 171.154 209.671 171.154H201.995C200.753 171.154 200.132 170.535 200.132 169.299V143.549C200.132 142.313 200.753 141.695 201.995 141.694" fill="#AFAFAF"/>
<path d="M247.501 162.752C247.501 168.79 243.078 171.809 234.233 171.809C230.431 171.809 227.123 171.263 224.309 170.173C223.213 169.736 222.811 168.953 223.103 167.826L224.145 164.225C224.474 163.062 225.26 162.662 226.502 163.026C228.476 163.607 230.34 163.898 232.095 163.898C234.908 163.898 236.315 163.371 236.315 162.316C236.315 161.844 236.023 161.453 235.439 161.143C234.854 160.835 233.831 160.444 232.368 159.97C231.163 159.57 230.295 159.279 229.765 159.097C229.234 158.915 228.448 158.542 227.407 157.979C226.366 157.415 225.599 156.833 225.105 156.233C224.611 155.634 224.154 154.797 223.734 153.723C223.298 152.564 223.084 151.333 223.103 150.095C223.103 147.04 224.218 144.767 226.448 143.276C228.678 141.785 231.748 141.039 235.659 141.039C239.386 141.039 242.457 141.53 244.869 142.512C245.965 142.948 246.367 143.73 246.075 144.858L245.034 148.459C244.704 149.587 243.918 149.987 242.675 149.659C240.98 149.185 239.228 148.946 237.467 148.95C235.347 148.95 234.287 149.477 234.288 150.532C234.288 150.896 234.488 151.241 234.89 151.569C235.288 151.894 235.732 152.161 236.206 152.36C236.681 152.56 237.43 152.86 238.455 153.26C239.733 153.733 240.693 154.096 241.332 154.351C242.15 154.697 242.938 155.108 243.69 155.578C244.622 156.143 245.317 156.716 245.773 157.297C246.288 157.987 246.694 158.75 246.979 159.562C247.343 160.586 247.52 161.666 247.501 162.752" fill="#AFAFAF"/>
<path d="M267.621 164.171C270.033 164.171 272.427 163.643 274.803 162.589C275.973 162.116 276.758 162.498 277.161 163.734L278.257 167.117C278.586 168.099 278.202 168.881 277.106 169.462C274.036 171.027 270.508 171.809 266.524 171.809C261.114 171.809 256.957 170.49 254.052 167.853C251.147 165.216 249.694 161.406 249.693 156.424C249.693 151.55 251.063 147.768 253.805 145.076C256.546 142.385 260.256 141.039 264.934 141.039C269.466 141.039 272.993 142.349 275.515 144.967C278.037 147.586 279.298 151.114 279.298 155.551V158.169C279.298 159.407 278.677 160.025 277.435 160.024H260.932C261.736 162.79 263.966 164.172 267.621 164.171V164.171ZM265.209 148.677C263.783 148.677 262.696 149.113 261.946 149.987C261.197 150.86 260.731 152.242 260.549 154.133H269.376V153.751C269.376 150.368 267.987 148.677 265.21 148.677" fill="#AFAFAF"/>
</g>
<defs>
<clipPath id="clip0">
<rect width="283" height="87.5952" fill="white" transform="translate(0 103)"/>
</clipPath>
</defs>
</svg>
