<?xml version="1.0" encoding="utf-8"?>
<!-- Generator: Adobe Illustrator 25.2.3, SVG Export Plug-In . SVG Version: 6.00 Build 0)  -->
<svg version="1.1" id="katman_2_1_" xmlns="http://www.w3.org/2000/svg" xmlns:xlink="http://www.w3.org/1999/xlink" x="0px"
	 y="0px" viewBox="0 0 283.46 283.46" style="enable-background:new 0 0 283.46 283.46;" xml:space="preserve">
<style type="text/css">
	.st0{fill:#AFAFAF;}
</style>
<g>
	<path class="st0" d="M247.06,139.32c9.23,0,18.35,0,27.56,0c0.02-0.35,0.06-0.63,0.06-0.92c0-5.85,0.01-11.69,0-17.54
		c-0.01-3.45-0.96-6.53-3.61-8.93c-4.33-3.93-13.72-3.66-17.06,2.53c-0.77,1.43-1.17,2.96-1.26,4.58c-0.02,0.39,0,0.77,0,1.24
		c-1.94,0-3.78,0-5.73,0c0-0.38-0.02-0.76,0-1.14c0.42-8.34,5.94-14.1,14.26-14.88c2.48-0.23,4.94-0.16,7.36,0.45
		c6.53,1.66,10.16,6.02,11.36,12.5c0.28,1.5,0.38,3.05,0.38,4.58c0.03,12.99,0.01,25.97,0.02,38.96c0,2.49-0.24,4.94-1.03,7.3
		c-1.9,5.63-5.78,9.03-11.6,10.19c-3.02,0.6-6.06,0.56-9.06-0.12c-5.8-1.31-9.39-4.99-10.8-10.68c-0.57-2.29-0.84-4.7-0.88-7.06
		c-0.12-6.72-0.04-13.44-0.04-20.16C247,139.98,247.03,139.71,247.06,139.32z M274.68,143.92c-7.36,0-14.6,0-21.9,0
		c-0.02,0.31-0.05,0.58-0.05,0.84c0,5.42-0.01,10.84,0.01,16.27c0,1.08,0.07,2.17,0.23,3.24c0.81,5.5,3.92,8.59,9.34,9.12
		c3.78,0.36,7.21-0.52,9.77-3.56c1.98-2.35,2.6-5.18,2.6-8.18c0-4.97,0-9.94,0-14.91C274.68,145.83,274.68,144.93,274.68,143.92z"/>
	<path class="st0" d="M62.31,141.94c0-6.54,0-13.07,0-19.61c0-2.52,0.29-4.99,1.15-7.37c1.62-4.52,4.67-7.62,9.24-9.09
		c4.41-1.42,8.87-1.43,13.21,0.21c5.76,2.18,8.63,6.67,9.54,12.58c0.19,1.21,0.25,2.46,0.25,3.69c0.02,13.04,0.01,26.09,0.01,39.13
		c0,3.04-0.42,6.01-1.66,8.81c-1.9,4.3-5.13,7.07-9.65,8.29c-3.66,0.99-7.34,0.98-10.98-0.06c-6.11-1.76-9.46-6.04-10.65-12.12
		c-0.32-1.64-0.43-3.35-0.44-5.03C62.28,154.89,62.31,148.42,62.31,141.94z M90,142.02c0-6.69,0.01-13.38,0-20.07
		c0-2.6-0.42-5.11-1.87-7.34c-2.97-4.59-10.25-6.02-15.19-2.98c-3.41,2.1-4.74,5.37-4.87,9.17c-0.13,3.7-0.05,7.41-0.05,11.12
		c0,10.31,0,20.61,0.03,30.92c0.01,2.29,0.49,4.5,1.73,6.47c2.18,3.47,5.54,4.66,9.43,4.63c3.66-0.03,6.81-1.21,8.91-4.41
		c1.51-2.31,1.88-4.92,1.88-7.61C90.01,155.27,90,148.64,90,142.02z"/>
	<path class="st0" d="M125.34,105.72c1.88,0,3.65,0,5.59,0c0,0.41,0,0.81,0,1.22c0,18.23,0,36.47,0,54.7c0,2.06,0.17,4.09,0.97,6.03
		c1.3,3.16,3.63,5.14,6.94,5.89c3.37,0.76,6.68,0.59,9.66-1.36c3.03-1.98,4.17-5.02,4.46-8.48c0.07-0.84,0.06-1.69,0.06-2.53
		c0-18.11,0-36.23,0-54.34c0-0.35,0-0.71,0-1.12c1.93,0,3.75,0,5.68,0c0.02,0.32,0.04,0.64,0.04,0.96c0,18.29,0,36.59,0,54.88
		c0,2.77-0.36,5.47-1.38,8.06c-1.83,4.63-5.13,7.66-9.94,8.95c-3.94,1.06-7.9,1.01-11.76-0.31c-6.5-2.24-9.38-7.26-10.15-13.77
		c-0.13-1.1-0.16-2.23-0.16-3.34c-0.01-18.14-0.01-36.29-0.01-54.43C125.34,106.43,125.34,106.13,125.34,105.72z"/>
	<path class="st0" d="M185.41,105.67c2,0,3.83-0.02,5.66,0.03c0.2,0.01,0.51,0.43,0.57,0.71c1.1,5.06,2.16,10.13,3.23,15.2
		c3.09,14.65,6.19,29.29,9.28,43.94c0.04,0.17,0.1,0.34,0.32,0.51c4.17-20.11,8.33-40.22,12.5-60.35c2.06,0,4.03,0,6.1,0
		c-0.56,2.56-1.1,5.06-1.65,7.55c-4.69,21.36-9.39,42.72-14.05,64.08c-0.2,0.91-0.52,1.25-1.47,1.17c-1.14-0.1-2.29-0.07-3.43-0.01
		c-0.73,0.04-0.91-0.31-1.04-0.91c-1.4-6.35-2.81-12.7-4.23-19.05c-3.57-15.99-7.14-31.98-10.71-47.97
		C186.14,108.99,185.8,107.41,185.41,105.67z"/>
	<path class="st0" d="M35.57,120.98c-1.8,0-3.45,0.02-5.1-0.03c-0.15,0-0.37-0.45-0.42-0.71c-0.23-1.21-0.28-2.47-0.64-3.63
		c-0.93-3.05-2.99-5.02-6.07-5.89c-2.34-0.66-4.7-0.71-7.05-0.08c-5.08,1.35-7.86,6.29-6.56,11.58c0.75,3.03,2.38,5.57,4.37,7.92
		c5.54,6.56,11.11,13.09,16.6,19.69c3.52,4.24,5.53,9.07,5.34,14.69c-0.26,7.86-5.56,13.65-13.38,14.57
		c-2.6,0.31-5.17,0.23-7.73-0.33c-6.45-1.4-10.74-6.04-11.64-12.59c-0.13-0.92-0.19-1.86-0.22-2.79c-0.01-0.19,0.28-0.57,0.45-0.57
		c1.71-0.04,3.42-0.03,5.16-0.03c0.09,0.9,0.14,1.71,0.27,2.51c0.98,6.04,5.64,9.47,12,8.85c6.18-0.61,9.89-5.18,9.46-11.62
		c-0.22-3.32-1.5-6.21-3.57-8.73c-4.1-4.98-8.32-9.85-12.45-14.8c-2.39-2.86-4.89-5.67-7.01-8.73c-2.69-3.87-3.94-8.23-3.26-13.02
		c1.02-7.12,6.4-12.13,13.6-12.4c2.32-0.09,4.73,0.06,6.99,0.57c6.02,1.35,9.67,5.59,10.54,11.86
		C35.42,118.47,35.46,119.67,35.57,120.98z"/>
	<path class="st0" d="M263.67,155.29c-2.45-0.02-4.41-2.01-4.38-4.45c0.03-2.4,2-4.33,4.41-4.33c2.45,0,4.42,1.97,4.41,4.41
		C268.11,153.37,266.13,155.31,263.67,155.29z"/>
</g>
</svg>
