<?xml version="1.0" encoding="utf-8"?>
<!-- Generator: Adobe Illustrator 25.2.3, SVG Export Plug-In . SVG Version: 6.00 Build 0)  -->
<svg version="1.1" id="katman_2_1_" xmlns="http://www.w3.org/2000/svg" xmlns:xlink="http://www.w3.org/1999/xlink" x="0px"
	 y="0px" viewBox="0 0 283.5 283.5" style="enable-background:new 0 0 283.5 283.5;" xml:space="preserve">
<style type="text/css">
	.st0{fill:#AFAFAF;}
</style>
<g>
	<g>
		<path class="st0" d="M242.4,166.4c-1.5,1.3-3.4,1.9-4.7,3.5c-0.4,0.5-0.9,0.8-1.3,1.2c-2.1,1.5-3.9,2.9-5.2,5.4
			c-1.1,2.1-3,4.2-5.3,5.5c-0.6,0.3-1.1,0.8-1.4,1.4c-0.9,1.4-1.9,0.2-2.6-0.2c-0.8-0.5,0.2-0.9,0.5-1.4c1.2-1.8,2.6-3.4,4.1-4.9
			c0.1-0.1,0.2-0.4,0.4-0.4c3.9-2,5.1-6.3,8.1-9.1c2.1-2,3.9-4.3,5.9-6.4c0.9-0.9,0.9-1.7,0.5-2.7c-0.6-2.1-1.2-4.3-1.9-6.4
			c-0.2-0.5-0.4-1,0.1-1.5c2.3-2.3,0.6-4.8,0-7.1c-0.6-2.6-2.3-4.9-2.8-7.6c-0.1-0.5-0.2-1.1-0.8-0.8c-1.4,0.7-1.8-0.4-2-1.2
			c-0.5-2.1-0.9-4.3-1.2-6.5c-0.2-1.2,0.4-1.3,1.5-1.3c2.2,0,2.9,1.3,3.3,3c0.3,1.1,0.5,2.3,2.2,2c0.7-0.1,0.6,0.7,0.8,1.2
			c0.9,2.6,0.9,5.5,2.2,8c0.4,0.7,0.6,1.5,1.4,1.9c1.5,0.8,1.7,2.2,1.3,3.6c-0.1,0.5-0.2,1,0,1.4c0.2,0.6,0.1,1.6,1.1,1.4
			c0.8-0.2,0.1-0.9,0-1.4c-0.1-0.8,0.6-1.3,0.7-2c0,1.3,1.4,1.9,1.5,3.1c0,0.6,0.4,1.2-0.7,1.5c-2.2,0.6-0.4,1.9-0.3,2.9
			c0.2,1.2,1,0.8,1.8,0.4c1.8-0.9,3.3-1.9,3.3-4.3c0-1.5,1.6-2.3,2.5-3.3c4.1-4.7,8.3-9.4,12.5-14c0.5-0.5,0.9-1.1,1.6-1.1
			c1.7-0.1,3.1-0.7,4.5-1.5c0.3-0.2,0.8-0.5,1.1-0.1c0.3,0.4,0.1,0.8-0.3,1c-2.1,1.2-0.2,2.7-0.2,4c0,0.5,0.6,0.2,1,0
			c0.9-0.4,1.6-1.1,2.7-1.2c0.1,1-0.5,1.4-1,2c-0.4,0.5-0.7,1-0.3,1.4c1.3,1.4,0.2,2.4-0.7,3.3c-4.3,4.1-8.8,8.2-12.9,12.6
			c-1.5,1.6-3.1,3.3-5.5,3.6c-0.6,0.1-1.5,0.6-1.1,1.6c0.6,1.3-0.2,1.9-1.1,2.6c-1.6,1.2-2.9,2.4-2,4.8c0.7,1.9,0.7,4,1.9,5.8
			c0.1,0.2,0.2,0.7,0.1,0.8c-1.6,1.4-0.6,3.1-0.7,4.6c-0.1,0.8,0.1,1.5,1.2,1.4c0.5-0.1,1-0.6,1.3,0.3c0.2,0.6-0.1,1.1-0.5,1.6
			c-1.3,1.5,0.1,5.3,2,5.6c0.9,0.1,0.9,0.8,0.9,1.3c1,8.7,4.6,16.7,6.8,25.1c0.3,1.3,0.7,2.6,1,3.9c0.1,0.6,0.3,1.2-0.1,1.8
			c-0.5,0.7-1.4,0.9-2,0.6c-1.3-0.8-3.2,1.4-4.2-1c-0.5-1.2-0.3-3.1-2.5-3.1c-0.2,0-0.6-0.8-0.7-1.3c-2.7-8.5-6.1-16.7-8.5-25.2
			c-0.3-1.1,0.5-2.4-0.6-3.4c0,0,0.1-0.4,0.2-0.4c2,0,1.7-1.4,1.8-2.7c0.1-1.6-0.5-2.1-1.9-1.5c-0.3,0.1-0.6,0.3-0.9,0
			c-0.4-0.4-0.1-0.9,0.2-1c1.4-0.6,0.6-1.4,0.3-2.3c-0.4-1.3-1.3-2.2-1.7-3.6c-0.4-1.2-1.8-1.1-2.8-0.3c-2.2,1.9-4.6,3.6-7,5.2
			c-1.6,1.1-3.3,2.7-4.1,4.8c-0.7,2-2.6,2.9-3.9,4.4c-0.5,0.6-1.3,0.8-1.8,1.6c-0.8,1.4-1.9,0.4-2.6-0.1c-0.9-0.6,0.2-1.1,0.5-1.5
			c2.1-2.8,4.6-5.2,7.1-7.6c1.9-1.9,3.5-4.3,5.4-6.4C239.7,170.1,241.4,168.6,242.4,166.4z M258.2,149.1c-0.5,1.4-1.8,1.1-2.7,1.6
			c-1,0.5-2.6,0.6-1.7,2.5c0.3,0.5-0.1,1.2-0.5,1.4c-1.3,0.4-1.4,1.7-2.1,2.5c-0.4,0.5-1.3,1.1-0.4,1.9c0.8,0.6,1.3-0.3,1.7-0.6
			C255.4,156,257.6,153.1,258.2,149.1z M235,128.2c-0.5,0.1-0.8,0.5-0.7,0.9c0.3,0.8,0.7,1.5,1.1,2.1c0.2,0.2,0.6-0.2,0.5-0.6
			C235.6,129.8,235.8,128.8,235,128.2z"/>
	</g>
	<g>
		<path class="st0" d="M163.5,141.6c1,0.1,1.5,0.1,2,0.2c5.2,0.9,9.2-1.5,9.9-6.6c0.4-2.7,0.2-5.7-0.4-8.4c-0.8-3.9-3.7-5.7-7.7-5.3
			c-3.5,0.4-6.8,0.4-10.1-1.1c-2.4-1.1-3.9-2.8-4.1-5.5c-0.1-3,0.5-5.6,3.2-7.4c0.7-0.5,1.5-0.9,2.4-1.4c-3.2-3.7-4.3-7.9-3.1-12.5
			c0.4-1.7,1.6-3.5,2.9-4.7c4.2-3.9,10.3-3.5,16.4,0.9c0.5-0.4,1-0.8,1.5-1.2c2.2-1.7,4.7-2,7.2-0.8c1.7,0.8,2.4,2.8,1.6,4.7
			c-0.6,1.5-2.3,2.2-4.1,1.6c-1.5-0.5-2.4-1.4-1.9-3.2c0.2-0.5-0.2-1.2-0.3-1.8c-0.6,0.2-1.6,0.1-1.8,0.5c-0.6,1.1-1,2.3-1.1,3.4
			c-0.3,3,0.2,6.1-0.6,9c-1.4,5.5-7.4,9-12.9,6.4c-2.6-1.3-5.1,1.1-5.4,3.2c-0.4,2.5,1,4.3,3.5,4.3c2.6,0,5.1-0.4,7.7-0.5
			c6.8-0.3,11.4,2.1,13.6,7.6c2.3,5.6,2.2,15.1-4.4,19.4c-4.1,2.6-8.5,2.8-13.1,2.6C162.6,144.7,164.1,142.8,163.5,141.6z
			 M171.5,97.1c-0.4-2.3-0.6-4.8-1.2-7.1c-0.4-1.8-1.8-2.9-3.7-3c-1.9-0.1-3.6,0.7-4.3,2.5c-2.1,5.4-2.2,10.8,0.3,16.1
			c0.8,1.7,2.4,2.5,4.4,2.3c1.9-0.2,2.9-1.5,3.3-3.1C170.8,102.3,171.1,99.7,171.5,97.1z"/>
		<path class="st0" d="M54.4,120.3c0.5-0.1,1-0.3,1.5-0.2c4.9,0.2,9.7,0.5,14.5,0.6c2.5,0.1,5,0,7.5,0c5.4,0,9.7,4.1,10.1,9.5
			c0.6,7.6-4.5,13.7-12.2,14.4c-2.7,0.3-5.5,0-8.4,0c-0.1,0.5-0.2,1-0.2,1.5c0,6.2,0,12.4,0,18.6c0,2.8,0.2,3,3.1,3.3
			c1,0.1,2.1,0.3,3.3,0.4c-1.2,1.2-17,1.4-19.3,0.1c1-0.1,2.1-0.3,3.1-0.4c1.9-0.1,2.7-1.1,2.6-3c0-13.5,0-27,0-40.5
			c0-3-0.7-3.7-3.7-3.7c-0.7,0-1.3-0.1-2-0.2C54.4,120.6,54.4,120.4,54.4,120.3z M80.7,131.8c-0.2-1.3-0.2-2.7-0.5-4
			c-1.2-5.1-6.1-8-10.9-6.5c-1.4,0.4-2,1.2-2,2.6c0,5.9,0,11.9,0,17.8c0,1.2,0.5,1.6,1.7,1.6C76.4,143.4,80.6,139.3,80.7,131.8z"/>
		<path class="st0" d="M33,105c1.6-4.6,3.3-9.1,4.8-13.7c2.3-6.6,4.5-13.3,6.7-20c1.1-3.3,0.4-4.1-3.1-4c-1,0-2,0-3,0
			c0-0.4,0-0.7,0-1.1c5.4-0.4,10.7-0.1,16.1-0.1c0,0.2,0.1,0.5,0.1,0.7c-0.8,0.2-1.6,0.5-2.4,0.5c-2.9,0-4.4,1.6-5.3,4.1
			c-4,11.5-8.1,22.9-12.1,34.4c-1.1,3.2-2,6.4-3.1,9.6c-0.2,0.6-1,1.5-1.4,1.5c-0.6-0.1-1.6-0.7-1.8-1.3c-2.9-8-5.6-16.1-8.4-24.1
			c-2.4-6.8-4.8-13.6-7.2-20.4c-0.9-2.6-2.4-3.9-5.2-3.9C6.9,67.2,6,67,5,66.9c0-0.2,0-0.4,0.1-0.7c7.8,0,15.6,0,23.5,0
			c0.1,0.2,0.2,0.3,0.3,0.5c-0.6,0.3-1.2,0.7-1.8,0.8c-1.5,0.2-3.1,0.1-4.7,0.2c-2.2,0.1-2.5,0.5-1.8,2.6c2,6,4.1,12,6.2,18
			c1.7,5,3.4,10,5.1,14.9c0.2,0.6,0.5,1.2,0.7,1.8C32.7,105,32.8,105,33,105z"/>
		<path class="st0" d="M72,116.9c-2.2,0-4.1,0-6.2,0c0-6.8,0-13.5,0-20.1c0-1.5,0-3,0-4.5c-0.1-3.5-0.1-3.5-3.7-3.4
			c-0.6,0-1.2-0.2-2.2-0.4c4.2-1.2,7.9-2.3,11.8-3.4c0.1,0.9,0.2,2.3,0.4,3.9c0.8-0.7,1.3-1.2,1.8-1.6c3.7-2.9,7.7-3.8,12.1-2.1
			c2.5,1,4.1,2.9,4.5,5.5c0.3,1.7,0.5,3.3,0.5,5c0.1,6.4,0,12.8,0.1,19.2c0,1.2-0.2,1.8-1.6,1.8c-4.6,0.1-4.6,0.2-4.6-4.4
			c0-6.5-0.1-13.1-0.2-19.6c-0.1-4.3-2.1-6.2-5.9-6c-3.8,0.1-6.7,3-6.7,6.6C71.9,101.2,72,108.9,72,116.9z"/>
		<path class="st0" d="M107.3,138.2c1,0,1.9,0,2.9,0c2,0,4.1,0.1,6.1,0c1.4-0.1,1.9,0.4,1.8,1.8c-0.1,6.8,0,13.5,0,20.3
			c0,0.7,0,1.4,0,2c0.1,3.8,0.3,4,4,4.1c0.5,0,0.9,0,1.4,0.1c0.2,0,0.3,0.2,0.6,0.5c-4.1,0.9-8,1.8-12.1,2.8c-0.1-1-0.2-2.1-0.3-3.5
			c-0.6,0.4-0.9,0.7-1.3,1c-3.6,3.3-7.8,3.5-12.1,2.2c-2.8-0.9-4.4-3.2-4.4-6.1c0-6.8-0.1-13.5-0.1-20.3c0-4.2-0.6-4.1-3.6-3.9
			c-0.4,0-0.8-0.2-1.3-0.8c3.4,0,6.9,0,10.6,0c0,0.7,0.1,1.6,0.1,2.4c0.1,7.3,0.1,14.6,0.2,21.9c0.1,3.6,1.3,5,4.3,5.4
			c3,0.5,5.7-1,6.7-3.9c0.5-1.5,0.8-3.2,0.9-4.7c0.1-5.9-0.1-11.7,0-17.6c0-2-0.8-2.8-2.8-2.6c-0.6,0.1-1.3-0.2-1.9-0.2
			C107.3,138.8,107.3,138.5,107.3,138.2z"/>
		<path class="st0" d="M143.1,117c-1.5,0-3.3,0.2-5-0.1c-0.8-0.1-1.4-1.3-2.3-2.1c-1.5,3.2-4.7,2.2-7.5,2.2c-1.4,0-2.8,0-4.3,0
			c-2.6,0-3.6-0.8-3.9-3.5c-0.5-3.9,1-7.1,4.2-9c2.8-1.6,6-2.7,9.1-3.7c2.8-0.9,2.9-0.7,2.8-3.6c-0.1-2.3-0.2-4.6-0.5-6.9
			c-0.4-2.6-1.9-4.1-4.5-4.6c-2.6-0.5-5.4,0.6-6.6,2.6c-1,1.6-0.8,2.3,0.9,3.2c1.5,0.7,1.7,1.9,1.6,3.4c-0.1,1.5-1,2.3-2.4,2.6
			c-2.6,0.5-4.7-1.4-4.7-4.2c0-4.3,3.4-7.9,8.5-8.5c2.8-0.3,5.7,0,8.4,0.6c3,0.6,4.9,2.7,4.9,5.9c0.2,6.9,0.2,13.8,0.3,20.7
			C142.4,113.5,142.8,115.1,143.1,117z M136.1,101.7c-2.8,0.1-6.7,1.5-8.1,3.4c-1.1,1.4-1.9,3.2-2.1,4.8c-0.4,3,1.6,5.4,4.2,5.7
			c2.8,0.3,5.7-1.7,6-4.6C136.4,108.1,136.1,105,136.1,101.7z"/>
		<path class="st0" d="M169.1,169.5c-6.8-0.1-13.1,0.3-19.4-0.1c0-0.3,0-0.5,0-0.8c1-0.1,2-0.3,3-0.4c1.8-0.1,2.5-1,2.5-2.9
			c-0.1-14,0-28.1,0-42.1c0-0.9,0-1.7,0-2.7c2.2,0.7,4.3,1.3,6.3,2.1c0.4,0.2,0.7,1.1,0.7,1.7c0,3.4,0,6.8,0,10.1
			c0,10.2,0,20.4,0,30.6c0,2.8,0.1,2.8,2.8,3.1c1.2,0.1,2.4,0.3,3.6,0.5C168.5,168.5,168.6,168.7,169.1,169.5z"/>
		<path class="st0" d="M184.7,121.8c3.2-0.8,6.4-1.7,10-2.6c0.1,1.1,0.4,2.4,0.4,3.6c0,14.1,0,28.2,0,42.3c0,3.2,0,3.2,3.2,3.5
			c0.4,0,0.9,0.2,1.3,0.3c0,0.2,0,0.3,0,0.5c-4.9,0-9.9,0-14.8,0c0-0.1-0.1-0.3-0.1-0.4c0.6-0.1,1.3-0.4,1.9-0.3
			c2.1,0.2,2.7-0.8,2.7-2.7c0-12,0-24,0-36c0-1.6,0-3.2,0-4.9c0.1-1.8-0.6-2.7-2.5-2.5c-0.7,0.1-1.4-0.1-2.1-0.2
			C184.6,122.1,184.7,122,184.7,121.8z"/>
		<path class="st0" d="M229.5,161.5c-0.2,0.6-0.3,1.3-0.6,1.9c-3.6,6.7-10.9,8.9-17.7,5.3c-5.9-3.1-9.3-10-8.3-16.9
			c0.6-4.6,2.3-8.6,6-11.6c6.3-5.2,16.5-3.3,19.6,3.7c0.1,0.2,0.2,0.4,0.3,0.6c1.2,3.2,1,3.6-2.4,3.7c-4.9,0.1-9.9,0.2-14.8,0.1
			c-1.5,0-2,0.6-2,2c-0.2,4.1-0.2,8.3,1.7,12.1c1.6,3.2,4.1,5.1,7.7,5.5c3.6,0.3,6.3-1.1,8.1-4.2c0.5-0.9,1.2-1.7,1.7-2.6
			C229,161.3,229.3,161.4,229.5,161.5z M223.3,146.9c-0.2-3.1-0.4-6-3.2-7.7c-2.1-1.2-4.3-1.1-6.3,0.3c-2.5,1.8-3.3,4.4-3.6,7.4
			C214.6,146.9,218.8,146.9,223.3,146.9z"/>
		<path class="st0" d="M211.3,108.6c0.5,3.2-3.3,7.7-6,7.9c-3.1,0.2-6.2,0.3-9.3,0.3c-0.8,0-1.8-0.3-2.5-0.7
			c-6-3.5-8.5-8.8-8.2-15.6c0.4-6.6,3-12,9.3-14.7c4.8-2.1,9.5-1.3,13.7,2.1c2.2,1.8,3.3,4.3,3.4,7.7c-1.9,0-3.7,0-5.5,0
			c-4.1,0-8.2,0-12.3,0.2c-0.6,0-1.8,0.7-1.8,1.2c-0.5,4.5-0.4,8.9,1.7,13c1.7,3.4,4.5,5.1,8.3,5.2c3.5,0.2,5.8-1.6,7.6-4.5
			C210.1,110.1,210.7,109.3,211.3,108.6z M205.7,94.4c-0.1-3.1-0.4-5.9-3.1-7.6c-2-1.3-4.3-1.2-6.3,0.2c-2.6,1.7-3.4,4.4-3.7,7.4
			C197.1,94.4,201.3,94.4,205.7,94.4z"/>
		<path class="st0" d="M140.4,169.4c-5.1,0-10.2,0-15.2,0c0-0.2,0-0.4-0.1-0.6c0.9-0.1,1.8-0.2,2.7-0.3c1.2,0,1.8-0.5,1.8-1.9
			c0-7.6,0-15.1,0-22.7c0-2-0.9-3.2-3-3.4c-0.8-0.1-1.6-0.3-2.4-0.7c3.7-0.6,7.4-1.1,11.4-1.7c0.1,0.6,0.3,1.7,0.5,3.2
			c0.7-0.8,1.1-1.4,1.6-1.9c2.6-2.9,7.1-2.8,9.2,0.1c1.7,2.5,0.5,6.1-2.3,6.3c-0.9,0.1-2.3-0.4-2.8-1.1c-0.5-0.7-0.2-2-0.1-3
			c0-0.6,0.2-1.2,0.4-1.8c-0.8-0.1-1.9-0.5-2.2-0.1c-1.2,1.3-2.5,2.7-3.1,4.2c-0.7,1.8-0.8,3.8-0.8,5.8c-0.1,5.3,0,10.5-0.1,15.8
			c-0.1,2,0.7,2.9,2.7,2.8c0.7,0,1.4,0.1,2.1,0.2C140.4,168.9,140.4,169.1,140.4,169.4z"/>
		<path class="st0" d="M96.5,85.7c4.9-0.1,8-3,10.8-6.7c0.2,0.2,0.5,0.3,0.7,0.5c0,1.4,0,2.9,0,4.3c0,1.3,0.6,1.8,1.8,1.8
			c1.7-0.1,3.4-0.1,5.1-0.2c0.6,0,1.3,0,1.9,0c0.1,0.2,0.1,0.4,0.2,0.6c-0.7,0.3-1.3,0.7-2,0.8c-1.8,0.2-3.6,0.2-5.5,0.2
			c-1.1,0-1.6,0.3-1.6,1.5c0.1,7.8,0.1,15.5,0.2,23.3c0,2.1,0.3,4.2,2.8,5.3c-2.5,0-4.9,0.1-7.4-0.1c-0.6,0-1.4-1.1-1.5-1.8
			c-0.3-1.9-0.4-3.9-0.4-5.8c0-6.6-0.1-13.2,0-19.8c0-2-0.6-2.9-2.6-2.7c-0.8,0.1-1.6-0.2-2.4-0.3C96.6,86.2,96.5,85.9,96.5,85.7z"
			/>
		<path class="st0" d="M47,116.9c0-8.5,0-16.7,0-25c0-3.9-0.2-3.9-3.5-3.6c-0.4,0-0.7-0.1-1.2-0.6c3.4-0.9,6.9-1.9,10.7-2.9
			c0.1,1.1,0.3,2.4,0.3,3.7c0,9.4,0,18.9,0,28.4C51.3,116.9,49.2,116.9,47,116.9z"/>
		<path class="st0" d="M118.5,113.4c-1.1,3.2-2.4,3.9-5.8,3.4C114.5,115.7,116.3,114.7,118.5,113.4z"/>
	</g>
</g>
</svg>
