<?xml version="1.0" encoding="utf-8"?>
<!-- Generator: Adobe Illustrator 25.2.3, SVG Export Plug-In . SVG Version: 6.00 Build 0)  -->
<svg version="1.1" id="katman_2_1_" xmlns="http://www.w3.org/2000/svg" xmlns:xlink="http://www.w3.org/1999/xlink" x="0px"
	 y="0px" viewBox="0 0 283.5 283.5" style="enable-background:new 0 0 283.5 283.5;" xml:space="preserve">
<style type="text/css">
	.st0{fill:#AFAFAF;}
</style>
<g>
	<path class="st0" d="M136.8,23.5c-1.1,2-2,3.3-2.5,4.7c-1.4,3.8-0.3,5.7,3.7,6.2c2.1,0.2,4.2,0.2,6.2,0.1c11.9-0.9,23.9-2,35.8-2.8
		c6.8-0.5,7.5,0.4,4.5,6.5c-8.1,16-16.1,32-24.9,47.5c-13.3,23.7-27.4,47.1-40.9,70.7c-3,5.3-5.6,11-7.8,16.7
		c-1.7,4.3-0.6,7.2,3.8,8.7c4.2,1.5,8.7,2.7,13.1,2.6c9.4-0.2,18.8-1.3,28.2-2.1c1-0.1,2-0.7,3-1.1c0-0.3-0.1-0.6-0.1-1
		c-1.3-0.2-2.7-0.4-4-0.6c-4.6-0.6-9.2-0.7-13.7-1.8c-6.6-1.6-9.5-6.3-8-12.9c0.9-3.8,2.1-7.7,4.1-11.1
		c22.4-39.7,45-79.2,67.6-118.9c2.2-3.9,5.6-6.3,10-6.6c6-0.5,12.1-1.3,18-0.7c20.1,2,26.7,10.7,25.5,28.5c-0.1,1-0.2,2-0.3,2.9
		c-4.3,28.5-30.3,51.8-59.1,52.8c-5.6,0.2-11.3-1-17-1.4c-0.8-0.1-1.7,0.4-2.6,0.6c0.6,0.7,1,1.6,1.8,2c1,0.6,2.3,0.9,3.4,1.1
		c17.2,2.8,33.8,0.5,49.5-6.9c18.3-8.5,32.7-21.2,39.2-40.9c4.9-14.8,0.6-28.6-14-36.4c-7.3-3.9-15.4-5.6-23.5-5.5
		c-11.1,0.1-22.1,1-33.2,2c-18.7,1.6-37.4,3.5-56.2,2.1C142.9,28.1,139.1,28,136.8,23.5z M37.3,201.5c-0.1-0.4-0.2-0.7-0.3-1.1
		c1.2-0.8,2.3-1.8,3.6-2.5c13-7.6,23.5-17.7,31.1-30.6c11.9-20.4,23.6-40.9,35.4-61.3c8.4-14.7,17.1-29.1,27.4-42.7
		c5.2-6.9,11.4-9.1,19.5-7.8c1,0.2,1.9,0.3,2.9,0.6c1.5,0.3,3,0.5,3.3-1.5c0.3-2.1-1-2.7-2.8-2.6c-12.8,0.3-25.4,1.8-37.4,6.7
		c-2,0.8-3.9,2.6-5,4.4c-15.1,26.9-29.8,54-45.1,80.8c-9,15.7-18.4,31.2-28.3,46.4c-6.2,9.6-15.5,14.8-27.3,14.4
		c-1.1,0-2.3-0.1-3.3,0.2c-1.1,0.4-2,1.2-3,1.9c1,1.2,1.8,2.6,3,3.5c0.6,0.4,1.9-0.1,2.8-0.3c7.9-1.4,15.7-3.2,23.7-4.1
		c22.5-2.5,45.2-2.8,67.8-2.3c8,0.2,16,0.8,24,1.8c5.3,0.7,10.5,2.3,15.6,3.7c1.1,0.3,1.8,1.9,2.7,2.9c-1.1,0.6-2.1,1.4-3.2,1.7
		c-2.6,0.6-5.3,0.6-7.8,1.3c-4.5,1.2-9,2.6-13.5,4.1c-0.8,0.3-1.8,1.7-1.6,2.5c0.1,0.8,1.4,1.6,2.3,1.9c1.3,0.4,2.8,0.4,4.2,0.6
		c2.1,0.3,4.2,0.6,6.8,0.9c-3.2,2.2-6,3.8-8.4,5.7c-2,1.6-3.5,4.1-1.7,6.3c2.6,3.2,1.2,5.8-0.4,8.5c-1.4,2.4-2.9,4.6-4.2,7.1
		c-1.2,2.3-2.1,4.7-3.2,7.1c0.3,0.1,0.6,0.3,0.9,0.4c3.5-4.6,6.9-9.3,10.4-13.9c0.5-0.6,0.7-1.4,1.2-2c1.4-1.9,1.2-3.8,0.3-5.9
		c-1.9-4.3-1.7-4.9,2.3-7.3c0.9-0.6,2.1-0.8,2.9-1.6c1.3-1.4,2.4-3.1,3.6-4.6c-1.6-1.1-3.2-2.4-5-3.2c-1.3-0.6-3-0.5-4.4-0.7
		c0-0.3,0-0.6,0-1c3.2-0.6,6.3-1.5,9.6-1.8c9.8-1.1,11-2.1,13.7-11.4c2-7.1,0.4-9.7-6.9-10.2c-7.1-0.5-14.3-1.1-21.4-0.7
		c-27.2,1.7-54.3,3.8-81.5,5.7C40.9,201.6,39.1,201.5,37.3,201.5z"/>
	<path class="st0" d="M136.8,23.5c2.3,4.6,6.1,4.6,9.7,4.9c18.8,1.4,37.5-0.4,56.2-2.1c11-1,22.1-1.9,33.2-2
		c8.1-0.1,16.2,1.6,23.5,5.5c14.6,7.8,18.9,21.7,14,36.4c-6.5,19.7-20.9,32.4-39.2,40.9c-15.7,7.3-32.3,9.7-49.5,6.9
		c-1.2-0.2-2.4-0.5-3.4-1.1c-0.7-0.4-1.2-1.3-1.8-2c0.9-0.2,1.7-0.7,2.6-0.6c5.7,0.5,11.4,1.6,17,1.4c28.9-1,54.8-24.3,59.1-52.8
		c0.1-1,0.2-2,0.3-2.9c1.2-17.8-5.4-26.5-25.5-28.5c-5.9-0.6-12,0.3-18,0.7c-4.4,0.4-7.8,2.7-10,6.6
		c-22.5,39.6-45.1,79.2-67.6,118.9c-1.9,3.4-3.2,7.3-4.1,11.1c-1.5,6.6,1.3,11.3,8,12.9c4.4,1.1,9.1,1.2,13.7,1.8
		c1.3,0.2,2.7,0.4,4,0.6c0,0.3,0.1,0.6,0.1,1c-1,0.4-2,1-3,1.1c-9.4,0.8-18.8,1.9-28.2,2.1c-4.4,0.1-8.9-1.1-13.1-2.6
		c-4.4-1.6-5.5-4.4-3.8-8.7c2.2-5.7,4.8-11.4,7.8-16.7c13.5-23.6,27.5-47,40.9-70.7c8.8-15.6,16.8-31.6,24.9-47.5
		c3.1-6.1,2.3-7-4.5-6.5c-11.9,0.8-23.9,1.9-35.8,2.8c-2.1,0.2-4.2,0.2-6.2-0.1c-4-0.5-5.1-2.4-3.7-6.2
		C134.8,26.8,135.7,25.5,136.8,23.5z"/>
	<path class="st0" d="M37.3,201.5c1.8,0,3.6,0.1,5.4,0c27.2-1.9,54.3-4,81.5-5.7c7.1-0.4,14.3,0.2,21.4,0.7
		c7.3,0.5,8.9,3.1,6.9,10.2c-2.6,9.3-3.9,10.2-13.7,11.4c-3.2,0.4-6.4,1.2-9.6,1.8c0,0.3,0,0.6,0,1c1.5,0.2,3.1,0.1,4.4,0.7
		c1.8,0.8,3.3,2.1,5,3.2c-1.2,1.6-2.2,3.2-3.6,4.6c-0.7,0.8-1.9,1-2.9,1.6c-4,2.4-4.2,3.1-2.3,7.3c0.9,2,1.2,4-0.3,5.9
		c-0.5,0.6-0.7,1.4-1.2,2c-3.4,4.6-6.9,9.3-10.4,13.9c-0.3-0.1-0.6-0.3-0.9-0.4c1-2.4,2-4.8,3.2-7.1c1.3-2.4,2.8-4.7,4.2-7.1
		c1.6-2.8,3-5.3,0.4-8.5c-1.8-2.2-0.3-4.7,1.7-6.3c2.4-1.9,5.1-3.5,8.4-5.7c-2.6-0.4-4.7-0.7-6.8-0.9c-1.4-0.2-2.9-0.2-4.2-0.6
		c-0.9-0.3-2.2-1.2-2.3-1.9c-0.1-0.7,0.8-2.2,1.6-2.5c4.4-1.5,8.9-2.9,13.5-4.1c2.5-0.7,5.2-0.7,7.8-1.3c1.1-0.3,2.1-1.1,3.2-1.7
		c-0.9-1-1.6-2.6-2.7-2.9c-5.2-1.5-10.3-3.1-15.6-3.7c-7.9-1-16-1.6-24-1.8c-22.6-0.5-45.3-0.2-67.8,2.3c-7.9,0.9-15.8,2.7-23.7,4.1
		c-1,0.2-2.3,0.7-2.8,0.3c-1.2-0.9-2-2.3-3-3.5c1-0.6,1.9-1.5,3-1.9c1-0.3,2.2-0.2,3.3-0.2c11.8,0.4,21.1-4.8,27.3-14.4
		c9.8-15.2,19.3-30.6,28.3-46.4C85.2,117,99.9,89.9,115,63c1-1.8,3-3.6,5-4.4c12-4.9,24.6-6.4,37.4-6.7c1.8,0,3.1,0.5,2.8,2.6
		c-0.3,2-1.8,1.9-3.3,1.5c-1-0.2-1.9-0.4-2.9-0.6c-8-1.3-14.3,0.9-19.5,7.8c-10.2,13.5-18.9,28-27.4,42.7
		c-11.8,20.5-23.5,41-35.4,61.3c-7.6,13-18.1,23.1-31.1,30.6c-1.3,0.7-2.4,1.7-3.6,2.5C37.1,200.8,37.2,201.1,37.3,201.5z"/>
</g>
</svg>
