<?xml version="1.0" encoding="utf-8"?>
<!-- Generator: Adobe Illustrator 25.2.3, SVG Export Plug-In . SVG Version: 6.00 Build 0)  -->
<svg version="1.1" id="katman_1" xmlns="http://www.w3.org/2000/svg" xmlns:xlink="http://www.w3.org/1999/xlink" x="0px" y="0px"
	 viewBox="0 0 283.46 283.46" style="enable-background:new 0 0 283.46 283.46;" xml:space="preserve">
<style type="text/css">
	.st0{fill-rule:evenodd;clip-rule:evenodd;fill:#FFFFFF;}
	.st1{fill:none;stroke:#AFAFAF;stroke-miterlimit:10;}
	.st2{fill-rule:evenodd;clip-rule:evenodd;fill:#AFAFAF;}
</style>
<g>
	<path class="st0" d="M100.1,81.32c9.35-0.31,14.53,2.19,17.37,6.24c3.92,0.54,7.63,1.37,10.53,3.38c2.89,2.01,6.42,7.04,5.49,11.01
		c-0.89,3.78-2.04,6.4-3.47,8.14c-3.38,4.14-7.7,3.36-9.42,1.35c0.59,4.3,1.18,8.59,1.76,12.89c-6.15-1.71-12.38-3.02-18.45-1.76
		c-9.16,1.9-13.16,6.16-17.1,10.31c0-4.12,0-8.23,0-12.35c-2.8-0.32-5.46-0.41-7.83-2.24c-7.04-5.43-8.99-11.96-7.91-17.98
		c0.76-4.23,4.65-7.25,10.04-9.5C84.64,85.73,89.68,81.66,100.1,81.32z"/>
	<path class="st1" d="M100.1,81.32c9.35-0.31,14.53,2.19,17.37,6.24c3.92,0.54,7.63,1.37,10.53,3.38c2.89,2.01,6.42,7.04,5.49,11.01
		c-0.89,3.78-2.04,6.4-3.47,8.14c-3.38,4.14-7.7,3.36-9.42,1.35c0.59,4.3,1.18,8.59,1.76,12.89c-6.15-1.71-12.38-3.02-18.45-1.76
		c-9.16,1.9-13.16,6.16-17.1,10.31c0-4.12,0-8.23,0-12.35c-2.8-0.32-5.46-0.41-7.83-2.24c-7.04-5.43-8.99-11.96-7.91-17.98
		c0.76-4.23,4.65-7.25,10.04-9.5C84.64,85.73,89.68,81.66,100.1,81.32z"/>
	<path class="st1" d="M120.32,111.03c-5.61-4.89-11.94-5.75-19-4.88c-7.07,0.87-12.05,5.82-14.79,14.25"/>
	<path class="st2" d="M92.74,109.21c-3.22-2.17-5.19-4.76-7.23-7.32c1.33,2.93,2.18,5.99,6.51,8.11
		C92.26,109.74,92.5,109.47,92.74,109.21"/>
	<path class="st2" d="M113.05,106.53c2.21-3.11,3.04-7.14,4.19-10.24c-0.4,3.2-0.15,7.31-3.25,10.75
		C113.68,106.87,113.36,106.7,113.05,106.53"/>
	<path class="st2" d="M105.26,97.25c1.04,2.66,1.49,5.31,1.37,7.97c-0.55-0.17-1.18,0.1-1.74-0.07
		C105.32,102.66,105.41,99.74,105.26,97.25"/>
	<path class="st2" d="M77.14,97.39l-61.06,31l48.65,80.14l14.79-9.3l-19.08-38.4l16.7-8.35c0.12-5.17,1.69-10.34,4.05-15.5
		l-26.23,12.4l-8.35-19.8l33.63-17.17L77.14,97.39z M118.06,147.4c-0.92-5.72-7.85-11.34-12.29-10.7
		c-7.75,1.1-11.11,8.38-10.99,17.79L118.06,147.4z M128.73,133.19c-6.75-5.78-14.17-8.69-22.16-7.71
		c-7.64,0.94-12.91,4.21-16.88,8.51c-2.08,2.25-3.82,4.78-5.04,7.39c-3.57,7.66-4.13,16.2-2.41,24.33
		c1.19,5.61,3.07,10.27,5.94,13.84c4.19,5.22,10.32,8.75,18.63,8.57c14.82-0.32,23.1-9.37,26.02-24.09
		c-3.85,0.24-7.71,0.48-11.56,0.72c-1.79,6.44-4.87,11.17-10.84,11.32c-8.69,0.22-11.61-6.17-13.25-13.25
		c10.36-3.29,20.72-6.58,31.08-9.88C126.75,146.36,127.01,139.78,128.73,133.19z M155.09,126.87c-4.39-0.71-7.87,2.28-9.63,5.2
		c-1.76,2.92-3.1,6.68-2.81,10.71c0.33,4.62,2.4,8.36,4.52,11.27c2.38,3.26,5.5,5.31,9.65,5.65c3.95-0.29,6.94-2.19,8.87-5.74
		c1.32-2.43,2.13-5.62,2.42-9.59c0.4-5.61-1.88-9.75-4.38-12.59C161.23,128.94,158.24,127.37,155.09,126.87z M182.5,162.04
		l-5.99-53.07c-4.47,1.47-8.94,2.95-13.41,4.42c0.19,1.62,0.38,3.23,0.57,4.85c-3.28-1.74-6.81-2.98-10.84-2.71
		c-7.95,0.53-14.21,4.84-18.26,11.41c-4.18,6.77-5.26,14.35-3.85,21.4c1.14,5.68,2.71,11.1,7.85,16.69
		c4.42,4.81,9.48,8.01,16.55,7.28c6.62-0.69,12.34-3.88,16.69-11.27c0.14,1.52,0.29,3.04,0.43,4.57L182.5,162.04z M185.69,143.23
		c0.53,5.1,1.07,9.67,1.6,14.77c5.24,3.64,11.98,6.18,17.44,5.34c7.85-1.22,15.61-4.32,19.22-13.52
		c6.32-16.13-2.17-19.82-10.32-22.07c-4.99-1.38-10.87-2.42-11.75-7.47c-0.48-2.78,1.28-5.53,6.58-5.87
		c2.84-0.19,6.11,1.54,9.43,3.38c2.08-2.97,4.15-5.93,6.23-8.9c-4.46-3.43-9.77-5.08-15.66-4.98c-6.11,0.11-13.22,1.8-16.91,5.34
		c-4.56,4.38-5.77,9.35-5.16,14.06c1.17,9.04,7.74,12.94,16.73,15.66c5.97,1.8,7.3,4.97,7.3,7.65c0,4.41-3.67,5.26-7.3,5.16
		C197.45,151.61,190.97,146.8,185.69,143.23z M238.77,75.62l11.9-0.69l-2.06,19.92l18.77-0.23l-1.6,10.53l-16.71-0.92l-3.66,59.29
		l-16.94-2.06l6.87-58.6l-7.56-0.46l-0.69-8.24l9.61-0.23L238.77,75.62z"/>
</g>
</svg>
