<?xml version="1.0" encoding="utf-8"?>
<!-- Generator: Adobe Illustrator 25.2.3, SVG Export Plug-In . SVG Version: 6.00 Build 0)  -->
<svg version="1.1" id="katman_1" xmlns="http://www.w3.org/2000/svg" xmlns:xlink="http://www.w3.org/1999/xlink" x="0px" y="0px"
	 viewBox="0 0 283.46 283.46" style="enable-background:new 0 0 283.46 283.46;" xml:space="preserve">
<style type="text/css">
	.st0{fill:#AFAFAF;}
</style>
<g>
	<g>
		<path class="st0" d="M275.6,142.02c0-4.37-0.65-8.07-1.94-11.12c-1.29-3.05-2.99-5.52-5.09-7.41c-2.1-1.89-4.46-3.27-7.08-4.14
			c-2.61-0.87-5.21-1.3-7.8-1.3c-2.64,0-5.26,0.43-7.84,1.3s-4.93,2.25-7.03,4.14s-3.8,4.37-5.09,7.41
			c-1.29,3.05-1.94,6.76-1.94,11.12c0,4.37,0.65,8.07,1.94,11.12c1.29,3.05,2.99,5.52,5.09,7.41c2.1,1.89,4.45,3.23,7.03,4
			c2.58,0.77,5.2,1.16,7.84,1.16c2.58,0,5.18-0.39,7.8-1.16c2.61-0.77,4.97-2.1,7.08-4c2.1-1.89,3.8-4.37,5.09-7.41
			C274.95,150.1,275.6,146.39,275.6,142.02z M267.67,142.02c0,2.7-0.23,5.3-0.68,7.8c-0.45,2.5-1.22,4.73-2.3,6.69
			c-1.08,1.96-2.52,3.51-4.33,4.67c-1.8,1.16-4.03,1.73-6.67,1.73s-4.87-0.58-6.67-1.73c-1.8-1.16-3.25-2.71-4.33-4.67
			c-1.08-1.96-1.85-4.19-2.3-6.69s-0.68-5.1-0.68-7.8c0-2.7,0.23-5.3,0.68-7.8s1.22-4.73,2.3-6.69s2.52-3.51,4.33-4.67
			c1.8-1.16,4.03-1.73,6.67-1.73s4.87,0.58,6.67,1.73c1.8,1.16,3.25,2.71,4.33,4.67s1.85,4.19,2.3,6.69S267.67,139.33,267.67,142.02
			z"/>
		<path class="st0" d="M275.6,142.02c0-4.37-0.65-8.07-1.94-11.12c-1.29-3.05-2.99-5.52-5.09-7.41c-2.1-1.89-4.46-3.27-7.08-4.14
			c-2.61-0.87-5.21-1.3-7.8-1.3c-2.64,0-5.26,0.43-7.84,1.3s-4.93,2.25-7.03,4.14s-3.8,4.37-5.09,7.41
			c-1.29,3.05-1.94,6.76-1.94,11.12c0,4.37,0.65,8.07,1.94,11.12c1.29,3.05,2.99,5.52,5.09,7.41c2.1,1.89,4.45,3.23,7.03,4
			c2.58,0.77,5.2,1.16,7.84,1.16c2.58,0,5.18-0.39,7.8-1.16c2.61-0.77,4.97-2.1,7.08-4c2.1-1.89,3.8-4.37,5.09-7.41
			C274.95,150.1,275.6,146.39,275.6,142.02 M267.67,142.02c0,2.7-0.23,5.3-0.68,7.8c-0.45,2.5-1.22,4.73-2.3,6.69
			c-1.08,1.96-2.52,3.51-4.33,4.67c-1.8,1.16-4.03,1.73-6.67,1.73s-4.87-0.58-6.67-1.73c-1.8-1.16-3.25-2.71-4.33-4.67
			c-1.08-1.96-1.85-4.19-2.3-6.69s-0.68-5.1-0.68-7.8c0-2.7,0.23-5.3,0.68-7.8s1.22-4.73,2.3-6.69s2.52-3.51,4.33-4.67
			c1.8-1.16,4.03-1.73,6.67-1.73s4.87,0.58,6.67,1.73c1.8,1.16,3.25,2.71,4.33,4.67s1.85,4.19,2.3,6.69S267.67,139.33,267.67,142.02
			z"/>
		<path class="st0" d="M219.43,119.88c0-2.18,0.02-4.56,0.05-7.13s0.08-5.1,0.14-7.61c0.06-2.5,0.14-4.89,0.23-7.17
			s0.2-4.22,0.32-5.83c-1.68,0.32-3.04,0.48-4.06,0.48s-2.37-0.16-4.06-0.48c0.12,1.6,0.23,3.55,0.32,5.83
			c0.09,2.28,0.17,4.67,0.23,7.17s0.11,5.04,0.14,7.61s0.04,4.94,0.04,7.13v17.43c0,2.18-0.01,4.56-0.04,7.13s-0.08,5.1-0.14,7.61
			c-0.06,2.5-0.14,4.88-0.23,7.13s-0.2,4.11-0.32,5.58c1.38-0.13,2.73-0.19,4.06-0.19c1.32,0,2.67,0.06,4.06,0.19
			c-0.12-1.48-0.23-3.34-0.32-5.58c-0.09-2.25-0.17-4.62-0.23-7.13c-0.06-2.5-0.11-5.04-0.14-7.61s-0.05-4.94-0.05-7.13V119.88z"/>
		<path class="st0" d="M219.43,119.88c0-2.18,0.02-4.56,0.05-7.13s0.08-5.1,0.14-7.61c0.06-2.5,0.14-4.89,0.23-7.17
			s0.2-4.22,0.32-5.83c-1.68,0.32-3.04,0.48-4.06,0.48s-2.37-0.16-4.06-0.48c0.12,1.6,0.23,3.55,0.32,5.83
			c0.09,2.28,0.17,4.67,0.23,7.17s0.11,5.04,0.14,7.61s0.04,4.94,0.04,7.13v17.43c0,2.18-0.01,4.56-0.04,7.13s-0.08,5.1-0.14,7.61
			c-0.06,2.5-0.14,4.88-0.23,7.13s-0.2,4.11-0.32,5.58c1.38-0.13,2.73-0.19,4.06-0.19c1.32,0,2.67,0.06,4.06,0.19
			c-0.12-1.48-0.23-3.34-0.32-5.58c-0.09-2.25-0.17-4.62-0.23-7.13c-0.06-2.5-0.11-5.04-0.14-7.61s-0.05-4.94-0.05-7.13V119.88z"/>
		<path class="st0" d="M194.37,119.88c0-2.18,0.01-4.56,0.05-7.13c0.03-2.57,0.08-5.1,0.14-7.61c0.06-2.5,0.14-4.89,0.23-7.17
			s0.2-4.22,0.32-5.83c-1.68,0.32-3.04,0.48-4.06,0.48s-2.37-0.16-4.06-0.48c0.12,1.6,0.23,3.55,0.32,5.83
			c0.09,2.28,0.17,4.67,0.23,7.17s0.11,5.04,0.14,7.61s0.05,4.94,0.05,7.13v17.43c0,2.18-0.01,4.56-0.05,7.13
			c-0.03,2.57-0.08,5.1-0.14,7.61c-0.06,2.5-0.14,4.88-0.23,7.13s-0.2,4.11-0.32,5.58c1.38-0.13,2.73-0.19,4.06-0.19
			c1.32,0,2.67,0.06,4.06,0.19c-0.12-1.48-0.23-3.34-0.32-5.58c-0.09-2.25-0.17-4.62-0.23-7.13c-0.06-2.5-0.11-5.04-0.14-7.61
			s-0.05-4.94-0.05-7.13V119.88z"/>
		<path class="st0" d="M194.37,119.88c0-2.18,0.01-4.56,0.05-7.13c0.03-2.57,0.08-5.1,0.14-7.61c0.06-2.5,0.14-4.89,0.23-7.17
			s0.2-4.22,0.32-5.83c-1.68,0.32-3.04,0.48-4.06,0.48s-2.37-0.16-4.06-0.48c0.12,1.6,0.23,3.55,0.32,5.83
			c0.09,2.28,0.17,4.67,0.23,7.17s0.11,5.04,0.14,7.61s0.05,4.94,0.05,7.13v17.43c0,2.18-0.01,4.56-0.05,7.13
			c-0.03,2.57-0.08,5.1-0.14,7.61c-0.06,2.5-0.14,4.88-0.23,7.13s-0.2,4.11-0.32,5.58c1.38-0.13,2.73-0.19,4.06-0.19
			c1.32,0,2.67,0.06,4.06,0.19c-0.12-1.48-0.23-3.34-0.32-5.58c-0.09-2.25-0.17-4.62-0.23-7.13c-0.06-2.5-0.11-5.04-0.14-7.61
			s-0.05-4.94-0.05-7.13V119.88z"/>
		<path class="st0" d="M175.35,143.38c0-7.9-1.76-14.09-5.27-18.58c-3.52-4.49-8.64-6.74-15.37-6.74c-3.19,0-5.94,0.53-8.25,1.59
			s-4.25,2.47-5.81,4.24s-2.72,3.84-3.47,6.21c-0.75,2.38-1.13,4.91-1.13,7.61c0,0.64,0.01,1.27,0.05,1.88
			c0.03,0.61,0.08,1.24,0.14,1.88c3.25-0.06,6.46-0.13,9.65-0.19c3.19-0.06,6.4-0.1,9.65-0.1c1.98,0,3.95,0.03,5.91,0.1
			c1.95,0.06,3.92,0.13,5.9,0.19c0.06,0.32,0.09,0.8,0.09,1.44v1.25c0,2.5-0.35,4.85-1.04,7.03c-0.69,2.18-1.7,4.06-3.02,5.63
			s-2.95,2.82-4.87,3.76c-1.92,0.93-4.15,1.4-6.67,1.4c-1.2,0-2.43-0.18-3.7-0.53c-1.26-0.35-2.49-0.83-3.7-1.44
			c-1.2-0.61-2.33-1.33-3.38-2.17c-1.05-0.83-1.97-1.73-2.75-2.7l-0.45,0.29l0.54,4.72c1.8,1.54,4.04,2.86,6.72,3.95
			c2.67,1.09,5.45,1.64,8.34,1.64c3.25,0,6.21-0.53,8.88-1.59s4.99-2.6,6.94-4.62c1.95-2.02,3.46-4.41,4.51-7.17
			C174.82,149.57,175.35,146.58,175.35,143.38z M154.52,121.14c2.22,0,4.1,0.55,5.63,1.64s2.79,2.46,3.79,4.09
			c0.99,1.64,1.74,3.43,2.25,5.39c0.51,1.96,0.83,3.8,0.95,5.54c-1.86,0.06-3.8,0.13-5.81,0.19s-3.98,0.1-5.9,0.1
			c-1.98,0-4-0.03-6.04-0.1c-2.04-0.06-4.03-0.13-5.95-0.19c0-1.73,0.14-3.56,0.41-5.49s0.81-3.72,1.62-5.39
			c0.81-1.67,1.94-3.05,3.38-4.14C150.29,121.68,152.18,121.14,154.52,121.14z"/>
		<path class="st0" d="M175.35,143.38c0-7.9-1.76-14.09-5.27-18.58c-3.52-4.49-8.64-6.74-15.37-6.74c-3.19,0-5.94,0.53-8.25,1.59
			s-4.25,2.47-5.81,4.24s-2.72,3.84-3.47,6.21c-0.75,2.38-1.13,4.91-1.13,7.61c0,0.64,0.01,1.27,0.05,1.88
			c0.03,0.61,0.08,1.24,0.14,1.88c3.25-0.06,6.46-0.13,9.65-0.19c3.19-0.06,6.4-0.1,9.65-0.1c1.98,0,3.95,0.03,5.91,0.1
			c1.95,0.06,3.92,0.13,5.9,0.19c0.06,0.32,0.09,0.8,0.09,1.44v1.25c0,2.5-0.35,4.85-1.04,7.03c-0.69,2.18-1.7,4.06-3.02,5.63
			s-2.95,2.82-4.87,3.76c-1.92,0.93-4.15,1.4-6.67,1.4c-1.2,0-2.43-0.18-3.7-0.53c-1.26-0.35-2.49-0.83-3.7-1.44
			c-1.2-0.61-2.33-1.33-3.38-2.17c-1.05-0.83-1.97-1.73-2.75-2.7l-0.45,0.29l0.54,4.72c1.8,1.54,4.04,2.86,6.72,3.95
			c2.67,1.09,5.45,1.64,8.34,1.64c3.25,0,6.21-0.53,8.88-1.59s4.99-2.6,6.94-4.62c1.95-2.02,3.46-4.41,4.51-7.17
			C174.82,149.57,175.35,146.58,175.35,143.38 M154.52,121.14c2.22,0,4.1,0.55,5.63,1.64s2.79,2.46,3.79,4.09
			c0.99,1.64,1.74,3.43,2.25,5.39c0.51,1.96,0.83,3.8,0.95,5.54c-1.86,0.06-3.8,0.13-5.81,0.19s-3.98,0.1-5.9,0.1
			c-1.98,0-4-0.03-6.04-0.1c-2.04-0.06-4.03-0.13-5.95-0.19c0-1.73,0.14-3.56,0.41-5.49s0.81-3.72,1.62-5.39
			c0.81-1.67,1.94-3.05,3.38-4.14C150.29,121.68,152.18,121.14,154.52,121.14z"/>
		<path class="st0" d="M7.86,143.71c0-7.9,1.76-14.09,5.27-18.58c3.52-4.49,8.64-6.74,15.37-6.74c3.19,0,5.94,0.53,8.25,1.59
			s4.25,2.47,5.81,4.24s2.72,3.84,3.47,6.21c0.75,2.38,1.13,4.91,1.13,7.61c0,0.64-0.02,1.27-0.05,1.88
			c-0.03,0.61-0.08,1.24-0.14,1.88c-3.25-0.06-6.46-0.13-9.65-0.19s-6.4-0.1-9.65-0.1c-1.98,0-3.95,0.03-5.91,0.1
			c-1.95,0.06-3.92,0.13-5.9,0.19c-0.06,0.32-0.09,0.8-0.09,1.44v1.25c0,2.5,0.35,4.85,1.04,7.03s1.7,4.06,3.02,5.63
			s2.95,2.82,4.87,3.76c1.92,0.93,4.15,1.4,6.67,1.4c1.2,0,2.43-0.18,3.7-0.53c1.26-0.35,2.49-0.83,3.7-1.44
			c1.2-0.61,2.33-1.33,3.38-2.17c1.05-0.83,1.97-1.73,2.75-2.7l0.45,0.29l-0.54,4.72c-1.8,1.54-4.04,2.86-6.72,3.95
			c-2.67,1.09-5.45,1.64-8.34,1.64c-3.25,0-6.21-0.53-8.88-1.59s-4.99-2.6-6.94-4.62c-1.95-2.02-3.46-4.41-4.51-7.17
			C8.39,149.92,7.86,146.92,7.86,143.71z M28.69,121.48c-2.22,0-4.1,0.55-5.63,1.64c-1.53,1.09-2.79,2.46-3.79,4.09
			c-0.99,1.64-1.74,3.43-2.25,5.39c-0.51,1.96-0.83,3.8-0.95,5.54c1.86,0.06,3.8,0.13,5.81,0.19s3.98,0.1,5.91,0.1
			c1.98,0,4-0.03,6.04-0.1c2.04-0.06,4.03-0.13,5.95-0.19c0-1.73-0.14-3.56-0.41-5.49c-0.27-1.93-0.81-3.72-1.62-5.39
			c-0.81-1.67-1.94-3.05-3.38-4.14C32.93,122.01,31.03,121.48,28.69,121.48z"/>
		<path class="st0" d="M7.86,143.71c0-7.9,1.76-14.09,5.27-18.58c3.52-4.49,8.64-6.74,15.37-6.74c3.19,0,5.94,0.53,8.25,1.59
			s4.25,2.47,5.81,4.24s2.72,3.84,3.47,6.21c0.75,2.38,1.13,4.91,1.13,7.61c0,0.64-0.02,1.27-0.05,1.88
			c-0.03,0.61-0.08,1.24-0.14,1.88c-3.25-0.06-6.46-0.13-9.65-0.19s-6.4-0.1-9.65-0.1c-1.98,0-3.95,0.03-5.91,0.1
			c-1.95,0.06-3.92,0.13-5.9,0.19c-0.06,0.32-0.09,0.8-0.09,1.44v1.25c0,2.5,0.35,4.85,1.04,7.03s1.7,4.06,3.02,5.63
			s2.95,2.82,4.87,3.76c1.92,0.93,4.15,1.4,6.67,1.4c1.2,0,2.43-0.18,3.7-0.53c1.26-0.35,2.49-0.83,3.7-1.44
			c1.2-0.61,2.33-1.33,3.38-2.17c1.05-0.83,1.97-1.73,2.75-2.7l0.45,0.29l-0.54,4.72c-1.8,1.54-4.04,2.86-6.72,3.95
			c-2.67,1.09-5.45,1.64-8.34,1.64c-3.25,0-6.21-0.53-8.88-1.59s-4.99-2.6-6.94-4.62c-1.95-2.02-3.46-4.41-4.51-7.17
			C8.39,149.92,7.86,146.92,7.86,143.71 M28.69,121.48c-2.22,0-4.1,0.55-5.63,1.64c-1.53,1.09-2.79,2.46-3.79,4.09
			c-0.99,1.64-1.74,3.43-2.25,5.39c-0.51,1.96-0.83,3.8-0.95,5.54c1.86,0.06,3.8,0.13,5.81,0.19s3.98,0.1,5.91,0.1
			c1.98,0,4-0.03,6.04-0.1c2.04-0.06,4.03-0.13,5.95-0.19c0-1.73-0.14-3.56-0.41-5.49c-0.27-1.93-0.81-3.72-1.62-5.39
			c-0.81-1.67-1.94-3.05-3.38-4.14C32.93,122.01,31.03,121.48,28.69,121.48z"/>
		<path class="st0" d="M56.19,156.14c0.3,0.64,0.77,1.35,1.4,2.12s1.38,1.49,2.25,2.17c0.87,0.67,1.86,1.24,2.97,1.69
			c1.11,0.45,2.3,0.67,3.56,0.67c1.14,0,2.24-0.19,3.29-0.58c1.05-0.39,1.98-0.93,2.79-1.64c0.81-0.71,1.46-1.6,1.94-2.7
			c0.48-1.09,0.72-2.34,0.72-3.76c0-1.99-0.53-3.51-1.58-4.57s-2.36-1.93-3.92-2.6s-3.28-1.27-5.14-1.78
			c-1.86-0.51-3.58-1.24-5.14-2.17c-1.56-0.93-2.87-2.17-3.92-3.71s-1.58-3.66-1.58-6.36c0-2.12,0.33-4.06,0.99-5.83
			s1.62-3.29,2.88-4.57c1.26-1.28,2.82-2.29,4.69-3.03c1.86-0.74,4-1.11,6.4-1.11c2.22,0,4.1,0.32,5.63,0.96s2.99,1.22,4.37,1.73
			c-0.48,0.96-0.93,2.15-1.35,3.56c-0.42,1.41-0.69,2.5-0.81,3.27h-1.08c-0.48-1.54-1.41-2.92-2.79-4.14s-3.1-1.83-5.14-1.83
			c-0.9,0-1.8,0.16-2.7,0.48c-0.9,0.32-1.71,0.8-2.43,1.44s-1.32,1.48-1.8,2.5c-0.48,1.03-0.72,2.25-0.72,3.66
			c0,2.05,0.53,3.64,1.58,4.77c1.05,1.12,2.36,2.01,3.92,2.65c1.56,0.64,3.28,1.2,5.14,1.69c1.86,0.48,3.58,1.16,5.14,2.02
			c1.56,0.87,2.87,2.07,3.92,3.61c1.05,1.54,1.58,3.66,1.58,6.36c0,1.86-0.38,3.69-1.13,5.49c-0.75,1.8-1.83,3.42-3.25,4.86
			c-1.41,1.44-3.11,2.57-5.09,3.37c-1.98,0.8-4.24,1.2-6.76,1.2c-2.76,0-5.08-0.29-6.94-0.87c-1.86-0.58-3.43-1.25-4.69-2.02
			c0.36-0.83,0.74-1.97,1.13-3.42c0.39-1.44,0.59-2.65,0.59-3.61h1.08L56.19,156.14L56.19,156.14z"/>
		<path class="st0" d="M56.19,156.14c0.3,0.64,0.77,1.35,1.4,2.12s1.38,1.49,2.25,2.17c0.87,0.67,1.86,1.24,2.97,1.69
			c1.11,0.45,2.3,0.67,3.56,0.67c1.14,0,2.24-0.19,3.29-0.58c1.05-0.39,1.98-0.93,2.79-1.64c0.81-0.71,1.46-1.6,1.94-2.7
			c0.48-1.09,0.72-2.34,0.72-3.76c0-1.99-0.53-3.51-1.58-4.57s-2.36-1.93-3.92-2.6s-3.28-1.27-5.14-1.78
			c-1.86-0.51-3.58-1.24-5.14-2.17c-1.56-0.93-2.87-2.17-3.92-3.71s-1.58-3.66-1.58-6.36c0-2.12,0.33-4.06,0.99-5.83
			s1.62-3.29,2.88-4.57c1.26-1.28,2.82-2.29,4.69-3.03c1.86-0.74,4-1.11,6.4-1.11c2.22,0,4.1,0.32,5.63,0.96s2.99,1.22,4.37,1.73
			c-0.48,0.96-0.93,2.15-1.35,3.56c-0.42,1.41-0.69,2.5-0.81,3.27h-1.08c-0.48-1.54-1.41-2.92-2.79-4.14s-3.1-1.83-5.14-1.83
			c-0.9,0-1.8,0.16-2.7,0.48c-0.9,0.32-1.71,0.8-2.43,1.44s-1.32,1.48-1.8,2.5c-0.48,1.03-0.72,2.25-0.72,3.66
			c0,2.05,0.53,3.64,1.58,4.77c1.05,1.12,2.36,2.01,3.92,2.65c1.56,0.64,3.28,1.2,5.14,1.69c1.86,0.48,3.58,1.16,5.14,2.02
			c1.56,0.87,2.87,2.07,3.92,3.61c1.05,1.54,1.58,3.66,1.58,6.36c0,1.86-0.38,3.69-1.13,5.49c-0.75,1.8-1.83,3.42-3.25,4.86
			c-1.41,1.44-3.11,2.57-5.09,3.37c-1.98,0.8-4.24,1.2-6.76,1.2c-2.76,0-5.08-0.29-6.94-0.87c-1.86-0.58-3.43-1.25-4.69-2.02
			c0.36-0.83,0.74-1.97,1.13-3.42c0.39-1.44,0.59-2.65,0.59-3.61h1.08L56.19,156.14L56.19,156.14z"/>
		<path class="st0" d="M123.26,141.99c0-3.85-0.38-7.03-1.13-9.53s-1.71-4.51-2.88-6.02c-1.17-1.51-2.51-2.55-4.01-3.13
			c-1.5-0.58-2.98-0.87-4.42-0.87c-2.4,0-4.46,0.55-6.18,1.64c-1.71,1.09-3.11,2.55-4.19,4.38c-1.08,1.83-1.86,3.98-2.34,6.45
			c-0.48,2.47-0.72,5.09-0.72,7.85c0,13.35,4.39,20.03,13.16,20.03c2.16,0,4.04-0.53,5.63-1.59s2.91-2.54,3.97-4.43
			c1.05-1.89,1.83-4.11,2.34-6.64C123,147.58,123.26,144.88,123.26,141.99z M90.72,147.38c0-2.18-0.02-4.56-0.05-7.13
			c-0.03-2.57-0.08-5.12-0.14-7.65c-0.06-2.54-0.14-4.96-0.23-7.27c-0.09-2.31-0.2-4.3-0.32-5.97c1.68,0.32,3.04,0.48,4.06,0.48
			s2.37-0.16,4.06-0.48c-0.24,1.67-0.42,3.27-0.54,4.81s-0.18,3.08-0.18,4.62h0.18c0.42-1.03,1.02-2.13,1.8-3.32
			c0.78-1.19,1.79-2.31,3.02-3.37c1.23-1.06,2.72-1.94,4.46-2.65s3.73-1.06,5.95-1.06c2.28,0,4.54,0.47,6.76,1.4s4.19,2.36,5.9,4.28
			c1.71,1.93,3.1,4.38,4.15,7.37c1.05,2.98,1.58,6.53,1.58,10.64c0,4.11-0.57,7.67-1.71,10.69c-1.14,3.02-2.63,5.52-4.46,7.51
			c-1.83,1.99-3.92,3.45-6.27,4.38c-2.34,0.93-4.69,1.4-7.03,1.4c-6.61,0-11.33-3.05-14.15-9.15h-0.18v6.07
			c0,2.05,0.02,4.35,0.05,6.88c0.03,2.54,0.08,5.06,0.14,7.56s0.14,4.89,0.23,7.17c0.09,2.28,0.2,4.22,0.32,5.83
			c-1.68-0.32-3.04-0.48-4.06-0.48s-2.37,0.16-4.06,0.48c0.12-1.6,0.23-3.55,0.32-5.83s0.17-4.67,0.23-7.17
			c0.06-2.5,0.11-5.02,0.14-7.56c0.03-2.54,0.05-4.83,0.05-6.88v-15.6H90.72z"/>
		<path class="st0" d="M123.26,141.99c0-3.85-0.38-7.03-1.13-9.53s-1.71-4.51-2.88-6.02c-1.17-1.51-2.51-2.55-4.01-3.13
			c-1.5-0.58-2.98-0.87-4.42-0.87c-2.4,0-4.46,0.55-6.18,1.64c-1.71,1.09-3.11,2.55-4.19,4.38c-1.08,1.83-1.86,3.98-2.34,6.45
			c-0.48,2.47-0.72,5.09-0.72,7.85c0,13.35,4.39,20.03,13.16,20.03c2.16,0,4.04-0.53,5.63-1.59s2.91-2.54,3.97-4.43
			c1.05-1.89,1.83-4.11,2.34-6.64C123,147.58,123.26,144.88,123.26,141.99 M90.72,147.38c0-2.18-0.02-4.56-0.05-7.13
			c-0.03-2.57-0.08-5.12-0.14-7.65c-0.06-2.54-0.14-4.96-0.23-7.27c-0.09-2.31-0.2-4.3-0.32-5.97c1.68,0.32,3.04,0.48,4.06,0.48
			s2.37-0.16,4.06-0.48c-0.24,1.67-0.42,3.27-0.54,4.81s-0.18,3.08-0.18,4.62h0.18c0.42-1.03,1.02-2.13,1.8-3.32
			c0.78-1.19,1.79-2.31,3.02-3.37c1.23-1.06,2.72-1.94,4.46-2.65s3.73-1.06,5.95-1.06c2.28,0,4.54,0.47,6.76,1.4s4.19,2.36,5.9,4.28
			c1.71,1.93,3.1,4.38,4.15,7.37c1.05,2.98,1.58,6.53,1.58,10.64c0,4.11-0.57,7.67-1.71,10.69c-1.14,3.02-2.63,5.52-4.46,7.51
			c-1.83,1.99-3.92,3.45-6.27,4.38c-2.34,0.93-4.69,1.4-7.03,1.4c-6.61,0-11.33-3.05-14.15-9.15h-0.18v6.07
			c0,2.05,0.02,4.35,0.05,6.88c0.03,2.54,0.08,5.06,0.14,7.56s0.14,4.89,0.23,7.17c0.09,2.28,0.2,4.22,0.32,5.83
			c-1.68-0.32-3.04-0.48-4.06-0.48s-2.37,0.16-4.06,0.48c0.12-1.6,0.23-3.55,0.32-5.83s0.17-4.67,0.23-7.17
			c0.06-2.5,0.11-5.02,0.14-7.56c0.03-2.54,0.05-4.83,0.05-6.88v-15.6H90.72z"/>
		<rect x="7.97" y="187.6" class="st0" width="75.03" height="3.58"/>
		<rect x="7.97" y="187.6" class="st0" width="75.03" height="3.58"/>
		<path class="st0" d="M109.87,187.9c-0.05-0.29-0.14-0.52-0.28-0.69c-0.14-0.18-0.35-0.26-0.62-0.26c-0.36,0-0.63,0.17-0.81,0.52
			s-0.27,0.83-0.27,1.45c0,0.58,0.11,1.02,0.34,1.33c0.23,0.31,0.56,0.46,0.99,0.46c0.18,0,0.36-0.05,0.54-0.14
			c0.17-0.09,0.3-0.2,0.38-0.31l0.11,0.1c-0.04,0.09-0.08,0.18-0.11,0.28s-0.06,0.19-0.09,0.29c-0.13,0.11-0.3,0.2-0.5,0.27
			s-0.44,0.11-0.71,0.11c-0.44,0-0.8-0.07-1.1-0.2c-0.3-0.13-0.54-0.32-0.72-0.55c-0.18-0.23-0.31-0.49-0.39-0.78
			c-0.08-0.29-0.12-0.58-0.12-0.87c0-0.35,0.06-0.68,0.17-0.98c0.11-0.3,0.27-0.56,0.47-0.77c0.21-0.22,0.46-0.39,0.75-0.51
			s0.62-0.19,0.98-0.19c0.34,0,0.63,0.04,0.86,0.12c0.24,0.08,0.46,0.19,0.68,0.33c-0.07,0.13-0.14,0.28-0.2,0.47
			c-0.06,0.18-0.11,0.36-0.14,0.53h-0.21C109.87,187.92,109.87,187.9,109.87,187.9z"/>
		<path class="st0" d="M109.87,187.9c-0.05-0.29-0.14-0.52-0.28-0.69c-0.14-0.18-0.35-0.26-0.62-0.26c-0.36,0-0.63,0.17-0.81,0.52
			s-0.27,0.83-0.27,1.45c0,0.58,0.11,1.02,0.34,1.33c0.23,0.31,0.56,0.46,0.99,0.46c0.18,0,0.36-0.05,0.54-0.14
			c0.17-0.09,0.3-0.2,0.38-0.31l0.11,0.1c-0.04,0.09-0.08,0.18-0.11,0.28s-0.06,0.19-0.09,0.29c-0.13,0.11-0.3,0.2-0.5,0.27
			s-0.44,0.11-0.71,0.11c-0.44,0-0.8-0.07-1.1-0.2c-0.3-0.13-0.54-0.32-0.72-0.55c-0.18-0.23-0.31-0.49-0.39-0.78
			c-0.08-0.29-0.12-0.58-0.12-0.87c0-0.35,0.06-0.68,0.17-0.98c0.11-0.3,0.27-0.56,0.47-0.77c0.21-0.22,0.46-0.39,0.75-0.51
			s0.62-0.19,0.98-0.19c0.34,0,0.63,0.04,0.86,0.12c0.24,0.08,0.46,0.19,0.68,0.33c-0.07,0.13-0.14,0.28-0.2,0.47
			c-0.06,0.18-0.11,0.36-0.14,0.53h-0.21C109.87,187.92,109.87,187.9,109.87,187.9z"/>
		<path class="st0" d="M121.78,189.02c0-0.43,0.06-0.8,0.18-1.12c0.12-0.32,0.28-0.58,0.49-0.8c0.2-0.21,0.44-0.37,0.7-0.48
			c0.27-0.11,0.54-0.16,0.82-0.16c0.7,0,1.24,0.21,1.62,0.63c0.38,0.42,0.57,0.99,0.57,1.71c0,0.39-0.05,0.74-0.16,1.05
			s-0.26,0.58-0.45,0.8c-0.19,0.22-0.43,0.38-0.69,0.49c-0.27,0.11-0.56,0.16-0.89,0.16c-0.27,0-0.53-0.04-0.79-0.11
			c-0.26-0.08-0.49-0.21-0.7-0.39s-0.38-0.42-0.51-0.71C121.84,189.8,121.78,189.43,121.78,189.02z M124.84,188.65
			c0-0.56-0.07-1-0.2-1.3c-0.13-0.31-0.35-0.46-0.65-0.46c-0.27,0-0.49,0.17-0.65,0.52c-0.16,0.34-0.24,0.88-0.24,1.62
			c0,0.27,0.01,0.52,0.04,0.75c0.03,0.23,0.08,0.43,0.15,0.6c0.07,0.17,0.16,0.3,0.27,0.4c0.11,0.1,0.25,0.14,0.42,0.14
			C124.55,190.9,124.84,190.15,124.84,188.65z"/>
		<path class="st0" d="M121.78,189.02c0-0.43,0.06-0.8,0.18-1.12c0.12-0.32,0.28-0.58,0.49-0.8c0.2-0.21,0.44-0.37,0.7-0.48
			c0.27-0.11,0.54-0.16,0.82-0.16c0.7,0,1.24,0.21,1.62,0.63c0.38,0.42,0.57,0.99,0.57,1.71c0,0.39-0.05,0.74-0.16,1.05
			s-0.26,0.58-0.45,0.8c-0.19,0.22-0.43,0.38-0.69,0.49c-0.27,0.11-0.56,0.16-0.89,0.16c-0.27,0-0.53-0.04-0.79-0.11
			c-0.26-0.08-0.49-0.21-0.7-0.39s-0.38-0.42-0.51-0.71C121.84,189.8,121.78,189.43,121.78,189.02 M124.84,188.65
			c0-0.56-0.07-1-0.2-1.3c-0.13-0.31-0.35-0.46-0.65-0.46c-0.27,0-0.49,0.17-0.65,0.52c-0.16,0.34-0.24,0.88-0.24,1.62
			c0,0.27,0.01,0.52,0.04,0.75c0.03,0.23,0.08,0.43,0.15,0.6c0.07,0.17,0.16,0.3,0.27,0.4c0.11,0.1,0.25,0.14,0.42,0.14
			C124.55,190.9,124.84,190.15,124.84,188.65z"/>
		<path class="st0" d="M140.16,186.64c-0.01,0.05-0.01,0.1-0.02,0.13c-0.01,0.04-0.01,0.08-0.01,0.12c0,0.04,0,0.08,0.01,0.12
			c0.01,0.04,0.01,0.08,0.02,0.12l-0.84-0.02v0.79c0,0.62,0.01,1.2,0.02,1.72c0.01,0.52,0.03,1.04,0.05,1.56
			c-0.08-0.01-0.18-0.02-0.3-0.02h-0.38h-0.38c-0.12,0-0.22,0.01-0.3,0.02c0.02-0.52,0.04-1.04,0.05-1.56
			c0.01-0.52,0.02-1.1,0.02-1.72v-0.78l-0.63,0.01c0.02-0.08,0.03-0.16,0.03-0.24c0-0.08-0.01-0.16-0.03-0.26l0.63,0.03
			c0.06-0.39,0.13-0.75,0.22-1.08c0.09-0.33,0.21-0.62,0.35-0.86c0.15-0.24,0.33-0.43,0.55-0.57c0.22-0.14,0.49-0.21,0.81-0.21
			c0.1,0,0.23,0.02,0.38,0.05c-0.02,0.1-0.03,0.24-0.03,0.42s0,0.35,0,0.51v0.32l-0.11,0.04c-0.12-0.07-0.26-0.13-0.41-0.19
			c-0.16-0.06-0.3-0.09-0.45-0.09c-0.17,0-0.31,0.03-0.4,0.09s-0.14,0.17-0.14,0.32c0,0.15,0.04,0.33,0.12,0.56
			c0.08,0.23,0.18,0.46,0.3,0.68L140.16,186.64z"/>
		<path class="st0" d="M140.16,186.64c-0.01,0.05-0.01,0.1-0.02,0.13c-0.01,0.04-0.01,0.08-0.01,0.12c0,0.04,0,0.08,0.01,0.12
			c0.01,0.04,0.01,0.08,0.02,0.12l-0.84-0.02v0.79c0,0.62,0.01,1.2,0.02,1.72c0.01,0.52,0.03,1.04,0.05,1.56
			c-0.08-0.01-0.18-0.02-0.3-0.02h-0.38h-0.38c-0.12,0-0.22,0.01-0.3,0.02c0.02-0.52,0.04-1.04,0.05-1.56
			c0.01-0.52,0.02-1.1,0.02-1.72v-0.78l-0.63,0.01c0.02-0.08,0.03-0.16,0.03-0.24c0-0.08-0.01-0.16-0.03-0.26l0.63,0.03
			c0.06-0.39,0.13-0.75,0.22-1.08c0.09-0.33,0.21-0.62,0.35-0.86c0.15-0.24,0.33-0.43,0.55-0.57c0.22-0.14,0.49-0.21,0.81-0.21
			c0.1,0,0.23,0.02,0.38,0.05c-0.02,0.1-0.03,0.24-0.03,0.42s0,0.35,0,0.51v0.32l-0.11,0.04c-0.12-0.07-0.26-0.13-0.41-0.19
			c-0.16-0.06-0.3-0.09-0.45-0.09c-0.17,0-0.31,0.03-0.4,0.09s-0.14,0.17-0.14,0.32c0,0.15,0.04,0.33,0.12,0.56
			c0.08,0.23,0.18,0.46,0.3,0.68L140.16,186.64z"/>
		<path class="st0" d="M153.85,186.64c-0.01,0.05-0.01,0.1-0.02,0.13c-0.01,0.04-0.01,0.08-0.01,0.12c0,0.04,0,0.08,0.01,0.12
			c0.01,0.04,0.01,0.08,0.02,0.12l-0.84-0.02v0.79c0,0.62,0.01,1.2,0.02,1.72c0.01,0.52,0.03,1.04,0.05,1.56
			c-0.08-0.01-0.18-0.02-0.3-0.02h-0.38h-0.38c-0.12,0-0.22,0.01-0.3,0.02c0.02-0.52,0.04-1.04,0.05-1.56
			c0.01-0.52,0.02-1.1,0.02-1.72v-0.78l-0.63,0.01c0.02-0.08,0.03-0.16,0.03-0.24c0-0.08-0.01-0.16-0.03-0.26l0.63,0.03
			c0.06-0.39,0.13-0.75,0.22-1.08c0.09-0.33,0.21-0.62,0.35-0.86c0.15-0.24,0.33-0.43,0.55-0.57c0.22-0.14,0.49-0.21,0.81-0.21
			c0.1,0,0.23,0.02,0.38,0.05c-0.02,0.1-0.03,0.24-0.03,0.42s0,0.35,0,0.51v0.32l-0.11,0.04c-0.12-0.07-0.26-0.13-0.41-0.19
			c-0.16-0.06-0.3-0.09-0.45-0.09c-0.17,0-0.31,0.03-0.4,0.09s-0.14,0.17-0.14,0.32c0,0.15,0.04,0.33,0.12,0.56
			c0.08,0.23,0.18,0.46,0.3,0.68L153.85,186.64z"/>
		<path class="st0" d="M153.85,186.64c-0.01,0.05-0.01,0.1-0.02,0.13c-0.01,0.04-0.01,0.08-0.01,0.12c0,0.04,0,0.08,0.01,0.12
			c0.01,0.04,0.01,0.08,0.02,0.12l-0.84-0.02v0.79c0,0.62,0.01,1.2,0.02,1.72c0.01,0.52,0.03,1.04,0.05,1.56
			c-0.08-0.01-0.18-0.02-0.3-0.02h-0.38h-0.38c-0.12,0-0.22,0.01-0.3,0.02c0.02-0.52,0.04-1.04,0.05-1.56
			c0.01-0.52,0.02-1.1,0.02-1.72v-0.78l-0.63,0.01c0.02-0.08,0.03-0.16,0.03-0.24c0-0.08-0.01-0.16-0.03-0.26l0.63,0.03
			c0.06-0.39,0.13-0.75,0.22-1.08c0.09-0.33,0.21-0.62,0.35-0.86c0.15-0.24,0.33-0.43,0.55-0.57c0.22-0.14,0.49-0.21,0.81-0.21
			c0.1,0,0.23,0.02,0.38,0.05c-0.02,0.1-0.03,0.24-0.03,0.42s0,0.35,0,0.51v0.32l-0.11,0.04c-0.12-0.07-0.26-0.13-0.41-0.19
			c-0.16-0.06-0.3-0.09-0.45-0.09c-0.17,0-0.31,0.03-0.4,0.09s-0.14,0.17-0.14,0.32c0,0.15,0.04,0.33,0.12,0.56
			c0.08,0.23,0.18,0.46,0.3,0.68L153.85,186.64z"/>
		<path class="st0" d="M167.7,188.46c-0.01-0.48-0.07-0.86-0.17-1.15c-0.1-0.29-0.26-0.43-0.5-0.43c-0.13,0-0.24,0.05-0.33,0.14
			c-0.09,0.1-0.16,0.22-0.21,0.37s-0.09,0.32-0.12,0.51c-0.03,0.19-0.04,0.37-0.05,0.56H167.7z M166.33,188.89
			c0,0.25,0.02,0.49,0.07,0.72c0.05,0.22,0.12,0.42,0.22,0.58s0.22,0.29,0.38,0.38c0.15,0.09,0.33,0.14,0.53,0.14
			c0.41,0,0.78-0.14,1.1-0.43l0.11,0.09l-0.2,0.54c-0.15,0.12-0.33,0.22-0.54,0.29c-0.21,0.07-0.48,0.11-0.82,0.11
			c-0.29,0-0.57-0.04-0.83-0.13s-0.49-0.23-0.69-0.43c-0.2-0.2-0.36-0.45-0.47-0.75c-0.12-0.3-0.17-0.66-0.17-1.09
			c0-0.41,0.05-0.77,0.16-1.08c0.1-0.31,0.25-0.56,0.43-0.76c0.18-0.2,0.4-0.36,0.66-0.46c0.25-0.1,0.53-0.15,0.83-0.15
			c0.59,0,1.04,0.18,1.36,0.55c0.31,0.37,0.47,0.89,0.47,1.57v0.2c0,0.06,0,0.1-0.01,0.11L166.33,188.89L166.33,188.89z"/>
		<path class="st0" d="M167.7,188.46c-0.01-0.48-0.07-0.86-0.17-1.15c-0.1-0.29-0.26-0.43-0.5-0.43c-0.13,0-0.24,0.05-0.33,0.14
			c-0.09,0.1-0.16,0.22-0.21,0.37s-0.09,0.32-0.12,0.51c-0.03,0.19-0.04,0.37-0.05,0.56H167.7z M166.33,188.89
			c0,0.25,0.02,0.49,0.07,0.72c0.05,0.22,0.12,0.42,0.22,0.58s0.22,0.29,0.38,0.38c0.15,0.09,0.33,0.14,0.53,0.14
			c0.41,0,0.78-0.14,1.1-0.43l0.11,0.09l-0.2,0.54c-0.15,0.12-0.33,0.22-0.54,0.29c-0.21,0.07-0.48,0.11-0.82,0.11
			c-0.29,0-0.57-0.04-0.83-0.13s-0.49-0.23-0.69-0.43c-0.2-0.2-0.36-0.45-0.47-0.75c-0.12-0.3-0.17-0.66-0.17-1.09
			c0-0.41,0.05-0.77,0.16-1.08c0.1-0.31,0.25-0.56,0.43-0.76c0.18-0.2,0.4-0.36,0.66-0.46c0.25-0.1,0.53-0.15,0.83-0.15
			c0.59,0,1.04,0.18,1.36,0.55c0.31,0.37,0.47,0.89,0.47,1.57v0.2c0,0.06,0,0.1-0.01,0.11L166.33,188.89L166.33,188.89z"/>
		<path class="st0" d="M183.05,188.46c-0.01-0.48-0.07-0.86-0.17-1.15c-0.1-0.29-0.26-0.43-0.5-0.43c-0.13,0-0.24,0.05-0.33,0.14
			c-0.09,0.1-0.16,0.22-0.21,0.37s-0.09,0.32-0.12,0.51c-0.03,0.19-0.04,0.37-0.05,0.56H183.05z M181.67,188.89
			c0,0.25,0.02,0.49,0.07,0.72c0.05,0.22,0.12,0.42,0.22,0.58s0.22,0.29,0.38,0.38c0.15,0.09,0.33,0.14,0.53,0.14
			c0.41,0,0.78-0.14,1.1-0.43l0.11,0.09l-0.2,0.54c-0.15,0.12-0.33,0.22-0.54,0.29c-0.21,0.07-0.48,0.11-0.82,0.11
			c-0.29,0-0.57-0.04-0.83-0.13s-0.49-0.23-0.69-0.43c-0.2-0.2-0.36-0.45-0.47-0.75c-0.12-0.3-0.17-0.66-0.17-1.09
			c0-0.41,0.05-0.77,0.16-1.08c0.1-0.31,0.25-0.56,0.43-0.76c0.18-0.2,0.4-0.36,0.66-0.46c0.25-0.1,0.53-0.15,0.83-0.15
			c0.59,0,1.04,0.18,1.36,0.55c0.31,0.37,0.47,0.89,0.47,1.57v0.2c0,0.06,0,0.1-0.01,0.11L181.67,188.89L181.67,188.89z"/>
		<path class="st0" d="M183.05,188.46c-0.01-0.48-0.07-0.86-0.17-1.15c-0.1-0.29-0.26-0.43-0.5-0.43c-0.13,0-0.24,0.05-0.33,0.14
			c-0.09,0.1-0.16,0.22-0.21,0.37s-0.09,0.32-0.12,0.51c-0.03,0.19-0.04,0.37-0.05,0.56H183.05z M181.67,188.89
			c0,0.25,0.02,0.49,0.07,0.72c0.05,0.22,0.12,0.42,0.22,0.58s0.22,0.29,0.38,0.38c0.15,0.09,0.33,0.14,0.53,0.14
			c0.41,0,0.78-0.14,1.1-0.43l0.11,0.09l-0.2,0.54c-0.15,0.12-0.33,0.22-0.54,0.29c-0.21,0.07-0.48,0.11-0.82,0.11
			c-0.29,0-0.57-0.04-0.83-0.13s-0.49-0.23-0.69-0.43c-0.2-0.2-0.36-0.45-0.47-0.75c-0.12-0.3-0.17-0.66-0.17-1.09
			c0-0.41,0.05-0.77,0.16-1.08c0.1-0.31,0.25-0.56,0.43-0.76c0.18-0.2,0.4-0.36,0.66-0.46c0.25-0.1,0.53-0.15,0.83-0.15
			c0.59,0,1.04,0.18,1.36,0.55c0.31,0.37,0.47,0.89,0.47,1.57v0.2c0,0.06,0,0.1-0.01,0.11L181.67,188.89L181.67,188.89z"/>
		<path class="st0" d="M209.3,187.29c0-0.62-0.01-1.2-0.02-1.72c-0.01-0.52-0.03-1.05-0.05-1.59c0.08,0.01,0.18,0.02,0.3,0.03
			c0.12,0.01,0.24,0.01,0.38,0.01c0.13,0,0.26,0,0.38-0.01c0.12-0.01,0.22-0.02,0.3-0.03c-0.02,0.54-0.04,1.06-0.05,1.59
			c-0.01,0.52-0.02,1.1-0.02,1.72l0.02,0.02c0.16-0.27,0.34-0.47,0.57-0.62c0.22-0.15,0.48-0.22,0.77-0.22
			c0.45,0,0.79,0.14,1.03,0.42s0.36,0.72,0.36,1.34c0,0.33-0.01,0.61-0.02,0.86c-0.01,0.25-0.02,0.5-0.02,0.75
			c0,0.2,0,0.43,0.01,0.66c0.01,0.24,0.02,0.47,0.03,0.69c-0.08-0.01-0.18-0.02-0.3-0.02h-0.38h-0.38c-0.12,0-0.22,0.01-0.3,0.02
			c0.04-0.33,0.07-0.72,0.08-1.17c0.01-0.45,0.02-0.96,0.02-1.54c0-0.4-0.06-0.7-0.19-0.88c-0.13-0.19-0.31-0.28-0.54-0.28
			c-0.27,0-0.47,0.12-0.59,0.37c-0.13,0.25-0.19,0.59-0.19,1.03v0.38c0,0.09,0,0.22,0,0.39c0,0.17,0.01,0.35,0.01,0.55
			c0.01,0.2,0.01,0.4,0.02,0.61c0.01,0.21,0.02,0.39,0.03,0.54c-0.08-0.01-0.18-0.02-0.3-0.02h-0.38h-0.38
			c-0.12,0-0.22,0.01-0.3,0.02c0.02-0.52,0.04-1.04,0.05-1.56c0.01-0.52,0.02-1.1,0.02-1.72v-0.62H209.3L209.3,187.29z"/>
		<path class="st0" d="M209.3,187.29c0-0.62-0.01-1.2-0.02-1.72c-0.01-0.52-0.03-1.05-0.05-1.59c0.08,0.01,0.18,0.02,0.3,0.03
			c0.12,0.01,0.24,0.01,0.38,0.01c0.13,0,0.26,0,0.38-0.01c0.12-0.01,0.22-0.02,0.3-0.03c-0.02,0.54-0.04,1.06-0.05,1.59
			c-0.01,0.52-0.02,1.1-0.02,1.72l0.02,0.02c0.16-0.27,0.34-0.47,0.57-0.62c0.22-0.15,0.48-0.22,0.77-0.22
			c0.45,0,0.79,0.14,1.03,0.42s0.36,0.72,0.36,1.34c0,0.33-0.01,0.61-0.02,0.86c-0.01,0.25-0.02,0.5-0.02,0.75
			c0,0.2,0,0.43,0.01,0.66c0.01,0.24,0.02,0.47,0.03,0.69c-0.08-0.01-0.18-0.02-0.3-0.02h-0.38h-0.38c-0.12,0-0.22,0.01-0.3,0.02
			c0.04-0.33,0.07-0.72,0.08-1.17c0.01-0.45,0.02-0.96,0.02-1.54c0-0.4-0.06-0.7-0.19-0.88c-0.13-0.19-0.31-0.28-0.54-0.28
			c-0.27,0-0.47,0.12-0.59,0.37c-0.13,0.25-0.19,0.59-0.19,1.03v0.38c0,0.09,0,0.22,0,0.39c0,0.17,0.01,0.35,0.01,0.55
			c0.01,0.2,0.01,0.4,0.02,0.61c0.01,0.21,0.02,0.39,0.03,0.54c-0.08-0.01-0.18-0.02-0.3-0.02h-0.38h-0.38
			c-0.12,0-0.22,0.01-0.3,0.02c0.02-0.52,0.04-1.04,0.05-1.56c0.01-0.52,0.02-1.1,0.02-1.72v-0.62H209.3L209.3,187.29z"/>
		<path class="st0" d="M224.9,189.02c0-0.43,0.06-0.8,0.18-1.12c0.12-0.32,0.28-0.58,0.49-0.8c0.2-0.21,0.44-0.37,0.7-0.48
			c0.27-0.11,0.54-0.16,0.82-0.16c0.7,0,1.24,0.21,1.62,0.63c0.38,0.42,0.57,0.99,0.57,1.71c0,0.39-0.05,0.74-0.16,1.05
			s-0.26,0.58-0.45,0.8s-0.43,0.38-0.69,0.49c-0.27,0.11-0.56,0.16-0.89,0.16c-0.27,0-0.53-0.04-0.79-0.11
			c-0.26-0.08-0.49-0.21-0.7-0.39s-0.38-0.42-0.51-0.71C224.96,189.8,224.9,189.43,224.9,189.02z M227.96,188.65
			c0-0.56-0.07-1-0.2-1.3c-0.13-0.31-0.35-0.46-0.65-0.46c-0.27,0-0.49,0.17-0.65,0.52c-0.16,0.34-0.24,0.88-0.24,1.62
			c0,0.27,0.01,0.52,0.04,0.75c0.03,0.23,0.08,0.43,0.15,0.6c0.07,0.17,0.16,0.3,0.27,0.4s0.25,0.14,0.42,0.14
			C227.67,190.9,227.96,190.15,227.96,188.65z"/>
		<path class="st0" d="M224.9,189.02c0-0.43,0.06-0.8,0.18-1.12c0.12-0.32,0.28-0.58,0.49-0.8c0.2-0.21,0.44-0.37,0.7-0.48
			c0.27-0.11,0.54-0.16,0.82-0.16c0.7,0,1.24,0.21,1.62,0.63c0.38,0.42,0.57,0.99,0.57,1.71c0,0.39-0.05,0.74-0.16,1.05
			s-0.26,0.58-0.45,0.8s-0.43,0.38-0.69,0.49c-0.27,0.11-0.56,0.16-0.89,0.16c-0.27,0-0.53-0.04-0.79-0.11
			c-0.26-0.08-0.49-0.21-0.7-0.39s-0.38-0.42-0.51-0.71C224.96,189.8,224.9,189.43,224.9,189.02 M227.96,188.65
			c0-0.56-0.07-1-0.2-1.3c-0.13-0.31-0.35-0.46-0.65-0.46c-0.27,0-0.49,0.17-0.65,0.52c-0.16,0.34-0.24,0.88-0.24,1.62
			c0,0.27,0.01,0.52,0.04,0.75c0.03,0.23,0.08,0.43,0.15,0.6c0.07,0.17,0.16,0.3,0.27,0.4s0.25,0.14,0.42,0.14
			C227.67,190.9,227.96,190.15,227.96,188.65z"/>
		<path class="st0" d="M243.68,190.49c-0.17,0.27-0.36,0.47-0.59,0.61c-0.22,0.14-0.48,0.21-0.77,0.21c-0.45,0-0.79-0.13-1.03-0.4
			s-0.36-0.71-0.36-1.33c0-0.33,0.01-0.61,0.02-0.86c0.01-0.25,0.02-0.5,0.02-0.75c0-0.2,0-0.43-0.01-0.66
			c-0.01-0.24-0.02-0.48-0.03-0.72c0.08,0.01,0.18,0.02,0.3,0.03c0.12,0.01,0.24,0.01,0.38,0.01c0.13,0,0.26,0,0.38-0.01
			c0.12-0.01,0.22-0.02,0.3-0.03c-0.04,0.34-0.07,0.74-0.08,1.2c-0.01,0.45-0.02,0.97-0.02,1.55c0,0.4,0.06,0.7,0.19,0.88
			c0.13,0.19,0.31,0.28,0.54,0.28c0.27,0,0.47-0.12,0.59-0.37c0.13-0.25,0.19-0.59,0.19-1.03v-0.38c0-0.39,0-0.75-0.01-1.09
			s-0.03-0.68-0.06-1.03c0.17,0.03,0.39,0.05,0.67,0.05c0.14,0,0.26,0,0.38-0.01c0.11-0.01,0.21-0.02,0.3-0.03
			c-0.03,0.34-0.05,0.69-0.06,1.03s-0.01,0.71-0.01,1.09v0.38c0,0.39,0,0.76,0.01,1.1s0.03,0.68,0.06,0.99
			c-0.11-0.01-0.21-0.02-0.32-0.02h-0.32H244c-0.1,0-0.22,0.01-0.34,0.02l0.04-0.69h-0.02V190.49z"/>
		<path class="st0" d="M243.68,190.49c-0.17,0.27-0.36,0.47-0.59,0.61c-0.22,0.14-0.48,0.21-0.77,0.21c-0.45,0-0.79-0.13-1.03-0.4
			s-0.36-0.71-0.36-1.33c0-0.33,0.01-0.61,0.02-0.86c0.01-0.25,0.02-0.5,0.02-0.75c0-0.2,0-0.43-0.01-0.66
			c-0.01-0.24-0.02-0.48-0.03-0.72c0.08,0.01,0.18,0.02,0.3,0.03c0.12,0.01,0.24,0.01,0.38,0.01c0.13,0,0.26,0,0.38-0.01
			c0.12-0.01,0.22-0.02,0.3-0.03c-0.04,0.34-0.07,0.74-0.08,1.2c-0.01,0.45-0.02,0.97-0.02,1.55c0,0.4,0.06,0.7,0.19,0.88
			c0.13,0.19,0.31,0.28,0.54,0.28c0.27,0,0.47-0.12,0.59-0.37c0.13-0.25,0.19-0.59,0.19-1.03v-0.38c0-0.39,0-0.75-0.01-1.09
			s-0.03-0.68-0.06-1.03c0.17,0.03,0.39,0.05,0.67,0.05c0.14,0,0.26,0,0.38-0.01c0.11-0.01,0.21-0.02,0.3-0.03
			c-0.03,0.34-0.05,0.69-0.06,1.03s-0.01,0.71-0.01,1.09v0.38c0,0.39,0,0.76,0.01,1.1s0.03,0.68,0.06,0.99
			c-0.11-0.01-0.21-0.02-0.32-0.02h-0.32H244c-0.1,0-0.22,0.01-0.34,0.02l0.04-0.69h-0.02V190.49z"/>
		<path class="st0" d="M256.91,190.01c0.04,0.1,0.08,0.2,0.14,0.29c0.06,0.09,0.13,0.18,0.21,0.25s0.18,0.13,0.3,0.18
			s0.25,0.07,0.41,0.07c0.21,0,0.37-0.06,0.48-0.17c0.11-0.11,0.17-0.24,0.17-0.37c0-0.15-0.05-0.26-0.15-0.35s-0.23-0.17-0.38-0.24
			s-0.32-0.15-0.5-0.22c-0.18-0.08-0.34-0.17-0.5-0.29c-0.15-0.12-0.28-0.27-0.38-0.44c-0.1-0.18-0.15-0.41-0.15-0.69
			c0-0.27,0.05-0.5,0.14-0.69c0.09-0.19,0.21-0.35,0.36-0.48c0.15-0.12,0.32-0.22,0.51-0.28s0.37-0.09,0.56-0.09
			c0.25,0,0.47,0.04,0.67,0.11c0.19,0.08,0.39,0.19,0.6,0.33c-0.05,0.13-0.1,0.26-0.13,0.41c-0.04,0.15-0.06,0.29-0.08,0.43h-0.25
			c-0.02-0.08-0.05-0.16-0.09-0.25s-0.1-0.18-0.17-0.26c-0.07-0.08-0.16-0.15-0.26-0.21c-0.1-0.05-0.22-0.08-0.37-0.08
			c-0.18,0-0.33,0.05-0.45,0.15c-0.12,0.1-0.18,0.24-0.18,0.4c0,0.15,0.05,0.28,0.16,0.37c0.1,0.09,0.23,0.17,0.39,0.24
			s0.33,0.14,0.51,0.21c0.19,0.07,0.36,0.16,0.51,0.27c0.16,0.11,0.29,0.26,0.39,0.44s0.16,0.41,0.16,0.69s-0.05,0.52-0.14,0.72
			c-0.1,0.2-0.22,0.37-0.38,0.5s-0.34,0.22-0.55,0.28s-0.42,0.09-0.65,0.09c-0.27,0-0.51-0.04-0.73-0.12
			c-0.21-0.08-0.38-0.17-0.51-0.26c0.07-0.31,0.12-0.61,0.13-0.92h0.2L256.91,190.01L256.91,190.01z"/>
		<path class="st0" d="M256.91,190.01c0.04,0.1,0.08,0.2,0.14,0.29c0.06,0.09,0.13,0.18,0.21,0.25s0.18,0.13,0.3,0.18
			s0.25,0.07,0.41,0.07c0.21,0,0.37-0.06,0.48-0.17c0.11-0.11,0.17-0.24,0.17-0.37c0-0.15-0.05-0.26-0.15-0.35s-0.23-0.17-0.38-0.24
			s-0.32-0.15-0.5-0.22c-0.18-0.08-0.34-0.17-0.5-0.29c-0.15-0.12-0.28-0.27-0.38-0.44c-0.1-0.18-0.15-0.41-0.15-0.69
			c0-0.27,0.05-0.5,0.14-0.69c0.09-0.19,0.21-0.35,0.36-0.48c0.15-0.12,0.32-0.22,0.51-0.28s0.37-0.09,0.56-0.09
			c0.25,0,0.47,0.04,0.67,0.11c0.19,0.08,0.39,0.19,0.6,0.33c-0.05,0.13-0.1,0.26-0.13,0.41c-0.04,0.15-0.06,0.29-0.08,0.43h-0.25
			c-0.02-0.08-0.05-0.16-0.09-0.25s-0.1-0.18-0.17-0.26c-0.07-0.08-0.16-0.15-0.26-0.21c-0.1-0.05-0.22-0.08-0.37-0.08
			c-0.18,0-0.33,0.05-0.45,0.15c-0.12,0.1-0.18,0.24-0.18,0.4c0,0.15,0.05,0.28,0.16,0.37c0.1,0.09,0.23,0.17,0.39,0.24
			s0.33,0.14,0.51,0.21c0.19,0.07,0.36,0.16,0.51,0.27c0.16,0.11,0.29,0.26,0.39,0.44s0.16,0.41,0.16,0.69s-0.05,0.52-0.14,0.72
			c-0.1,0.2-0.22,0.37-0.38,0.5s-0.34,0.22-0.55,0.28s-0.42,0.09-0.65,0.09c-0.27,0-0.51-0.04-0.73-0.12
			c-0.21-0.08-0.38-0.17-0.51-0.26c0.07-0.31,0.12-0.61,0.13-0.92h0.2L256.91,190.01L256.91,190.01z"/>
		<path class="st0" d="M273.64,188.46c-0.01-0.48-0.07-0.86-0.17-1.15c-0.1-0.29-0.26-0.43-0.5-0.43c-0.13,0-0.24,0.05-0.33,0.14
			c-0.09,0.1-0.16,0.22-0.21,0.37s-0.09,0.32-0.12,0.51c-0.03,0.19-0.04,0.37-0.05,0.56H273.64z M272.27,188.89
			c0,0.25,0.02,0.49,0.07,0.72c0.05,0.22,0.12,0.42,0.22,0.58s0.22,0.29,0.38,0.38c0.15,0.09,0.33,0.14,0.53,0.14
			c0.41,0,0.78-0.14,1.1-0.43l0.11,0.09l-0.2,0.54c-0.15,0.12-0.33,0.22-0.54,0.29c-0.21,0.07-0.48,0.11-0.82,0.11
			c-0.29,0-0.57-0.04-0.83-0.13c-0.26-0.09-0.49-0.23-0.69-0.43c-0.2-0.2-0.36-0.45-0.47-0.75c-0.12-0.3-0.17-0.66-0.17-1.09
			c0-0.41,0.05-0.77,0.16-1.08c0.1-0.31,0.25-0.56,0.43-0.76c0.18-0.2,0.4-0.36,0.66-0.46c0.25-0.1,0.53-0.15,0.83-0.15
			c0.59,0,1.04,0.18,1.36,0.55c0.31,0.37,0.47,0.89,0.47,1.57v0.2c0,0.06,0,0.1-0.01,0.11L272.27,188.89L272.27,188.89z"/>
		<path class="st0" d="M273.64,188.46c-0.01-0.48-0.07-0.86-0.17-1.15c-0.1-0.29-0.26-0.43-0.5-0.43c-0.13,0-0.24,0.05-0.33,0.14
			c-0.09,0.1-0.16,0.22-0.21,0.37s-0.09,0.32-0.12,0.51c-0.03,0.19-0.04,0.37-0.05,0.56H273.64z M272.27,188.89
			c0,0.25,0.02,0.49,0.07,0.72c0.05,0.22,0.12,0.42,0.22,0.58s0.22,0.29,0.38,0.38c0.15,0.09,0.33,0.14,0.53,0.14
			c0.41,0,0.78-0.14,1.1-0.43l0.11,0.09l-0.2,0.54c-0.15,0.12-0.33,0.22-0.54,0.29c-0.21,0.07-0.48,0.11-0.82,0.11
			c-0.29,0-0.57-0.04-0.83-0.13c-0.26-0.09-0.49-0.23-0.69-0.43c-0.2-0.2-0.36-0.45-0.47-0.75c-0.12-0.3-0.17-0.66-0.17-1.09
			c0-0.41,0.05-0.77,0.16-1.08c0.1-0.31,0.25-0.56,0.43-0.76c0.18-0.2,0.4-0.36,0.66-0.46c0.25-0.1,0.53-0.15,0.83-0.15
			c0.59,0,1.04,0.18,1.36,0.55c0.31,0.37,0.47,0.89,0.47,1.57v0.2c0,0.06,0,0.1-0.01,0.11L272.27,188.89L272.27,188.89z"/>
	</g>
</g>
</svg>
