<?xml version="1.0" encoding="utf-8"?>
<!-- Generator: Adobe Illustrator 25.2.3, SVG Export Plug-In . SVG Version: 6.00 Build 0)  -->
<svg version="1.1" id="katman_2_1_" xmlns="http://www.w3.org/2000/svg" xmlns:xlink="http://www.w3.org/1999/xlink" x="0px"
	 y="0px" viewBox="0 0 283.5 283.5" style="enable-background:new 0 0 283.5 283.5;" xml:space="preserve">
<style type="text/css">
	.st0{fill:#AFAFAF;}
	.st1{fill:#FFFFFF;}
</style>
<g>
	<path class="st0" d="M8.1,85.5v112.4H67l0-0.1c0.7-0.1,1.5-0.2,2.2-0.4c4.3-1.1,8.9-4.8,11-9.9c1.8-4.4,1.8-9.1-0.4-13.3
		c-2.6-4.7-7.8-7.2-12.2-5.6c-3.4,1.3-5.8,5.6-4,8.6c2.2,3.7,5.7,0.1,7.9,2.4c1.2,1.2,0.9,3.4-0.5,4.9c-2.8,3.1-6.8,3-9.8,1.5
		c-3.5-1.7-6.5-5.7-7.2-9.1c-0.7-3.1-0.1-6.9,1.6-10.2c1.9-3.7,5.2-6.6,8.8-8.1c6.7-2.8,13.6-1,19.8,4.5c3.4,3.1,5.5,6.6,6.7,10
		l0,0.1V85.5H8.1z"/>
	<path class="st1" d="M21.6,97.2h4.9c6.5,0,10.4,4,10.4,9.9c0,5.8-3.9,9.9-10.4,9.9h-4.9V97.2z M26.4,115.2c5.8,0,8.6-3.4,8.6-8.2
		c0-4.8-2.8-8.1-8.6-8.1h-2.9v16.3H26.4z"/>
	<polygon class="st1" points="44.8,97.2 56.7,97.2 56.7,98.9 46.7,98.9 46.7,108.8 55.6,108.8 55.6,110.4 46.7,110.4 46.7,115.3 
		57.1,115.3 57.1,116.9 44.8,116.9 	"/>
	<path class="st1" d="M65.3,110.2v-13h1.9v12.9c0,3.6,2,5.4,5.1,5.4c3.1,0,5.1-1.8,5.1-5.4V97.2h1.9v13c0,4.6-3,6.9-7,6.9
		C68.3,117.2,65.3,114.8,65.3,110.2z M69.3,98.2c0-0.6,0.6-1.1,1.1-1.1c0.6,0,1.1,0.5,1.1,1.1c0,0.6-0.5,1.1-1.1,1.1
		C69.8,99.3,69.3,98.8,69.3,98.2z M73,98.2c0-0.6,0.5-1.1,1.1-1.1c0.6,0,1.1,0.5,1.1,1.1c0,0.6-0.6,1.1-1.1,1.1
		C73.6,99.3,73,98.8,73,98.2z"/>
	<path class="st1" d="M18.5,133.9c0-5.8,4.5-10.1,10.2-10.1c3.5,0,6.2,1.2,8,4.1l-3.2,2.3c-1-1.7-2.6-2.7-4.8-2.7
		c-3.6,0-6,2.8-6,6.4c0,3.7,2.4,6.5,6.1,6.5c3,0,5-1.7,5.5-3.7h-4.9v-3.5h9.2c0.3,6.5-3.1,10.8-9.7,10.8
		C22.8,144,18.5,139.7,18.5,133.9z"/>
	<path class="st1" d="M44.3,139.8l3.3-1.9c0.9,1.4,2,2.5,4,2.5c1.7,0,2.8-0.8,2.8-2c0-1.4-1.1-1.9-3-2.7l-1-0.4
		c-2.9-1.2-4.9-2.8-4.9-6.1c0-3,2.3-5.4,5.9-5.4c2.6,0,4.4,0.9,5.8,3.2l-3.2,2c-0.7-1.2-1.5-1.7-2.6-1.7c-1.2,0-1.9,0.8-1.9,1.7
		c0,1.2,0.8,1.7,2.5,2.5l1,0.4c3.5,1.5,5.4,3,5.4,6.4c0,3.7-2.9,5.7-6.7,5.7C47.9,144,45.5,142.2,44.3,139.8z"/>
	<polygon class="st1" points="66.3,124 79,124 79,127.6 70.4,127.6 70.4,134.1 78.2,134.1 78.2,137.7 70.4,137.7 70.4,143.7 
		66.3,143.7 	"/>
	<path class="st0" d="M95.5,86.2h2.6c3.5,0,5.6,2.2,5.6,5.3c0,3.1-2.1,5.3-5.6,5.3h-2.6V86.2z M98.1,95.9c3.1,0,4.6-1.8,4.6-4.4
		c0-2.6-1.5-4.4-4.6-4.4h-1.5v8.7H98.1z"/>
	<path class="st0" d="M109.8,91.5c0-3.1,2.4-5.4,5.4-5.4c3,0,5.4,2.3,5.4,5.4c0,3.1-2.4,5.4-5.4,5.4
		C112.2,96.9,109.8,94.6,109.8,91.5z M119.6,91.5c0-2.6-1.8-4.5-4.4-4.5c-2.5,0-4.4,1.9-4.4,4.5c0,2.6,1.8,4.5,4.4,4.5
		C117.7,96,119.6,94.1,119.6,91.5z"/>
	<polygon class="st0" points="133.1,86.2 134.3,86.2 129.4,92.6 134.4,96.8 132.9,96.8 128.3,93 128.3,96.8 127.3,96.8 127.3,86.2 
		128.3,86.2 128.3,92.5 	"/>
	<path class="st0" d="M140.6,93.2v-7h1v6.9c0,1.9,1.1,2.9,2.7,2.9c1.7,0,2.7-1,2.7-2.9v-6.9h1v7c0,2.4-1.6,3.7-3.7,3.7
		C142.2,96.9,140.6,95.6,140.6,93.2z"/>
	<polygon class="st0" points="154.3,96.7 160.5,87.1 155.1,87.1 155.1,86.2 162.1,86.2 162.1,86.3 156,95.9 162.1,95.9 162.1,96.8 
		154.3,96.8 	"/>
	<polygon class="st0" points="176.3,86.2 182.6,86.2 182.6,87.1 177.3,87.1 177.3,92.4 182.1,92.4 182.1,93.3 177.3,93.3 
		177.3,95.9 182.9,95.9 182.9,96.8 176.3,96.8 	"/>
	<polygon class="st0" points="188.7,86.2 189.8,86.2 193.2,92.5 196.6,86.2 197.6,86.2 193.7,93.5 193.7,96.8 192.7,96.8 
		192.7,93.5 	"/>
	<polygon class="st0" points="204.1,86.2 205.1,86.2 205.1,95.9 210,95.9 210,96.8 204.1,96.8 	"/>
	<path class="st0" d="M216,93.2v-7h1v6.9c0,1.9,1.1,2.9,2.7,2.9c1.7,0,2.7-1,2.7-2.9v-6.9h1v7c0,2.4-1.6,3.7-3.7,3.7
		C217.6,96.9,216,95.6,216,93.2z M218.1,86.8c0-0.3,0.3-0.6,0.6-0.6c0.3,0,0.6,0.3,0.6,0.6c0,0.3-0.3,0.6-0.6,0.6
		C218.4,87.4,218.1,87.1,218.1,86.8z M220.2,86.8c0-0.3,0.3-0.6,0.6-0.6c0.3,0,0.6,0.3,0.6,0.6c0,0.3-0.3,0.6-0.6,0.6
		C220.4,87.4,220.2,87.1,220.2,86.8z"/>
	<polygon class="st0" points="230.8,86.2 231.8,86.2 231.8,95.9 236.7,95.9 236.7,96.8 230.8,96.8 	"/>
	<path class="st0" d="M95,111.1v-7h1v6.9c0,1.9,1.1,2.9,2.7,2.9c1.7,0,2.7-1,2.7-2.9v-6.9h1v7c0,2.4-1.6,3.7-3.7,3.7
		C96.6,114.8,95,113.5,95,111.1z M97.1,104.6c0-0.3,0.3-0.6,0.6-0.6c0.3,0,0.6,0.3,0.6,0.6c0,0.3-0.3,0.6-0.6,0.6
		C97.4,105.2,97.1,105,97.1,104.6z M99.1,104.6c0-0.3,0.3-0.6,0.6-0.6c0.3,0,0.6,0.3,0.6,0.6c0,0.3-0.3,0.6-0.6,0.6
		C99.4,105.2,99.1,105,99.1,104.6z"/>
	<polygon class="st0" points="110.7,106.4 110.7,114.7 109.7,114.7 109.7,103.9 109.8,103.9 116.9,112.4 116.9,104.1 117.9,104.1 
		117.9,114.9 117.8,114.9 	"/>
	<path class="st0" d="M125.2,102.5c0-0.3,0.3-0.6,0.6-0.6c0.3,0,0.6,0.3,0.6,0.6c0,0.3-0.3,0.6-0.6,0.6
		C125.5,103.2,125.2,102.9,125.2,102.5z M125.3,104.1h1v10.5h-1V104.1z"/>
	<polygon class="st0" points="132.9,104.1 134,104.1 137.4,112.6 140.9,104.1 141.9,104.1 137.4,114.9 137.4,114.9 	"/>
	<polygon class="st0" points="148.4,104.1 154.8,104.1 154.8,105 149.4,105 149.4,110.3 154.2,110.3 154.2,111.2 149.4,111.2 
		149.4,113.8 155,113.8 155,114.7 148.4,114.7 	"/>
	<path class="st0" d="M168.3,114.7h-1.2L165,112c-0.3,0-0.6,0.1-0.9,0.1h-1.3v2.6h-1v-10.5h2.3c2.9,0,4.4,1.7,4.4,4
		c0,1.7-0.8,3.1-2.5,3.6L168.3,114.7z M164.1,111.1c2.4,0,3.4-1.3,3.4-3.1c0-1.8-1-3.1-3.4-3.1h-1.2v6.1H164.1z"/>
	<path class="st0" d="M175.2,112.2c0.6,1.1,1.5,1.7,2.8,1.7c1.4,0,2.3-0.7,2.3-1.8c0-1.2-0.7-1.7-2-2.3l-0.9-0.4
		c-1.5-0.7-2.4-1.4-2.4-2.9c0-1.5,1.2-2.5,2.7-2.5c1.3,0,2.2,0.5,2.9,1.5l-0.8,0.5c-0.5-0.8-1.1-1.2-2.1-1.2c-1,0-1.7,0.7-1.7,1.6
		c0,1,0.6,1.4,1.9,2l0.9,0.4c1.7,0.8,2.6,1.6,2.6,3.2c0,1.7-1.3,2.8-3.3,2.8c-1.7,0-2.9-0.8-3.6-2.1L175.2,112.2z"/>
	<path class="st0" d="M188.1,102.5c0-0.3,0.3-0.6,0.6-0.6c0.3,0,0.6,0.3,0.6,0.6c0,0.3-0.3,0.6-0.6,0.6
		C188.4,103.2,188.1,102.9,188.1,102.5z M188.2,104.1h1v10.5h-1V104.1z"/>
	<polygon class="st0" points="199,105 195.7,105 195.7,104.1 203.2,104.1 203.2,105 200,105 200,114.7 199,114.7 	"/>
	<polygon class="st0" points="209.7,104.1 216,104.1 216,105 210.7,105 210.7,110.3 215.5,110.3 215.5,111.2 210.7,111.2 
		210.7,113.8 216.3,113.8 216.3,114.7 209.7,114.7 	"/>
	<path class="st0" d="M223.2,112.2c0.6,1.1,1.5,1.7,2.8,1.7c1.4,0,2.3-0.7,2.3-1.8c0-1.2-0.7-1.7-2-2.3l-0.9-0.4
		c-1.5-0.7-2.4-1.4-2.4-2.9c0-1.5,1.2-2.5,2.7-2.5c1.3,0,2.2,0.5,2.9,1.5l-0.8,0.5c-0.5-0.8-1.1-1.2-2.1-1.2c-1,0-1.7,0.7-1.7,1.6
		c0,1,0.6,1.4,1.9,2l0.9,0.4c1.7,0.8,2.6,1.6,2.6,3.2c0,1.7-1.3,2.8-3.3,2.8c-1.7,0-2.9-0.8-3.6-2.1L223.2,112.2z"/>
	<path class="st0" d="M236.1,102.5c0-0.3,0.3-0.6,0.6-0.6c0.3,0,0.6,0.3,0.6,0.6c0,0.3-0.3,0.6-0.6,0.6
		C236.4,103.2,236.1,102.9,236.1,102.5z M236.1,104.1h1v10.5h-1V104.1z"/>
	<path class="st0" d="M103.1,129.9H101v-2.2h4.6v4.4c-1,0.8-2.3,1.5-4.6,1.5c-3.1,0-5.7-2.2-5.7-5.4c0-3.2,2.6-5.4,5.6-5.4
		c1.9,0,3.3,0.7,4.3,1.9l-2,1.7c-0.5-0.7-1.3-1.1-2.3-1.1c-1.7,0-2.7,1.3-2.7,3c0,1.7,1,3.1,2.8,3.1c1,0,1.6-0.2,2.1-0.4V129.9z"/>
	<path class="st0" d="M110.8,129.4v-6.5h2.8v6.5c0,1.2,0.6,1.9,1.8,1.9c1.2,0,1.8-0.7,1.8-1.9v-6.5h2.8v6.5c0,2.9-1.9,4.3-4.6,4.3
		C112.7,133.7,110.8,132.3,110.8,129.4z M112.6,121.1c0-0.7,0.6-1.2,1.2-1.2c0.7,0,1.2,0.5,1.2,1.2c0,0.7-0.6,1.2-1.2,1.2
		C113.2,122.3,112.6,121.8,112.6,121.1z M115.6,121.1c0-0.7,0.6-1.2,1.2-1.2c0.7,0,1.2,0.5,1.2,1.2c0,0.7-0.6,1.2-1.2,1.2
		C116.2,122.3,115.6,121.8,115.6,121.1z"/>
	<path class="st0" d="M124.5,133.4l4.7-8.1h-3.9v-2.4h8.2c0.1,0,0.1,0,0,0.2l-4.7,8.1h4.3v2.4h-8.7
		C124.4,133.5,124.4,133.5,124.5,133.4z"/>
	<polygon class="st0" points="138.6,122.9 146.1,122.9 146.1,125.3 141.5,125.3 141.5,127.8 145.3,127.8 145.3,130 141.5,130 
		141.5,131.1 146.3,131.1 146.3,133.5 138.6,133.5 	"/>
	<polygon class="st0" points="151.5,122.9 154.3,122.9 154.3,131.1 158.8,131.1 158.8,133.5 151.5,133.5 	"/>
	<path class="st0" d="M170.7,131.7l2.1-1.5c0.5,0.6,1.2,1.2,2.2,1.2c0.8,0,1.3-0.3,1.3-0.8c0-0.5-0.3-0.7-1-0.9l-1.2-0.4
		c-1.5-0.5-2.6-1.4-2.6-3.2c0-2.1,1.7-3.2,3.6-3.2c1.9,0,2.9,0.7,3.5,1.4l-1.6,1.7c-0.4-0.5-0.9-0.8-1.7-0.8c-0.7,0-1,0.3-1,0.7
		c0,0.4,0.2,0.6,0.7,0.8l1.4,0.5c2.1,0.7,2.8,1.7,2.8,3.2c0,1.9-1.2,3.4-4,3.4C172.8,133.7,171.4,132.6,170.7,131.7z"/>
	<path class="st0" d="M186.1,133.5h-2.8l5.2-10.8c0-0.1,0.1-0.1,0.2,0l5.1,10.8h-2.9l-0.4-0.9h-4L186.1,133.5z M188.4,128l-1.1,2.5
		h2.2L188.4,128z"/>
	<path class="st0" d="M201.3,128.2v5.3h-2.7v-10.7c0-0.1,0-0.2,0.2,0l6.7,5.5v-5.3h2.7v10.8c0,0.1,0,0.2-0.2,0L201.3,128.2z"/>
	<path class="st0" d="M215.8,133.5H213l5.2-10.8c0-0.1,0.1-0.1,0.2,0l5.1,10.8h-2.9l-0.4-0.9h-4L215.8,133.5z M218.1,128l-1.1,2.5
		h2.2L218.1,128z"/>
	<polygon class="st0" points="229,125.3 226.2,125.3 226.2,122.9 234.6,122.9 234.6,125.3 231.8,125.3 231.8,133.5 229,133.5 	"/>
	<polygon class="st0" points="239.7,122.9 242.6,122.9 242.6,131.1 247.1,131.1 247.1,133.5 239.7,133.5 	"/>
	<path class="st0" d="M254.3,133.5h-2.8l5.2-10.8c0-0.1,0.1-0.1,0.2,0l5.1,10.8h-2.9l-0.4-0.9h-4L254.3,133.5z M256.7,128l-1.1,2.5
		h2.2L256.7,128z"/>
	<path class="st0" d="M275.3,133.5h-3.1l-1.5-2.4h-1.1v2.4h-2.8v-10.6h4c2.9,0,4.5,1.8,4.5,4.2c0,1.5-0.7,2.7-1.9,3.4L275.3,133.5z
		 M270.7,128.8c1.3,0,1.7-0.7,1.7-1.7c0-1-0.5-1.8-1.7-1.8h-1v3.5H270.7z"/>
	<polygon class="st0" points="97,143 104.2,143 104.2,145.4 99.8,145.4 99.8,147.8 103.7,147.8 103.7,150.2 99.8,150.2 99.8,153.6 
		97,153.6 	"/>
	<path class="st0" d="M110.2,153.6h-2.8l5.2-10.8c0-0.1,0.1-0.1,0.2,0l5.1,10.8H115l-0.4-0.9h-4L110.2,153.6z M112.6,148.1l-1.1,2.5
		h2.1L112.6,148.1z"/>
	<polygon class="st0" points="128.9,143 132,143 127.8,148.9 132.2,153.6 128.6,153.6 125.6,150.4 125.6,153.6 122.8,153.6 
		122.8,143 125.6,143 125.6,147.8 	"/>
	<path class="st0" d="M136.7,149.5V143h2.8v6.5c0,1.2,0.6,1.9,1.8,1.9c1.2,0,1.8-0.7,1.8-1.9V143h2.8v6.5c0,2.9-2,4.3-4.6,4.3
		C138.7,153.7,136.7,152.3,136.7,149.5z M138.6,141.2c0-0.7,0.6-1.2,1.2-1.2c0.7,0,1.2,0.5,1.2,1.2c0,0.7-0.6,1.2-1.2,1.2
		C139.2,142.4,138.6,141.9,138.6,141.2z M141.6,141.2c0-0.7,0.6-1.2,1.2-1.2c0.7,0,1.2,0.5,1.2,1.2c0,0.7-0.6,1.2-1.2,1.2
		C142.2,142.4,141.6,141.9,141.6,141.2z"/>
	<polygon class="st0" points="151.5,143 154.4,143 154.4,151.2 158.9,151.2 158.9,153.6 151.5,153.6 	"/>
	<polygon class="st0" points="164.7,145.4 161.9,145.4 161.9,143 170.3,143 170.3,145.4 167.5,145.4 167.5,153.6 164.7,153.6 	"/>
	<polygon class="st0" points="175.5,143 182.9,143 182.9,145.4 178.3,145.4 178.3,147.8 182.1,147.8 182.1,150.1 178.3,150.1 
		178.3,151.2 183.1,151.2 183.1,153.6 175.5,153.6 	"/>
	<path class="st0" d="M187.5,151.8l2.1-1.5c0.5,0.6,1.2,1.2,2.2,1.2c0.8,0,1.3-0.3,1.3-0.8c0-0.5-0.3-0.7-1-0.9l-1.2-0.4
		c-1.5-0.5-2.6-1.4-2.6-3.2c0-2.1,1.7-3.2,3.6-3.2c1.9,0,2.9,0.7,3.5,1.4l-1.6,1.7c-0.4-0.5-0.9-0.8-1.7-0.8c-0.7,0-1,0.3-1,0.7
		c0,0.4,0.2,0.6,0.7,0.8l1.4,0.5c2.1,0.7,2.8,1.7,2.8,3.2c0,1.9-1.2,3.4-4,3.4C189.5,153.7,188.1,152.6,187.5,151.8z"/>
	<path class="st0" d="M201.1,143h2.8v10.6h-2.8V143z M201.3,141.2c0-0.7,0.6-1.2,1.2-1.2c0.7,0,1.2,0.5,1.2,1.2
		c0,0.7-0.6,1.2-1.2,1.2C201.9,142.4,201.3,141.9,201.3,141.2z"/>
</g>
</svg>
