<svg width="150" height="150" viewBox="0 0 150 150" fill="none" xmlns="http://www.w3.org/2000/svg">
<path d="M73.066 31.2169C72.6589 31.9571 72.3258 32.4383 72.1408 32.9564C71.6226 34.3628 72.0298 35.066 73.5102 35.251C74.2874 35.325 75.0646 35.325 75.8048 35.288C80.209 34.9549 84.6502 34.5478 89.0544 34.2518C91.5711 34.0667 91.8302 34.3998 90.7199 36.6574C87.7221 42.579 84.7612 48.5007 81.5044 54.2372C76.582 63.0086 71.3636 71.669 66.3672 80.4034C65.2569 82.3649 64.2946 84.4745 63.4804 86.5841C62.8512 88.1755 63.2584 89.2488 64.8868 89.804C66.4412 90.3591 68.1067 90.8033 69.7351 90.7662C73.2141 90.6922 76.693 90.2851 80.172 89.989C80.5421 89.952 80.9122 89.73 81.2823 89.5819C81.2823 89.4709 81.2453 89.3599 81.2453 89.2118C80.7641 89.1378 80.246 89.0638 79.7649 88.9898C78.0624 88.7677 76.3599 88.7307 74.6945 88.3236C72.2518 87.7314 71.1785 85.9919 71.7337 83.5493C72.0668 82.1429 72.5109 80.6995 73.2511 79.4411C81.5414 64.7481 89.9057 50.1291 98.2699 35.4361C99.0842 33.9927 100.343 33.1044 101.971 32.9934C104.192 32.8084 106.449 32.5123 108.633 32.7343C116.072 33.4745 118.514 36.6944 118.07 43.2822C118.033 43.6523 117.996 44.0224 117.959 44.3555C116.368 54.9034 106.745 63.5268 96.0863 63.8969C94.0138 63.9709 91.9042 63.5268 89.7946 63.3787C89.4985 63.3417 89.1655 63.5268 88.8324 63.6008C89.0544 63.8599 89.2025 64.193 89.4985 64.341C89.8686 64.5631 90.3498 64.6741 90.7569 64.7481C97.1226 65.7844 103.266 64.9332 109.077 62.1944C115.85 59.0485 121.179 54.3483 123.585 47.0573C125.398 41.5798 123.807 36.4724 118.403 33.5856C115.702 32.1422 112.704 31.513 109.706 31.55C105.598 31.587 101.527 31.9201 97.4187 32.2902C90.4978 32.8824 83.5769 33.5856 76.619 33.0674C75.3237 32.9194 73.9173 32.8824 73.066 31.2169ZM36.2409 97.095C36.2039 96.9469 36.1669 96.8359 36.1299 96.6879C36.574 96.3918 36.9811 96.0217 37.4623 95.7626C42.2736 92.9498 46.1597 89.2118 48.9724 84.4375C53.3766 76.8874 57.7068 69.3004 62.074 61.7503C65.1829 56.3098 68.4028 50.9803 72.2148 45.947C74.1393 43.3933 76.434 42.579 79.4318 43.0602C79.8019 43.1342 80.135 43.1712 80.5051 43.2822C81.0602 43.3933 81.6154 43.4673 81.7264 42.7271C81.8374 41.9499 81.3563 41.7278 80.6901 41.7648C75.9528 41.8758 71.2896 42.431 66.8483 44.2445C66.1081 44.5406 65.4049 45.2068 64.9978 45.8729C59.4093 55.8287 53.9688 65.8584 48.3063 75.7771C44.9753 81.5877 41.4964 87.3243 37.8324 92.9498C35.5378 96.5028 32.0958 98.4273 27.7286 98.2793C27.3215 98.2793 26.8774 98.2423 26.5073 98.3533C26.1002 98.5014 25.7671 98.7975 25.397 99.0565C25.7671 99.5006 26.0632 100.019 26.5073 100.352C26.7293 100.5 27.2105 100.315 27.5436 100.241C30.4674 99.7227 33.3542 99.0565 36.315 98.7234C44.6422 97.7982 53.0436 97.6871 61.4078 97.8722C64.3687 97.9462 67.3295 98.1683 70.2903 98.5384C72.2518 98.7974 74.1763 99.3896 76.0639 99.9078C76.471 100.019 76.73 100.611 77.0631 100.981C76.656 101.203 76.2859 101.499 75.8788 101.61C74.9165 101.832 73.9173 101.832 72.992 102.091C71.3266 102.535 69.6611 103.054 67.9956 103.609C67.6996 103.72 67.3295 104.238 67.4035 104.534C67.4405 104.83 67.9216 105.126 68.2547 105.237C68.7359 105.385 69.291 105.385 69.8091 105.459C70.5864 105.57 71.3636 105.681 72.3258 105.792C71.1415 106.607 70.1052 107.199 69.217 107.902C68.4768 108.494 67.9216 109.419 68.5878 110.234C69.5501 111.418 69.0319 112.38 68.4398 113.379C67.9216 114.268 67.3665 115.082 66.8853 116.007C66.4412 116.858 66.1081 117.747 65.701 118.635C65.8121 118.672 65.9231 118.746 66.0341 118.783C67.3295 117.08 68.5878 115.341 69.8832 113.639C70.0682 113.416 70.1422 113.12 70.3273 112.898C70.8454 112.195 70.7714 111.492 70.4383 110.715C69.7351 109.123 69.8091 108.901 71.2896 108.013C71.6226 107.791 72.0668 107.717 72.3628 107.421C72.844 106.903 73.2511 106.274 73.6952 105.718C73.103 105.311 72.5109 104.83 71.8447 104.534C71.3636 104.312 70.7344 104.349 70.2163 104.275C70.2163 104.164 70.2163 104.053 70.2163 103.905C71.4006 103.683 72.5479 103.35 73.7692 103.239C77.3962 102.832 77.8403 102.461 78.8396 99.0195C79.5798 96.3918 78.9877 95.4295 76.2859 95.2445C73.6582 95.0594 70.9935 94.8374 68.3658 94.9854C58.299 95.6146 48.2692 96.3918 38.2025 97.095C37.5733 97.132 36.9071 97.095 36.2409 97.095Z" fill="#AFAFAF"/>
<path d="M73.066 31.2169C73.9172 32.9194 75.3236 32.9194 76.656 33.0304C83.6139 33.5486 90.5348 32.8824 97.4557 32.2532C101.527 31.8831 105.635 31.55 109.743 31.513C112.741 31.476 115.739 32.1052 118.44 33.5486C123.844 36.4353 125.435 41.5798 123.622 47.0202C121.216 54.3112 115.887 59.0115 109.114 62.1574C103.303 64.8591 97.1596 65.7474 90.7938 64.7111C90.3497 64.6371 89.9056 64.526 89.5355 64.304C89.2764 64.1559 89.0914 63.8229 88.8693 63.5638C89.2024 63.4898 89.4985 63.3047 89.8316 63.3417C91.9412 63.5268 94.0507 63.9339 96.1233 63.8599C106.819 63.4898 116.405 54.8664 117.996 44.3185C118.033 43.9484 118.07 43.5783 118.107 43.2452C118.551 36.6574 116.109 33.4375 108.67 32.6973C106.486 32.4753 104.229 32.8084 102.008 32.9564C100.379 33.1044 99.1211 33.9557 98.3069 35.3991C89.9796 50.0551 81.6153 64.7111 73.288 79.4041C72.5848 80.6625 72.1037 82.1059 71.7706 83.5123C71.2155 85.9549 72.2518 87.6944 74.7314 88.2866C76.3599 88.6937 78.0994 88.7307 79.8018 88.9527C80.283 89.0268 80.8011 89.1008 81.2822 89.1748C81.2822 89.2858 81.3192 89.3969 81.3192 89.5449C80.9491 89.6929 80.579 89.915 80.2089 89.952C76.73 90.2481 73.251 90.6552 69.7721 90.7292C68.1436 90.7662 66.4782 90.3221 64.9237 89.767C63.2953 89.1748 62.8882 88.1385 63.5174 86.5471C64.3316 84.4375 65.2938 82.3279 66.4042 80.3664C71.4005 71.632 76.5819 62.9716 81.5413 54.2002C84.7982 48.4266 87.759 42.505 90.7568 36.6204C91.9041 34.3628 91.6081 34.0297 89.0914 34.2147C84.6872 34.5108 80.2459 34.9179 75.8417 35.251C75.0645 35.325 74.2873 35.325 73.5471 35.214C72.0667 35.029 71.6596 34.3258 72.1777 32.9194C72.3258 32.4383 72.6589 31.9571 73.066 31.2169Z" fill="#AFAFAF"/>
<path d="M36.241 97.095C36.9072 97.095 37.5734 97.132 38.2396 97.095C48.3063 96.3918 58.3361 95.6146 68.4029 94.9854C71.0306 94.8374 73.6953 95.0595 76.323 95.2445C79.0248 95.4296 79.6169 96.3918 78.8767 99.0195C77.9145 102.461 77.4333 102.795 73.8063 103.239C72.622 103.387 71.4377 103.683 70.2534 103.905C70.2534 104.016 70.2534 104.127 70.2534 104.275C70.8085 104.349 71.4007 104.312 71.8818 104.534C72.548 104.83 73.1031 105.311 73.7323 105.718C73.2882 106.311 72.9181 106.903 72.4 107.421C72.1409 107.717 71.6968 107.791 71.3267 108.013C69.8463 108.901 69.7722 109.16 70.4754 110.715C70.8085 111.455 70.9195 112.195 70.3644 112.898C70.1793 113.12 70.1053 113.416 69.9203 113.639C68.6619 115.341 67.3666 117.08 66.0712 118.783C65.9602 118.746 65.8492 118.672 65.7381 118.635C66.1082 117.747 66.4783 116.858 66.9225 116.007C67.4036 115.119 67.9587 114.268 68.4769 113.379C69.069 112.343 69.5872 111.418 68.6249 110.234C67.9587 109.419 68.5139 108.494 69.2541 107.902C70.1423 107.199 71.1416 106.607 72.3629 105.792C71.4007 105.644 70.6235 105.533 69.8463 105.459C69.3281 105.385 68.773 105.385 68.2918 105.237C67.9587 105.126 67.4776 104.793 67.4406 104.534C67.4036 104.275 67.7367 103.72 68.0328 103.609C69.6612 103.054 71.3267 102.536 73.0291 102.091C73.9544 101.832 74.9537 101.832 75.9159 101.61C76.323 101.499 76.6931 101.203 77.1002 100.981C76.7671 100.611 76.5081 100.019 76.101 99.9078C74.1764 99.3526 72.2889 98.7605 70.3274 98.5384C67.4036 98.1683 64.4058 97.9463 61.445 97.8722C53.0807 97.6872 44.6794 97.7982 36.3521 98.7235C33.4283 99.0566 30.5045 99.7227 27.5807 100.241C27.2106 100.315 26.7294 100.5 26.5444 100.352C26.1003 100.019 25.8042 99.5007 25.4341 99.0566C25.8042 98.8345 26.1373 98.5014 26.5444 98.3534C26.9145 98.2423 27.3586 98.2793 27.7657 98.2793C32.1329 98.4274 35.5749 96.5029 37.8695 92.9499C41.4965 87.3243 45.0124 81.6248 48.3434 75.7772C53.9689 65.8214 59.4094 55.7917 64.9979 45.836C65.368 45.1698 66.1082 44.5036 66.8484 44.2075C71.2896 42.394 75.9529 41.8389 80.6902 41.7278C81.3564 41.7278 81.8375 41.9129 81.7265 42.6901C81.6155 43.4303 81.0603 43.3933 80.5052 43.2453C80.1351 43.1712 79.802 43.0972 79.4319 43.0232C76.4711 42.5421 74.1394 43.3563 72.2149 45.91C68.4399 50.9064 65.22 56.2728 62.0741 61.7133C57.7069 69.3004 53.3767 76.8875 48.9725 84.4005C46.1598 89.2119 42.2737 92.9499 37.4624 95.7256C36.9812 95.9847 36.5741 96.3548 36.13 96.6509C36.167 96.8359 36.204 96.947 36.241 97.095Z" fill="#AFAFAF"/>
</svg>
