<svg class="animated" id="freepik_stories-selfie" xmlns="http://www.w3.org/2000/svg" xmlns:xlink="http://www.w3.org/1999/xlink" viewBox="0 0 500 500" version="1.1" xmlns:svgjs="http://svgjs.com/svgjs"><style>svg#freepik_stories-selfie:not(.animated) .animable {opacity: 0;}svg#freepik_stories-selfie.animated #freepik--Clouds--inject-10 {animation: 6s Infinite  linear shake;animation-delay: 0s;}            @keyframes shake {                10%, 90% {                    transform: translate3d(-1px, 0, 0);                  }                  20%, 80% {                    transform: translate3d(2px, 0, 0);                  }                  30%, 50%, 70% {                    transform: translate3d(-4px, 0, 0);                  }                  40%, 60% {                    transform: translate3d(4px, 0, 0);                  }            }        </style><g id="freepik--background-simple--inject-10" class="animable" style="transform-origin: 248.191px 239.4px;"><path d="M340.25,376.18C420.53,356.57,453.13,264,427.19,182.63c-6.6-20.74-17-40.19-31.23-55.71-22.39-24.41-55.31-33.34-86.09-33.9-24.58-.45-48.28,7.55-70.8,17.68-36.46,16.39-75.57,21.27-112,36.86C90.12,163.36,66.46,198,61.38,241.31c-2.6,22.16.19,45.18,9.1,65.37,13.81,31.28,41.32,49.9,70.72,60C203.58,388.23,276.32,391.8,340.25,376.18Z" style="fill: rgb(229, 36, 33); transform-origin: 248.191px 239.4px;" id="eljeyiyruzo27" class="animable"></path><g id="el3tc3ez4khyl"><path d="M340.25,376.18C420.53,356.57,453.13,264,427.19,182.63c-6.6-20.74-17-40.19-31.23-55.71-22.39-24.41-55.31-33.34-86.09-33.9-24.58-.45-48.28,7.55-70.8,17.68-36.46,16.39-75.57,21.27-112,36.86C90.12,163.36,66.46,198,61.38,241.31c-2.6,22.16.19,45.18,9.1,65.37,13.81,31.28,41.32,49.9,70.72,60C203.58,388.23,276.32,391.8,340.25,376.18Z" style="fill: rgb(255, 255, 255); opacity: 0.7; transform-origin: 248.191px 239.4px;" class="animable"></path></g></g><g id="freepik--Clouds--inject-10" class="animable" style="transform-origin: 254.121px 143.061px;"><path d="M415.09,156.88c-3-1.63-4.35-.27-5.44-1.63s3-4.9-5.17-8.44c0,0-.54-7.61-11.7-7.89s-8.16,7.62-11.15,9.53-3.81-1.09-6.8.81-1.64,5.71-4.08,6.26S365,153.07,362,155s-3,3.54-4.35,3.54-4.08-1.09-5.71,0-3.54,2.45-3.54,2.45h68.83S418.08,158.51,415.09,156.88Z" style="fill: rgb(255, 255, 255); transform-origin: 382.871px 149.951px;" id="elw887fft0oz" class="animable"></path><path d="M372.63,179.54c-1.59-.87-2.31-.15-2.88-.87s1.58-2.59-2.74-4.47c0,0-.29-4-6.2-4.17s-4.32,4-5.9,5-2-.58-3.6.43-.87,3-2.17,3.31-3-1.29-4.61-.28-1.58,1.87-2.3,1.87-2.16-.58-3,0-1.87,1.3-1.87,1.3h36.45A1.86,1.86,0,0,0,372.63,179.54Z" style="fill: rgb(255, 255, 255); transform-origin: 355.604px 175.842px;" id="ell50vhq3q3w" class="animable"></path><path d="M126.17,177.86c-1.58-.86-2.31-.14-2.88-.86s1.58-2.59-2.74-4.47c0,0-.29-4-6.19-4.17s-4.33,4-5.91,5-2-.58-3.6.43-.87,3-2.16,3.31-3-1.29-4.61-.28-1.59,1.87-2.31,1.87-2.16-.58-3,0-1.87,1.3-1.87,1.3h36.45A1.87,1.87,0,0,0,126.17,177.86Z" style="fill: rgb(255, 255, 255); transform-origin: 109.144px 174.172px;" id="elemepvs4jxh9" class="animable"></path><path d="M295.74,129.53c-4.18-2.28-6.08-.38-7.6-2.28s4.18-6.84-7.22-11.78c0,0-.76-10.64-16.34-11s-11.4,10.64-15.58,13.3-5.32-1.52-9.5,1.14-2.28,8-5.7,8.74-8-3.42-12.16-.76-4.18,4.94-6.08,4.94-5.7-1.52-8,0-4.94,3.42-4.94,3.42h96.14S299.92,131.81,295.74,129.53Z" style="fill: rgb(255, 255, 255); transform-origin: 250.764px 119.856px;" id="el7p5fviajr3v" class="animable"></path></g><g id="freepik--Buildings--inject-10" class="animable" style="transform-origin: 258.15px 239.56px;"><line x1="79.3" y1="329.75" x2="273.78" y2="329.75" style="fill: none; stroke: rgb(38, 50, 56); stroke-linecap: round; stroke-linejoin: round; transform-origin: 176.54px 329.75px;" id="elzz2fruo0kri" class="animable"></line><polyline points="119.45 330.35 119.45 337.84 76.3 337.84" style="fill: none; stroke: rgb(38, 50, 56); stroke-linecap: round; stroke-linejoin: round; transform-origin: 97.875px 334.095px;" id="elv09jaj4qnnc" class="animable"></polyline><line x1="147.91" y1="341.14" x2="85.59" y2="341.14" style="fill: none; stroke: rgb(38, 50, 56); stroke-linecap: round; stroke-linejoin: round; transform-origin: 116.75px 341.14px;" id="el9l1xgecih6" class="animable"></line><line x1="280.65" y1="329.75" x2="440" y2="329.75" style="fill: none; stroke: rgb(38, 50, 56); stroke-linecap: round; stroke-linejoin: round; transform-origin: 360.325px 329.75px;" id="el7rawsvujits" class="animable"></line><polyline points="321.4 330.35 321.4 337.84 148.06 337.84" style="fill: none; stroke: rgb(38, 50, 56); stroke-linecap: round; stroke-linejoin: round; transform-origin: 234.73px 334.095px;" id="elgok196e008h" class="animable"></polyline><line x1="435" y1="341.14" x2="168.1" y2="341.14" style="fill: none; stroke: rgb(38, 50, 56); stroke-linecap: round; stroke-linejoin: round; transform-origin: 301.55px 341.14px;" id="elvar3bwczh2k" class="animable"></line><polyline points="292.64 327.65 292.64 280.31 349.27 280.31 349.27 327.65" style="fill: none; stroke: rgb(38, 50, 56); stroke-linecap: round; stroke-linejoin: round; transform-origin: 320.955px 303.98px;" id="el1y6xby1w2lt" class="animable"></polyline><polyline points="325.89 279.71 325.89 233.27 296.83 233.27 296.83 280.01" style="fill: none; stroke: rgb(38, 50, 56); stroke-linecap: round; stroke-linejoin: round; transform-origin: 311.36px 256.64px;" id="elw66bdq7bi4s" class="animable"></polyline><path d="M301.33,233.27s1.79-7.49,10.78-7.49S323.2,233,323.2,233" style="fill: none; stroke: rgb(38, 50, 56); stroke-linecap: round; stroke-linejoin: round; transform-origin: 312.265px 229.525px;" id="elub202qd2aw" class="animable"></path><polyline points="307.92 225.78 307.92 138.28 323.5 138.28 335.48 257.84 354.36 257.84 354.36 283.61 369.34 283.61 369.34 294.09 395.11 294.09 395.11 329.75" style="fill: none; stroke: rgb(38, 50, 56); stroke-linecap: round; stroke-linejoin: round; transform-origin: 351.515px 234.015px;" id="ela5fr9m5t4wk" class="animable"></polyline><line x1="323.5" y1="138.28" x2="322.9" y2="226.68" style="fill: none; stroke: rgb(38, 50, 56); stroke-linecap: round; stroke-linejoin: round; transform-origin: 323.2px 182.48px;" id="elbhbdbe5ab6m" class="animable"></line><line x1="315.41" y1="137.98" x2="315.41" y2="106.82" style="fill: none; stroke: rgb(38, 50, 56); stroke-linecap: round; stroke-linejoin: round; transform-origin: 315.41px 122.4px;" id="el9upgrdnmbgw" class="animable"></line><polyline points="362.75 283.61 362.75 242.86 383.43 242.86 383.43 271.32 390.62 271.32" style="fill: none; stroke: rgb(38, 50, 56); stroke-linecap: round; stroke-linejoin: round; transform-origin: 376.685px 263.235px;" id="elga9m8pfzpv" class="animable"></polyline><polyline points="392.11 293.49 392.11 265.63 411.29 265.63 411.29 326.45" style="fill: none; stroke: rgb(38, 50, 56); stroke-linecap: round; stroke-linejoin: round; transform-origin: 401.7px 296.04px;" id="elngktuxrn9yq" class="animable"></polyline><line x1="405.9" y1="266.53" x2="405.9" y2="326.75" style="fill: none; stroke: rgb(38, 50, 56); stroke-linecap: round; stroke-linejoin: round; transform-origin: 405.9px 296.64px;" id="elvven8nxcx4n" class="animable"></line><polyline points="394.51 265.93 394.51 259.94 405.6 259.94 405.6 264.73" style="fill: none; stroke: rgb(38, 50, 56); stroke-linecap: round; stroke-linejoin: round; transform-origin: 400.055px 262.935px;" id="elsd4b3z27uk" class="animable"></polyline><polyline points="399.61 259.04 399.61 204.5 411.29 204.5 411.29 217.99 424.47 217.99 424.47 248.25" style="fill: none; stroke: rgb(38, 50, 56); stroke-linecap: round; stroke-linejoin: round; transform-origin: 412.04px 231.77px;" id="elbzp0x408x3a" class="animable"></polyline><polyline points="420.28 325.56 420.28 249.15 429.27 249.15 429.27 324.96" style="fill: none; stroke: rgb(38, 50, 56); stroke-linecap: round; stroke-linejoin: round; transform-origin: 424.775px 287.355px;" id="elx8jhpfsdau" class="animable"></polyline><line x1="411.29" y1="217.99" x2="411.29" y2="254.54" style="fill: none; stroke: rgb(38, 50, 56); stroke-linecap: round; stroke-linejoin: round; transform-origin: 411.29px 236.265px;" id="el015qn0pm7dmj" class="animable"></line><polyline points="400.8 204.2 400.8 200.91 407.69 200.91 407.69 204.2" style="fill: none; stroke: rgb(38, 50, 56); stroke-linecap: round; stroke-linejoin: round; transform-origin: 404.245px 202.555px;" id="el2xm3z1qsqv" class="animable"></polyline><path d="M402.9,200.61s-.9-2.4,0-2.4h3.3v2.7" style="fill: none; stroke: rgb(38, 50, 56); stroke-linecap: round; stroke-linejoin: round; transform-origin: 404.35px 199.56px;" id="elyhfntf8ou27" class="animable"></path><polyline points="129.34 258.44 90.38 258.44 90.38 327.65" style="fill: none; stroke: rgb(38, 50, 56); stroke-linecap: round; stroke-linejoin: round; transform-origin: 109.86px 293.045px;" id="elmrj0ksotqs" class="animable"></polyline><polyline points="126.94 247.95 96.38 247.95 96.38 258.74" style="fill: none; stroke: rgb(38, 50, 56); stroke-linecap: round; stroke-linejoin: round; transform-origin: 111.66px 253.345px;" id="elotytbcrpv4" class="animable"></polyline><polyline points="102.07 247.35 102.07 235.07 127.95 235.07 127.95 244.79" style="fill: none; stroke: rgb(38, 50, 56); stroke-linecap: round; stroke-linejoin: round; transform-origin: 115.01px 241.21px;" id="eltaaiu8l7s8c" class="animable"></polyline><polyline points="108.66 234.77 108.66 197.31 122.75 197.31 122.75 234.98" style="fill: none; stroke: rgb(38, 50, 56); stroke-linecap: round; stroke-linejoin: round; transform-origin: 115.705px 216.145px;" id="el2fcodgi27ua" class="animable"></polyline><line x1="412.79" y1="351.62" x2="351.06" y2="351.62" style="fill: none; stroke: rgb(38, 50, 56); stroke-linecap: round; stroke-linejoin: round; transform-origin: 381.925px 351.62px;" id="elo0zigjkj26o" class="animable"></line><line x1="374.74" y1="363.01" x2="322.6" y2="363.01" style="fill: none; stroke: rgb(38, 50, 56); stroke-linecap: round; stroke-linejoin: round; transform-origin: 348.67px 363.01px;" id="elegdq88xqfnn" class="animable"></line><line x1="342.97" y1="354.92" x2="313.91" y2="354.92" style="fill: none; stroke: rgb(38, 50, 56); stroke-linecap: round; stroke-linejoin: round; transform-origin: 328.44px 354.92px;" id="elcagqa8ylhzi" class="animable"></line><line x1="359.45" y1="346.83" x2="348.97" y2="346.83" style="fill: none; stroke: rgb(38, 50, 56); stroke-linecap: round; stroke-linejoin: round; transform-origin: 354.21px 346.83px;" id="elrxgdw8kphb" class="animable"></line><line x1="274.96" y1="351.92" x2="292.94" y2="351.92" style="fill: none; stroke: rgb(38, 50, 56); stroke-linecap: round; stroke-linejoin: round; transform-origin: 283.95px 351.92px;" id="eliqhz5frtbrr" class="animable"></line><line x1="132.5" y1="364.8" x2="100.14" y2="364.8" style="fill: none; stroke: rgb(38, 50, 56); stroke-linecap: round; stroke-linejoin: round; transform-origin: 116.32px 364.8px;" id="elhs0okyi0218" class="animable"></line><line x1="82.29" y1="354.92" x2="101.47" y2="354.92" style="fill: none; stroke: rgb(38, 50, 56); stroke-linecap: round; stroke-linejoin: round; transform-origin: 91.88px 354.92px;" id="el5fm0ay25dtr" class="animable"></line><line x1="107.16" y1="355.22" x2="111.36" y2="355.22" style="fill: none; stroke: rgb(38, 50, 56); stroke-linecap: round; stroke-linejoin: round; transform-origin: 109.26px 355.22px;" id="el81tai6yqa2n" class="animable"></line><line x1="116.15" y1="348.93" x2="96.08" y2="348.93" style="fill: none; stroke: rgb(38, 50, 56); stroke-linecap: round; stroke-linejoin: round; transform-origin: 106.115px 348.93px;" id="elkh5h0yz7ugk" class="animable"></line><line x1="81.69" y1="372.3" x2="97.11" y2="372.3" style="fill: none; stroke: rgb(38, 50, 56); stroke-linecap: round; stroke-linejoin: round; transform-origin: 89.4px 372.3px;" id="elx0v691bcqt" class="animable"></line><line x1="371.09" y1="372.3" x2="386.5" y2="372.3" style="fill: none; stroke: rgb(38, 50, 56); stroke-linecap: round; stroke-linejoin: round; transform-origin: 378.795px 372.3px;" id="elljb3gt6gda8" class="animable"></line><line x1="294.14" y1="364.8" x2="261.78" y2="364.8" style="fill: none; stroke: rgb(38, 50, 56); stroke-linecap: round; stroke-linejoin: round; transform-origin: 277.96px 364.8px;" id="elwgq9a4snzea" class="animable"></line><line x1="171.14" y1="351.92" x2="258.6" y2="351.92" style="fill: none; stroke: rgb(38, 50, 56); stroke-linecap: round; stroke-linejoin: round; transform-origin: 214.87px 351.92px;" id="elqtvn7c0un5j" class="animable"></line><polyline points="129.73 248.36 132.41 248.36 132.41 259.06 136.42 259.06 136.42 327.3" style="fill: none; stroke: rgb(38, 50, 56); stroke-linecap: round; stroke-linejoin: round; transform-origin: 133.075px 287.83px;" id="elmersfqjszs9" class="animable"></polyline><polyline points="127.95 235.07 127.95 207.33 158.72 207.33 158.72 259.06" style="fill: none; stroke: rgb(38, 50, 56); stroke-linecap: round; stroke-linejoin: round; transform-origin: 143.335px 233.195px;" id="elp3sdt3b1lt" class="animable"></polyline><polyline points="137.31 264.86 170.31 264.86 170.31 328.19" style="fill: none; stroke: rgb(38, 50, 56); stroke-linecap: round; stroke-linejoin: round; transform-origin: 153.81px 296.525px;" id="elo7kfhvgxni" class="animable"></polyline><polyline points="159.16 234.09 177.45 234.09 177.45 328.63" style="fill: none; stroke: rgb(38, 50, 56); stroke-linecap: round; stroke-linejoin: round; transform-origin: 168.305px 281.36px;" id="elwww8ks83np" class="animable"></polyline><polyline points="177.45 234.09 177.45 197.97 199.3 197.97 199.3 328.19" style="fill: none; stroke: rgb(38, 50, 56); stroke-linecap: round; stroke-linejoin: round; transform-origin: 188.375px 263.08px;" id="elxxirqk6kr6o" class="animable"></polyline><polyline points="182.8 197.78 182.8 194.84 194.4 194.84 194.4 197.55" style="fill: none; stroke: rgb(38, 50, 56); stroke-linecap: round; stroke-linejoin: round; transform-origin: 188.6px 196.31px;" id="elzz2e0hyt6y" class="animable"></polyline><polyline points="185.33 194.67 185.33 191 191.33 191 191.33 194.67" style="fill: none; stroke: rgb(38, 50, 56); stroke-linecap: round; stroke-linejoin: round; transform-origin: 188.33px 192.835px;" id="elzzmk1jgh2x9" class="animable"></polyline><polyline points="199 217.67 219.33 217.67 219.33 260.67 247 260.67 247 329" style="fill: none; stroke: rgb(38, 50, 56); stroke-linecap: round; stroke-linejoin: round; transform-origin: 223px 273.335px;" id="elxipe9fd1w7r" class="animable"></polyline><polyline points="246.67 297 205.67 297 205.67 328.67" style="fill: none; stroke: rgb(38, 50, 56); stroke-linecap: round; stroke-linejoin: round; transform-origin: 226.17px 312.835px;" id="elfddgdo6wlyd" class="animable"></polyline><polyline points="247 318 269.33 318 269.33 225.67 282.67 225.67 301.33 225.67" style="fill: none; stroke: rgb(38, 50, 56); stroke-linecap: round; stroke-linejoin: round; transform-origin: 274.165px 271.835px;" id="elvjhqnqxqyyr" class="animable"></polyline><polyline points="269.67 233.67 241 233.67 241 260.33" style="fill: none; stroke: rgb(38, 50, 56); stroke-linecap: round; stroke-linejoin: round; transform-origin: 255.335px 247px;" id="elm9e38c5usk" class="animable"></polyline><polyline points="243.33 233.67 243.33 229.33 249.33 229.33 249.33 225 265.33 225 265.33 229 267.67 229" style="fill: none; stroke: rgb(38, 50, 56); stroke-linecap: round; stroke-linejoin: round; transform-origin: 255.5px 229.335px;" id="elmfnexwj1ml" class="animable"></polyline></g><g id="freepik--Character--inject-10" class="animable animator-active" style="transform-origin: 199.335px 277.039px;"><path d="M263.4,191.17c5.08-2.49,10.64-7.38,13.38-17,2.27-7.92,1.32-15.06-2.74-20.66A23.78,23.78,0,0,0,256.65,144a.54.54,0,0,0-.58.53.56.56,0,0,0,.54.58,22.63,22.63,0,0,1,16.53,9.05c3.85,5.31,4.74,12.12,2.58,19.71A27.32,27.32,0,0,1,268.88,186a23.54,23.54,0,0,0,4.37-10.48c1.22-7-.05-12.76-3.77-17.18a20.41,20.41,0,0,0-5.06-4.26c-10.79-10.19-31.58-10.27-44.21-.64-14.9,11.35-18.45,25.54-34.05,45.4s-31.92,34-56.75,34-36.42,43.62-7.1,56.75,83,17,107.83,5.68,38.31-12.77,57.46-44C304.3,224.15,283.57,193.16,263.4,191.17Zm5.23-32.08c3.5,4.15,4.68,9.63,3.53,16.27-1.36,7.77-5.17,12-8.88,14.41,3.38-3.85,12.29-15.81,5.88-29.21a23.21,23.21,0,0,0-1.33-2.34C268.1,158.5,268.37,158.78,268.63,159.09Z" style="fill: rgb(38, 50, 56); transform-origin: 199.335px 222.971px;" id="el5xfj7oakqw6" class="animable"></path><path d="M123,286.48a31.46,31.46,0,0,0,7.45,2.43" style="fill: none; stroke: rgb(255, 255, 255); stroke-linecap: round; stroke-linejoin: round; transform-origin: 126.725px 287.695px;" id="elzplp9b7uu5d" class="animable"></path><path d="M249.45,193.56s8-19.4-4.65-27.84c-10.32-6.88-22.78,5.91-26.57,16.45s-11,29.11-32.06,40.08-73.83,16.45-76.78,39.66c-1.51,11.84,4,18.62,9.78,22.43" style="fill: none; stroke: rgb(255, 255, 255); stroke-linecap: round; stroke-linejoin: round; transform-origin: 180.541px 224.058px;" id="elernovzy21mt" class="animable"></path><path d="M262.42,172.07a17,17,0,0,0-.74-5.93" style="fill: none; stroke: rgb(255, 255, 255); stroke-linecap: round; stroke-linejoin: round; transform-origin: 262.062px 169.105px;" id="elddpkadz8icj" class="animable"></path><path d="M249.45,193.56c3.58-4.11,9.45-9.53,11.88-16.27" style="fill: none; stroke: rgb(255, 255, 255); stroke-linecap: round; stroke-linejoin: round; transform-origin: 255.39px 185.425px;" id="elelk6ho3wetj" class="animable"></path><path d="M247.76,192.72s-3.38-18.14-13.08-16.45-4.22,11.81-4.22,11.81" style="fill: none; stroke: rgb(255, 255, 255); stroke-linecap: round; stroke-linejoin: round; transform-origin: 238.339px 184.439px;" id="el2n0qbrm0k9m" class="animable"></path><path d="M260,199.05s35,15.61,32.49,36.7" style="fill: none; stroke: rgb(255, 255, 255); stroke-linecap: round; stroke-linejoin: round; transform-origin: 276.309px 217.4px;" id="elwmc0gza2az" class="animable"></path><path d="M277.4,257a41.57,41.57,0,0,1-5.17,5.72" style="fill: none; stroke: rgb(255, 255, 255); stroke-linecap: round; stroke-linejoin: round; transform-origin: 274.815px 259.86px;" id="elh5wlpzw4gwh" class="animable"></path><path d="M270.54,205s21.57,24.75,9.69,47.56" style="fill: none; stroke: rgb(255, 255, 255); stroke-linecap: round; stroke-linejoin: round; transform-origin: 277.17px 228.78px;" id="el294vb40xa2b" class="animable"></path><path d="M214.46,226.3s-2.79-4.81-4.82-.25,6.08,15.19,7.6,13.42S214.46,226.3,214.46,226.3Z" style="fill: rgb(229, 36, 33); transform-origin: 213.441px 231.876px;" id="elmsec5lsrut" class="animable"></path><g style="clip-path: url(&quot;#freepik--clip-path-2--inject-10&quot;); transform-origin: 213.441px 231.876px;" id="el17gqvoll0qf" class="animable"><g id="el6i53jzm3v46"><path d="M214.46,226.3s-2.79-4.81-4.82-.25,6.08,15.19,7.6,13.42S214.46,226.3,214.46,226.3Z" style="fill: rgb(255, 255, 255); opacity: 0.5; transform-origin: 213.441px 231.876px;" class="animable"></path></g></g><path d="M214.46,226.3s-2.79-4.81-4.82-.25,6.08,15.19,7.6,13.42S214.46,226.3,214.46,226.3Z" style="fill: none; stroke: rgb(38, 50, 56); stroke-linecap: round; stroke-linejoin: round; transform-origin: 213.441px 231.876px;" id="elzm3p99wuold" class="animable"></path><path d="M129.74,409.53s2.39-8.94,6.19-23.89S163,277.47,177,262s19.75-.51,34.45,5.32,18.24,6.58,18.24,6.58,3,.51,12.41,5.58,13.43,6.84,21.79,9.37,19.25,8.36,13.93,25.84S258,358.79,257,377.54s4.07,32,4.07,32" style="fill: rgb(255, 255, 255); transform-origin: 204.483px 332.37px;" id="eli2itr412w9r" class="animable"></path><g style="clip-path: url(&quot;#freepik--clip-path-3--inject-10&quot;); transform-origin: 193.21px 327.5px;" id="elpohbp6nw338" class="animable"><path d="M186,273.81c16,3.42,28.94,30.46,28.94,30.46l23.61-18.66c.11-.34,0-3.67-.33-8.14-6.33-3.17-8.52-3.55-8.52-3.55s-3.55-.76-18.24-6.58S190.9,246.56,177,262c-2.33,2.58-4.92,7.34-7.64,13.54A25.49,25.49,0,0,1,186,273.81Z" style="fill: rgb(229, 36, 33); transform-origin: 203.976px 279.745px;" id="elczwd834nl6n" class="animable"></path><g id="elrpvgghh1h9q"><path d="M186,273.81c16,3.42,28.94,30.46,28.94,30.46l23.61-18.66c.11-.34,0-3.67-.33-8.14-6.33-3.17-8.52-3.55-8.52-3.55s-3.55-.76-18.24-6.58S190.9,246.56,177,262c-2.33,2.58-4.92,7.34-7.64,13.54A25.49,25.49,0,0,1,186,273.81Z" style="fill: rgb(255, 255, 255); opacity: 0.5; transform-origin: 203.976px 279.745px;" class="animable"></path></g><path d="M180.65,303.87s1,4.22-10.54,34.25,14.75,7.91,3.69,25.3-43.74,36.36-46.9,36.36-6.85-59-4.22-62.18,18.54-28.71,33.51-38.6S180.65,303.87,180.65,303.87Z" style="fill: rgb(229, 36, 33); transform-origin: 151.228px 347.684px;" id="elmjl6yt3c5r8" class="animable"></path><g id="el51qk3twys5f"><path d="M180.65,303.87s1,4.22-10.54,34.25,14.75,7.91,3.69,25.3-43.74,36.36-46.9,36.36-6.85-59-4.22-62.18,18.54-28.71,33.51-38.6S180.65,303.87,180.65,303.87Z" style="fill: rgb(255, 255, 255); opacity: 0.5; transform-origin: 151.228px 347.684px;" class="animable"></path></g><path d="M264.43,319.15s1.05,6.85-1.58,21.08-8.43,35.83-15.81,47.43-10.54,10-10.54,10,4.74-22.66,11.59-34.78S263.38,327.59,264.43,319.15Z" style="fill: rgb(229, 36, 33); transform-origin: 250.568px 358.442px;" id="el6pxy6ty9q1o" class="animable"></path><g id="el2j683dbp1yn"><path d="M264.43,319.15s1.05,6.85-1.58,21.08-8.43,35.83-15.81,47.43-10.54,10-10.54,10,4.74-22.66,11.59-34.78S263.38,327.59,264.43,319.15Z" style="fill: rgb(255, 255, 255); opacity: 0.5; transform-origin: 250.568px 358.442px;" class="animable"></path></g></g><path d="M129.74,409.53s2.39-8.94,6.19-23.89S163,277.47,177,262s19.75-.51,34.45,5.32,18.24,6.58,18.24,6.58,3,.51,12.41,5.58,13.43,6.84,21.79,9.37,19.25,8.36,13.93,25.84S258,358.79,257,377.54s4.07,32,4.07,32" style="fill: none; stroke: rgb(38, 50, 56); stroke-linecap: round; stroke-linejoin: round; transform-origin: 204.483px 332.37px;" id="elgstb4rjhgx7" class="animable"></path><path d="M160.71,410.08s16.51-25.45,27.91-43.69,14.94-39.27,19-63.84,12.41-30.4,18-29.64,20.78,7.35,22.8,10.13,4.82,5.07,4.31,20.52-5.57,35.22-14.19,53.2S219,386.4,215,395s-4.81,14.19-4.81,14.19" style="fill: rgb(229, 36, 33); transform-origin: 206.75px 341.463px;" id="elr635trxbmv" class="animable"></path><g style="clip-path: url(&quot;#freepik--clip-path-4--inject-10&quot;); transform-origin: 223.902px 288.558px;" id="ele11u0iarac4" class="animable"><path d="M214.9,304.27l23.61-18.66c.11-.35-.06-3.83-.35-8.47-4.71-2.06-9.8-3.85-12.56-4.23-4.9-.67-11.95,3.76-16.34,21.54A98.16,98.16,0,0,1,214.9,304.27Z" style="fill: rgb(229, 36, 33); transform-origin: 223.902px 288.558px;" id="elsni62864s4r" class="animable"></path><g id="el5vqwm9p5fxx"><path d="M214.9,304.27l23.61-18.66c.11-.35-.06-3.83-.35-8.47-4.71-2.06-9.8-3.85-12.56-4.23-4.9-.67-11.95,3.76-16.34,21.54A98.16,98.16,0,0,1,214.9,304.27Z" style="opacity: 0.3; transform-origin: 223.902px 288.558px;" class="animable"></path></g></g><path d="M160.71,410.08s16.51-25.45,27.91-43.69,14.94-39.27,19-63.84,12.41-30.4,18-29.64,20.78,7.35,22.8,10.13,4.82,5.07,4.31,20.52-5.57,35.22-14.19,53.2S219,386.4,215,395s-4.81,14.19-4.81,14.19" style="fill: none; stroke: rgb(38, 50, 56); stroke-linecap: round; stroke-linejoin: round; transform-origin: 206.75px 341.463px;" id="elonz78qsjzl" class="animable"></path><path d="M265.12,314c-1.32,25.56-17.12,46.51-24.82,70.2a118.92,118.92,0,0,0-5.14,21.78" style="fill: none; stroke: rgb(38, 50, 56); stroke-linecap: round; stroke-linejoin: round; transform-origin: 250.14px 359.99px;" id="el5gdtsa4kdz3" class="animable"></path><path d="M258.28,369.68S255.5,374,244.6,373" style="fill: none; stroke: rgb(38, 50, 56); stroke-linecap: round; stroke-linejoin: round; transform-origin: 251.44px 371.415px;" id="elwfhh8eqxuq" class="animable"></path><path d="M222.56,252.9s3,5.32,0,16.72-12.16,38.5-8.1,56.74,11.14,21.79,20,15.46,14.69-21.28,17-38.76-5.32-19-1.77-29.9,4.31-26.6,4.31-26.6-10.9,6.34-18.75,7.35S222.56,252.9,222.56,252.9Z" style="fill: rgb(255, 255, 255); transform-origin: 233.72px 295.64px;" id="el1p4di3g7oom" class="animable"></path><g style="clip-path: url(&quot;#freepik--clip-path-5--inject-10&quot;); transform-origin: 233.555px 296.041px;" id="elu93q7zg4fet" class="animable"><path d="M252.52,247.37c-3.22,1.74-11.17,5.75-17.29,6.54-7.85,1-12.67-1-12.67-1s3,5.32,0,16.72c-2.35,8.84-8.36,27.12-9.05,43.38,1.23-8.15,3.61-15.5,5.83-15.5,3.67,0,11.46,6.87,11.46,5s-3.21-4.59-4.58-6,9.17-10.55,16-21.09a153.49,153.49,0,0,0,11-20.81c.16-1.39.28-2.66.38-3.76Z" style="fill: rgb(229, 36, 33); transform-origin: 233.555px 280.19px;" id="elvbkklvdhyy" class="animable"></path><path d="M224.3,344.19c2.22.89,4.67.62,7.31-.65.8-3.66.1-7.11-1.27-11.2C228.6,327.11,226.85,338.6,224.3,344.19Z" style="fill: rgb(229, 36, 33); transform-origin: 228.124px 337.86px;" id="elurbts0xpu8" class="animable"></path><g id="elduxlduu2qle"><g style="opacity: 0.5; transform-origin: 233.555px 296.041px;" class="animable"><path d="M252.52,247.37c-3.22,1.74-11.17,5.75-17.29,6.54-7.85,1-12.67-1-12.67-1s3,5.32,0,16.72c-2.35,8.84-8.36,27.12-9.05,43.38,1.23-8.15,3.61-15.5,5.83-15.5,3.67,0,11.46,6.87,11.46,5s-3.21-4.59-4.58-6,9.17-10.55,16-21.09a153.49,153.49,0,0,0,11-20.81c.16-1.39.28-2.66.38-3.76Z" style="fill: rgb(255, 255, 255); transform-origin: 233.555px 280.19px;" id="el2qav0vhktr" class="animable"></path><path d="M224.3,344.19c2.22.89,4.67.62,7.31-.65.8-3.66.1-7.11-1.27-11.2C228.6,327.11,226.85,338.6,224.3,344.19Z" style="fill: rgb(255, 255, 255); transform-origin: 228.124px 337.86px;" id="el9no71ks87k4" class="animable"></path></g></g></g><path d="M222.56,252.9s3,5.32,0,16.72-12.16,38.5-8.1,56.74,11.14,21.79,20,15.46,14.69-21.28,17-38.76-5.32-19-1.77-29.9,4.31-26.6,4.31-26.6-10.9,6.34-18.75,7.35S222.56,252.9,222.56,252.9Z" style="fill: none; stroke: rgb(38, 50, 56); stroke-linecap: round; stroke-linejoin: round; transform-origin: 233.72px 295.64px;" id="elpmg9jthfth" class="animable"></path><path d="M261.58,222.25s1-11.66-5.32-20.27-17.23-12.16-29.39-7.35-13.43,17-13.17,26.35,3.29,26.09,6.58,31.92,9.12,12.66,17.74,10.89,18-13.68,20.26-19a43.09,43.09,0,0,0,2.79-8.11s8.36-4.81,8.61-10.89S266.14,213.13,261.58,222.25Z" style="fill: rgb(255, 255, 255); transform-origin: 241.681px 228.271px;" id="eli334suqkspf" class="animable"></path><path d="M239.59,261.53c-5.27,1.21-9.32-5.27-4.86-9.73s5.27-5.68,6.08-8.92-3.24,1.62-6.89,1.62-4.87-4.05-4.87-4.05-2-8.52,2.38-14.91,0-4.55-2.78-7.48,0-1.13,4-5.06-1.22-9,4.87-13.09,14.18-1.62,14.18-1.62l.25-.78c-6.43-5.21-15.37-6.74-25.13-2.88-12.16,4.82-13.43,17-13.17,26.35s3.29,26.09,6.58,31.92,9.12,12.66,17.74,10.89c5.36-1.1,11-6.14,15.08-11.07C249.2,255.73,243.58,260.6,239.59,261.53Z" style="fill: rgb(229, 36, 33); transform-origin: 233.336px 228.273px;" id="elhyvflyuohyq" class="animable"></path><g id="elorwtletmbib"><path d="M239.59,261.53c-5.27,1.21-9.32-5.27-4.86-9.73s5.27-5.68,6.08-8.92-3.24,1.62-6.89,1.62-4.87-4.05-4.87-4.05-2-8.52,2.38-14.91,0-4.55-2.78-7.48,0-1.13,4-5.06-1.22-9,4.87-13.09,14.18-1.62,14.18-1.62l.25-.78c-6.43-5.21-15.37-6.74-25.13-2.88-12.16,4.82-13.43,17-13.17,26.35s3.29,26.09,6.58,31.92,9.12,12.66,17.74,10.89c5.36-1.1,11-6.14,15.08-11.07C249.2,255.73,243.58,260.6,239.59,261.53Z" style="fill: rgb(255, 255, 255); opacity: 0.5; transform-origin: 233.336px 228.273px;" class="animable"></path></g><path d="M261.58,222.25s1-11.66-5.32-20.27-17.23-12.16-29.39-7.35-13.43,17-13.17,26.35,3.29,26.09,6.58,31.92,9.12,12.66,17.74,10.89,18-13.68,20.26-19a43.09,43.09,0,0,0,2.79-8.11s8.36-4.81,8.61-10.89S266.14,213.13,261.58,222.25Z" style="fill: none; stroke: rgb(38, 50, 56); stroke-linecap: round; stroke-linejoin: round; transform-origin: 241.681px 228.271px;" id="eltgmmkooc5oc" class="animable"></path><path d="M229.4,210.59s-.76,9.38-3.8,11.15-10.89,4.31-14.18,1.77-6.84-11.14-4.31-13.17,16.21-4.56,18.49-4.56S229.4,207.81,229.4,210.59Z" style="fill: rgb(255, 255, 255); transform-origin: 217.826px 215.181px;" id="el20on4rp8d4z" class="animable"></path><g style="clip-path: url(&quot;#freepik--clip-path-6--inject-10&quot;); transform-origin: 220px 216.629px;" id="elchgyb5o3oid" class="animable"><path d="M210.6,222.75a7.1,7.1,0,0,0,.82.76c3.29,2.53,11.14,0,14.18-1.77s3.8-11.15,3.8-11.15a6.78,6.78,0,0,0-.26-1.91C216.81,212.64,212.27,218.93,210.6,222.75Z" style="fill: rgb(229, 36, 33); transform-origin: 220px 216.629px;" id="el9vfzz56azpm" class="animable"></path></g><path d="M229.4,210.59s-.76,9.38-3.8,11.15-10.89,4.31-14.18,1.77-6.84-11.14-4.31-13.17,16.21-4.56,18.49-4.56S229.4,207.81,229.4,210.59Z" style="fill: none; stroke: rgb(38, 50, 56); stroke-linecap: round; stroke-linejoin: round; transform-origin: 217.826px 215.181px;" id="el3ucfmlnnier" class="animable"></path><path d="M238.46,209.25s2.67,9,6,10.13,11.54,2,14.24-1.18,4.41-12.31,1.52-13.78-16.81-1.13-19-.66S237.89,206.52,238.46,209.25Z" style="fill: rgb(255, 255, 255); transform-origin: 250.018px 211.883px;" id="elrwfjq75uoiq" class="animable"></path><g style="clip-path: url(&quot;#freepik--clip-path-7--inject-10&quot;); transform-origin: 250.836px 213.227px;" id="elysh17ifsbld" class="animable"><path d="M258.71,218.2c2.18-2.54,3.71-9,2.71-12.14-11.18.1-18.17,4.45-21.48,7.2,1.09,2.57,2.71,5.51,4.53,6.12C247.81,220.49,256,221.36,258.71,218.2Z" style="fill: rgb(229, 36, 33); transform-origin: 250.836px 213.227px;" id="elxmrxsrxas3" class="animable"></path></g><path d="M238.46,209.25s2.67,9,6,10.13,11.54,2,14.24-1.18,4.41-12.31,1.52-13.78-16.81-1.13-19-.66S237.89,206.52,238.46,209.25Z" style="fill: none; stroke: rgb(38, 50, 56); stroke-linecap: round; stroke-linejoin: round; transform-origin: 250.018px 211.883px;" id="elwj3bm95rnr" class="animable"></path><path d="M229.66,208.57a6.42,6.42,0,0,1,8.61-1.52" style="fill: none; stroke: rgb(38, 50, 56); stroke-linecap: round; stroke-linejoin: round; transform-origin: 233.965px 207.295px;" id="el62hmllrsyn6" class="animable"></path><path d="M233.46,209.2s1.52,1.26-.76,3.8-4.81,3.29-4,5.06,4.31,3,5.07,3.8" style="fill: none; stroke: rgb(38, 50, 56); stroke-linecap: round; stroke-linejoin: round; transform-origin: 231.251px 215.53px;" id="elykoetqzb669" class="animable"></path><path d="M250.94,227.56s-.26,1.27-6.34.26-7.85-4-13.17-2.28-7.09,4.56-8.36,5.06l-1.27.51s4.82,6.59,7.6,11.15S236,246.82,239,245s8.61-10.89,9.63-12.92Z" style="fill: rgb(38, 50, 56); stroke: rgb(38, 50, 56); stroke-linecap: round; stroke-linejoin: round; transform-origin: 236.37px 235.577px;" id="elxk9esczp0tg" class="animable"></path><path d="M249.16,229.08s-2.25,1.53-6.73.78-5.78-3-9.7-1.68-5.94,2.31-6.87,2.68a9.51,9.51,0,0,0-2,1.26,48.56,48.56,0,0,1,5.07,6.59c2,3.36,6.87,4.12,9.11,2.81s6.66-7,7.41-8.49S249.16,229.08,249.16,229.08Z" style="fill: rgb(255, 255, 255); stroke: rgb(38, 50, 56); stroke-linecap: round; stroke-linejoin: round; transform-origin: 236.51px 234.95px;" id="el7t82b3htfur" class="animable"></path><path d="M205.34,266.58c-.76-.26-3.55-8.36-14.7-12.16s-17.48,3-23,12.66-11.65,27.11-16,35.72S139,317,138.71,328.14s4.82,18,11.15,17.48,11.4-7.6,20.77-20.52,18.49-35.72,18.49-35.72" style="fill: rgb(255, 255, 255); transform-origin: 172.019px 299.498px;" id="eljyvdnt5wpo" class="animable"></path><g style="clip-path: url(&quot;#freepik--clip-path-8--inject-10&quot;); transform-origin: 183.115px 267.304px;" id="elppnovcamqfs" class="animable"><path d="M205.34,266.58c-.76-.26-3.55-8.36-14.7-12.16s-17.47,3-23,12.66a138.39,138.39,0,0,0-6.75,14.18c7.59-6.69,15.61-9.49,25.12-7.45a25,25,0,0,1,10.36,5.45Z" style="fill: rgb(229, 36, 33); transform-origin: 183.115px 267.304px;" id="elkjg4i3o84dp" class="animable"></path><g id="elu9v43fmvjl"><path d="M205.34,266.58c-.76-.26-3.55-8.36-14.7-12.16s-17.47,3-23,12.66a138.39,138.39,0,0,0-6.75,14.18c7.59-6.69,15.61-9.49,25.12-7.45a25,25,0,0,1,10.36,5.45Z" style="fill: rgb(255, 255, 255); opacity: 0.5; transform-origin: 183.115px 267.304px;" class="animable"></path></g></g><path d="M205.34,266.58c-.76-.26-3.55-8.36-14.7-12.16s-17.48,3-23,12.66-11.65,27.11-16,35.72S139,317,138.71,328.14s4.82,18,11.15,17.48,11.4-7.6,20.77-20.52,18.49-35.72,18.49-35.72" style="fill: none; stroke: rgb(38, 50, 56); stroke-linecap: round; stroke-linejoin: round; transform-origin: 172.019px 299.498px;" id="elpsgbc2zspc" class="animable"></path><path d="M172,323.14a70.82,70.82,0,0,0-6.17-9.19A28,28,0,0,0,151,304c-4.44,7.93-12,13.5-12.26,24.11-.25,11.14,4.82,18,11.15,17.48s11.4-7.6,20.77-20.52C171.09,324.47,171.54,323.81,172,323.14Z" style="fill: rgb(255, 255, 255); stroke: rgb(38, 50, 56); stroke-linecap: round; stroke-linejoin: round; transform-origin: 155.366px 324.809px;" id="el9g2m4d0sef" class="animable"></path><rect x="139.22" y="152.83" width="47.63" height="83.6" rx="2.27" style="fill: rgb(229, 36, 33); stroke: rgb(38, 50, 56); stroke-linecap: round; stroke-linejoin: round; transform-origin: 163.035px 194.63px;" id="eljuj6jpxre8" class="animable"></rect><line x1="184.71" y1="198.07" x2="184.71" y2="204.43" style="fill: none; stroke: rgb(255, 255, 255); stroke-linecap: round; stroke-linejoin: round; transform-origin: 184.71px 201.25px;" id="elrl79ed8szn7" class="animable"></line><path d="M178.34,154.85h4.1a2.27,2.27,0,0,1,2.27,2.27v36.4" style="fill: none; stroke: rgb(255, 255, 255); stroke-linecap: round; stroke-linejoin: round; transform-origin: 181.525px 174.185px;" id="eln8rcashx4l" class="animable"></path><line x1="168.79" y1="154.85" x2="173.34" y2="154.85" style="fill: none; stroke: rgb(255, 255, 255); stroke-linecap: round; stroke-linejoin: round; transform-origin: 171.065px 154.85px;" id="elbhjn4ntray" class="animable"></line><path d="M152.39,162a4.05,4.05,0,1,0-4,4.06A4,4,0,0,0,152.39,162Z" style="fill: rgb(38, 50, 56); transform-origin: 148.34px 162.01px;" id="elcutcnb3lso6" class="animable"></path><path d="M142.77,189.06s-9.12,11.65-15.71,17.48-2.28,10.29,0,15.11,6.33,30.74,7.6,39.86-3.29,38.51-4.56,55.23,9.37,31.41,14.44,33.94,8.36-1,14.19-12.66.76-24.58-2.54-39-9.37-38-9.37-38,5.32-1.52,5.83-6.58-1.52-12.92-1.52-12.92,15.45.25,21.53-.76,12.66-2.54,8.1-3.55-8.61,0-17.73-.51a35.78,35.78,0,0,1-16.25-5.3,35,35,0,0,1,13.7-3.32c6.78-.31,14.21,1.46,18.26.6,3.81-.8,6.54-2.09,5-3.61s-4.33-1-10-2c-3.36-.57-8.65-3.59-13.65-3.61a46.29,46.29,0,0,0-13,2.05c-1,0,6.41-6.63,9.45-7.39s13.35,3.08,17.66,3.08,9.37-1.52,9.62-3.29,1.78-2.54-4.05-2.79-14.44-3.55-19.5-5.32-8.62-.25-11.66,1.27-10.64,4.3-10.64,4.3l9.72-12.62s10.55,4.52,16.63,4.26,13.43-4.56,10.89-5.82-8.1-.51-17.48-3.3S146.31,186.27,142.77,189.06Z" style="fill: rgb(255, 255, 255); transform-origin: 153.871px 269.838px;" id="eltbx51fb5m7" class="animable"></path><g style="clip-path: url(&quot;#freepik--clip-path-9--inject-10&quot;); transform-origin: 140.763px 278.996px;" id="el64eypoaukxh" class="animable"><path d="M127.06,221.65c2.28,4.81,6.33,30.74,7.6,39.86s-3.29,38.51-4.56,55.23,9.37,31.41,14.44,33.94c4.84,2.42,8.07-.73,13.43-11.18-.66.73-1.44,1.54-2.37,2.47-5.5,5.51-9.63,6.42-13.75-6.42s-1.84-55.48-2.75-68.32a150.23,150.23,0,0,1,.46-24.76s-.34-8.56-6.88-18.34-5.62-17.59-5.62-17.59C120.47,212.37,124.78,216.83,127.06,221.65Z" style="fill: rgb(229, 36, 33); transform-origin: 140.763px 278.996px;" id="elopo6boadckk" class="animable"></path><g id="eli2hi8jz2wuj"><path d="M127.06,221.65c2.28,4.81,6.33,30.74,7.6,39.86s-3.29,38.51-4.56,55.23,9.37,31.41,14.44,33.94c4.84,2.42,8.07-.73,13.43-11.18-.66.73-1.44,1.54-2.37,2.47-5.5,5.51-9.63,6.42-13.75-6.42s-1.84-55.48-2.75-68.32a150.23,150.23,0,0,1,.46-24.76s-.34-8.56-6.88-18.34-5.62-17.59-5.62-17.59C120.47,212.37,124.78,216.83,127.06,221.65Z" style="fill: rgb(255, 255, 255); opacity: 0.5; transform-origin: 140.763px 278.996px;" class="animable"></path></g></g><path d="M142.77,189.06s-9.12,11.65-15.71,17.48-2.28,10.29,0,15.11,6.33,30.74,7.6,39.86-3.29,38.51-4.56,55.23,9.37,31.41,14.44,33.94,8.36-1,14.19-12.66.76-24.58-2.54-39-9.37-38-9.37-38,5.32-1.52,5.83-6.58-1.52-12.92-1.52-12.92,15.45.25,21.53-.76,12.66-2.54,8.1-3.55-8.61,0-17.73-.51a35.78,35.78,0,0,1-16.25-5.3,35,35,0,0,1,13.7-3.32c6.78-.31,14.21,1.46,18.26.6,3.81-.8,6.54-2.09,5-3.61s-4.33-1-10-2c-3.36-.57-8.65-3.59-13.65-3.61a46.29,46.29,0,0,0-13,2.05c-1,0,6.41-6.63,9.45-7.39s13.35,3.08,17.66,3.08,9.37-1.52,9.62-3.29,1.78-2.54-4.05-2.79-14.44-3.55-19.5-5.32-8.62-.25-11.66,1.27-10.64,4.3-10.64,4.3l9.72-12.62s10.55,4.52,16.63,4.26,13.43-4.56,10.89-5.82-8.1-.51-17.48-3.3S146.31,186.27,142.77,189.06Z" style="fill: none; stroke: rgb(38, 50, 56); stroke-linecap: round; stroke-linejoin: round; transform-origin: 153.871px 269.838px;" id="el2zanhemjag4" class="animable"></path><line x1="151.13" y1="241.5" x2="144.29" y2="241.5" style="fill: rgb(255, 255, 255); stroke: rgb(38, 50, 56); stroke-linecap: round; stroke-linejoin: round; transform-origin: 147.71px 241.5px;" id="elzh5y5fe0yei" class="animable"></line></g><defs>     <filter id="active" height="200%">         <feMorphology in="SourceAlpha" result="DILATED" operator="dilate" radius="2"></feMorphology>                <feFlood flood-color="#32DFEC" flood-opacity="1" result="PINK"></feFlood>        <feComposite in="PINK" in2="DILATED" operator="in" result="OUTLINE"></feComposite>        <feMerge>            <feMergeNode in="OUTLINE"></feMergeNode>            <feMergeNode in="SourceGraphic"></feMergeNode>        </feMerge>    </filter>    <filter id="hover" height="200%">        <feMorphology in="SourceAlpha" result="DILATED" operator="dilate" radius="2"></feMorphology>                <feFlood flood-color="#ff0000" flood-opacity="0.5" result="PINK"></feFlood>        <feComposite in="PINK" in2="DILATED" operator="in" result="OUTLINE"></feComposite>        <feMerge>            <feMergeNode in="OUTLINE"></feMergeNode>            <feMergeNode in="SourceGraphic"></feMergeNode>        </feMerge>            <feColorMatrix type="matrix" values="0   0   0   0   0                0   1   0   0   0                0   0   0   0   0                0   0   0   1   0 "></feColorMatrix>    </filter></defs><defs><clipPath id="freepik--clip-path--inject-10"><path d="M261.58,222.25s1-11.66-5.32-20.27-17.23-12.16-29.39-7.35-13.43,17-13.17,26.35,3.29,26.09,6.58,31.92,9.12,12.66,17.74,10.89,18-13.68,20.26-19a43.09,43.09,0,0,0,2.79-8.11s8.36-4.81,8.61-10.89S266.14,213.13,261.58,222.25Z" style="fill:#fff;stroke:#263238;stroke-linecap:round;stroke-linejoin:round"></path></clipPath><clipPath id="freepik--clip-path-2--inject-10"><path d="M214.46,226.3s-2.79-4.81-4.82-.25,6.08,15.19,7.6,13.42S214.46,226.3,214.46,226.3Z" style="fill:#E52421;stroke:#263238;stroke-linecap:round;stroke-linejoin:round"></path></clipPath><clipPath id="freepik--clip-path-3--inject-10"><path d="M129.74,409.53s2.39-8.94,6.19-23.89S163,277.47,177,262s19.75-.51,34.45,5.32,18.24,6.58,18.24,6.58,3,.51,12.41,5.58,13.43,6.84,21.79,9.37,19.25,8.36,13.93,25.84S258,358.79,257,377.54s4.07,32,4.07,32" style="fill:#fff;stroke:#263238;stroke-linecap:round;stroke-linejoin:round"></path></clipPath><clipPath id="freepik--clip-path-4--inject-10"><path d="M160.71,410.08s16.51-25.45,27.91-43.69,14.94-39.27,19-63.84,12.41-30.4,18-29.64,20.78,7.35,22.8,10.13,4.82,5.07,4.31,20.52-5.57,35.22-14.19,53.2S219,386.4,215,395s-4.81,14.19-4.81,14.19" style="fill:#E52421;stroke:#263238;stroke-linecap:round;stroke-linejoin:round"></path></clipPath><clipPath id="freepik--clip-path-5--inject-10"><path d="M222.56,252.9s3,5.32,0,16.72-12.16,38.5-8.1,56.74,11.14,21.79,20,15.46,14.69-21.28,17-38.76-5.32-19-1.77-29.9,4.31-26.6,4.31-26.6-10.9,6.34-18.75,7.35S222.56,252.9,222.56,252.9Z" style="fill:#fff;stroke:#263238;stroke-linecap:round;stroke-linejoin:round"></path></clipPath><clipPath id="freepik--clip-path-6--inject-10"><path d="M229.4,210.59s-.76,9.38-3.8,11.15-10.89,4.31-14.18,1.77-6.84-11.14-4.31-13.17,16.21-4.56,18.49-4.56S229.4,207.81,229.4,210.59Z" style="fill:#fff;stroke:#263238;stroke-linecap:round;stroke-linejoin:round"></path></clipPath><clipPath id="freepik--clip-path-7--inject-10"><path d="M238.46,209.25s2.67,9,6,10.13,11.54,2,14.24-1.18,4.41-12.31,1.52-13.78-16.81-1.13-19-.66S237.89,206.52,238.46,209.25Z" style="fill:#fff;stroke:#263238;stroke-linecap:round;stroke-linejoin:round"></path></clipPath><clipPath id="freepik--clip-path-8--inject-10"><path d="M205.34,266.58c-.76-.26-3.55-8.36-14.7-12.16s-17.48,3-23,12.66-11.65,27.11-16,35.72S139,317,138.71,328.14s4.82,18,11.15,17.48,11.4-7.6,20.77-20.52,18.49-35.72,18.49-35.72" style="fill:#fff;stroke:#263238;stroke-linecap:round;stroke-linejoin:round"></path></clipPath><clipPath id="freepik--clip-path-9--inject-10"><path d="M142.77,189.06s-9.12,11.65-15.71,17.48-2.28,10.29,0,15.11,6.33,30.74,7.6,39.86-3.29,38.51-4.56,55.23,9.37,31.41,14.44,33.94,8.36-1,14.19-12.66.76-24.58-2.54-39-9.37-38-9.37-38,5.32-1.52,5.83-6.58-1.52-12.92-1.52-12.92,15.45.25,21.53-.76,12.66-2.54,8.1-3.55-8.61,0-17.73-.51a35.78,35.78,0,0,1-16.25-5.3,35,35,0,0,1,13.7-3.32c6.78-.31,14.21,1.46,18.26.6,3.81-.8,6.54-2.09,5-3.61s-4.33-1-10-2c-3.36-.57-8.65-3.59-13.65-3.61a46.29,46.29,0,0,0-13,2.05c-1,0,6.41-6.63,9.45-7.39s13.35,3.08,17.66,3.08,9.37-1.52,9.62-3.29,1.78-2.54-4.05-2.79-14.44-3.55-19.5-5.32-8.62-.25-11.66,1.27-10.64,4.3-10.64,4.3l9.72-12.62s10.55,4.52,16.63,4.26,13.43-4.56,10.89-5.82-8.1-.51-17.48-3.3S146.31,186.27,142.77,189.06Z" style="fill:#fff;stroke:#263238;stroke-linecap:round;stroke-linejoin:round"></path></clipPath></defs></svg>