<svg class="animated" id="freepik_stories-social-share" xmlns="http://www.w3.org/2000/svg" viewBox="0 0 500 500" version="1.1" xmlns:xlink="http://www.w3.org/1999/xlink" xmlns:svgjs="http://svgjs.com/svgjs"><style>svg#freepik_stories-social-share:not(.animated) .animable {opacity: 0;}svg#freepik_stories-social-share.animated #freepik--Plant--inject-157 {animation: 1.5s Infinite  linear wind;animation-delay: 0s;}svg#freepik_stories-social-share.animated #freepik--Screen--inject-157 {animation: 1.5s Infinite  linear floating;animation-delay: 0s;}svg#freepik_stories-social-share.animated #freepik--Sparkles--inject-157 {animation: 1.5s Infinite  linear wind;animation-delay: 0s;}svg#freepik_stories-social-share.animated #freepik--Icons--inject-157 {animation: 3s Infinite  linear floating;animation-delay: 0s;}            @keyframes wind {                0% {                    transform: rotate( 0deg );                }                25% {                    transform: rotate( 1deg );                }                75% {                    transform: rotate( -1deg );                }            }                    @keyframes floating {                0% {                    opacity: 1;                    transform: translateY(0px);                }                50% {                    transform: translateY(-10px);                }                100% {                    opacity: 1;                    transform: translateY(0px);                }            }        </style><g id="freepik--Floor--inject-157" class="animable" style="transform-origin: 250px 361.97px;"><ellipse cx="250" cy="361.97" rx="214.18" ry="123.66" style="fill: rgb(245, 245, 245); transform-origin: 250px 361.97px;" id="elr4fih4muc4" class="animable"></ellipse></g><g id="freepik--Shadows--inject-157" class="animable" style="transform-origin: 247.436px 368.31px;"><path d="M412.6,391.41,262,304.44a17.67,17.67,0,0,0-17.68,0L191,335.18a5.76,5.76,0,0,0,0,10l150.64,87a17.67,17.67,0,0,0,17.68,0L412.6,401.4A5.76,5.76,0,0,0,412.6,391.41Z" style="fill: rgb(224, 224, 224); transform-origin: 301.796px 368.31px;" id="el0549uoay2wrs" class="animable"></path><ellipse cx="126.33" cy="391.73" rx="46.95" ry="27.1" style="fill: rgb(224, 224, 224); transform-origin: 126.33px 391.73px;" id="elip121fxx5r" class="animable"></ellipse></g><g id="freepik--Plant--inject-157" class="animable animator-active" style="transform-origin: 70.6136px 342.291px;"><path d="M85.35,360.83l-9.13,5.3s4.6-14.7,2-29.5a28.4,28.4,0,0,0-3.72-9.85c-.72-1.49-6.22-10.72-1.37-15s16.21,4.21,15.7,27A88.67,88.67,0,0,1,85.35,360.83Z" style="fill: #E82828; transform-origin: 79.9988px 338.421px;" id="elewmn6yjfr1" class="animable"></path><g id="el8fa3a2s4ibm"><path d="M85.35,360.83l-9.13,5.3s4.6-14.7,2-29.5a28.4,28.4,0,0,0-3.72-9.85c-.72-1.49-6.22-10.72-1.37-15s16.21,4.21,15.7,27A88.67,88.67,0,0,1,85.35,360.83Z" style="opacity: 0.3; transform-origin: 79.9988px 338.421px;" class="animable" id="elkrac4z8vxb8"></path></g><path d="M81.1,363.72a.32.32,0,0,1-.14,0,.42.42,0,0,1-.26-.54c0-.09,3.44-9.55,3.26-24.76s-8.07-23.14-8.15-23.22a.42.42,0,0,1,.6-.6c.08.08,8.21,8.33,8.39,23.81s-3.27,25-3.3,25.06A.43.43,0,0,1,81.1,363.72Z" style="fill: rgb(255, 255, 255); transform-origin: 80.2469px 339.102px;" id="elupnqa615aq" class="animable"></path><path d="M78.26,365l-15.08,8.87s-6.91-1-6.38-7.52,3.32-8-.17-10.89-4.4-3-4.23-5.84,2.05-4,2.94-5.13S58.7,341,57,337.64s-4.1-6.63-.6-8.18c2.09-.93,5.6.23,7.93,2.7s4.24,4.25,6.45,4.82,6.8.62,6.65,4.42-1.14,5.11-.22,6.8C78.9,351.37,86.32,353.09,78.26,365Z" style="fill: #E82828; transform-origin: 67.1635px 351.505px;" id="eljmfboo5pbrb" class="animable"></path><path d="M72.12,369h0a.43.43,0,0,1-.39-.46c0-.22,1.62-22.32-13.71-36.81a.43.43,0,0,1,0-.6.41.41,0,0,1,.59,0c15.63,14.77,14,37.26,14,37.49A.42.42,0,0,1,72.12,369Z" style="fill: rgb(255, 255, 255); transform-origin: 65.2783px 350.005px;" id="elr9zxiz2gy3" class="animable"></path><path d="M69.42,349.73h0a.41.41,0,0,1-.39-.45,13.35,13.35,0,0,1,4.93-9.58.42.42,0,0,1,.59.09.43.43,0,0,1-.1.59,12.83,12.83,0,0,0-4.58,9A.42.42,0,0,1,69.42,349.73Z" style="fill: rgb(255, 255, 255); transform-origin: 71.8268px 344.674px;" id="eliy9q94umdl" class="animable"></path><path d="M70.53,353.57a.43.43,0,0,1-.31-.14s-3.84-4.1-12.46-2.91a.42.42,0,0,1-.11-.84c9.08-1.25,13,3,13.2,3.19a.41.41,0,0,1,0,.59A.38.38,0,0,1,70.53,353.57Z" style="fill: rgb(255, 255, 255); transform-origin: 64.1296px 351.512px;" id="el8sac0qks31s" class="animable"></path></g><g id="freepik--Device--inject-157" class="animable" style="transform-origin: 313.095px 218.999px;"><path d="M366.82,408.93l-121.5-70.15c-8.57-4.94-15.52-18.22-15.52-29.65V49c0-11.43,6.95-16.68,15.52-11.73l121.5,70.15c8.58,4.95,15.53,18.22,15.53,29.65V397.2C382.35,408.63,375.4,413.88,366.82,408.93Z" style="fill: rgb(69, 90, 100); transform-origin: 306.075px 223.1px;" id="elpvm6yy7it8j" class="animable"></path><path d="M380.82,99.21,259.31,29.06c-3.66-2.11-7-2.36-9.68-1.06h0a7.43,7.43,0,0,0-.94.55l-13.61,7.91c2.73-1.63,6.32-1.51,10.25.76l121.5,70.15c8.58,4.95,15.53,18.22,15.53,29.65V397.2c0,6-2,10.36-5,12.35l13.43-7.82h0c3.42-1.83,5.6-6.29,5.6-12.69V128.87C396.34,117.44,389.39,104.16,380.82,99.21Z" style="fill: rgb(55, 71, 79); transform-origin: 315.735px 218.377px;" id="el61akk4lerp" class="animable"></path><path d="M382.35,137V397.2c0,6-2,10.36-5,12.35l13.43-7.82h0c3.42-1.83,5.6-6.29,5.6-12.69V128.85l-14,8.12Z" style="fill: rgb(38, 50, 56); transform-origin: 386.865px 269.2px;" id="eltjkip8sft8i" class="animable"></path><polygon points="396.34 149.07 382.35 157.15 382.35 163.45 396.34 155.38 396.34 149.07" style="fill: rgb(55, 71, 79); transform-origin: 389.345px 156.26px;" id="el2oqted793v" class="animable"></polygon><path d="M390.21,191h0c-1.25.73-2.27,0-2.27-1.71V175.76a5.43,5.43,0,0,1,2.27-4.33h0c1.25-.72,2.26,0,2.26,1.71v13.57A5.42,5.42,0,0,1,390.21,191Z" style="fill: rgb(55, 71, 79); transform-origin: 390.205px 181.217px;" id="elbzreflm4tgl" class="animable"></path><path d="M387.94,189.33V175.76a5.43,5.43,0,0,1,2.27-4.33,1.47,1.47,0,0,1,1.43-.13v0l-1.69-.87h0a1.46,1.46,0,0,0-1.47.11,5.43,5.43,0,0,0-2.27,4.33v13.57a2,2,0,0,0,.77,1.81h0l1.78.93v0A2,2,0,0,1,387.94,189.33Z" style="fill: rgb(69, 90, 100); transform-origin: 388.919px 180.731px;" id="elzyodt85jcyo" class="animable"></path><path d="M390.21,223.89h0c-1.25.72-2.27,0-2.27-1.71V208.61a5.43,5.43,0,0,1,2.27-4.33h0c1.25-.72,2.26,0,2.26,1.71v13.57A5.42,5.42,0,0,1,390.21,223.89Z" style="fill: rgb(55, 71, 79); transform-origin: 390.205px 214.085px;" id="el0fx200zw147p" class="animable"></path><path d="M387.94,222.18V208.61a5.43,5.43,0,0,1,2.27-4.33,1.44,1.44,0,0,1,1.43-.13v0l-1.69-.88v0a1.42,1.42,0,0,0-1.47.11,5.43,5.43,0,0,0-2.27,4.33v13.57a2,2,0,0,0,.77,1.81h0l1.78.93v0A2,2,0,0,1,387.94,222.18Z" style="fill: rgb(69, 90, 100); transform-origin: 388.919px 213.568px;" id="el228iwimj09u" class="animable"></path><path d="M362.6,114.68l-119.41-69a3.29,3.29,0,0,0-4.94,2.85V309.13c0,8.7,6.16,19.37,13.7,23.72l116.51,67.27A3.63,3.63,0,0,0,373.9,397V134.25C373.9,127.08,368.81,118.27,362.6,114.68Z" style="fill: #E82828; transform-origin: 306.075px 222.92px;" id="elgl79fvc76fq" class="animable"></path><g id="elovbb9jrv7s8"><path d="M362.6,114.68l-119.41-69a3.29,3.29,0,0,0-4.94,2.85V309.13c0,8.7,6.16,19.37,13.7,23.72l116.51,67.27A3.63,3.63,0,0,0,373.9,397V134.25C373.9,127.08,368.81,118.27,362.6,114.68Z" style="fill: rgb(255, 255, 255); opacity: 0.5; transform-origin: 306.075px 222.92px;" class="animable" id="elvos2grz1qec"></path></g><polygon points="278.89 63.73 280.74 71.52 320.32 94.34 327.16 90.7 278.89 63.73" style="fill: rgb(69, 90, 100); transform-origin: 303.025px 79.035px;" id="elrqc0hqpiu1" class="animable"></polygon><path d="M290.53,71.26c0,1.29-.91,1.81-2,1.17a4.49,4.49,0,0,1-2-3.51c0-1.29.91-1.82,2-1.17A4.49,4.49,0,0,1,290.53,71.26Z" style="fill: rgb(38, 50, 56); transform-origin: 288.53px 70.0878px;" id="elvyf7c16610e" class="animable"></path><path d="M317.19,87.74a1.27,1.27,0,0,1-.62-.16l-20.21-11.3a1.27,1.27,0,1,1,1.24-2.21l20.21,11.29a1.27,1.27,0,0,1-.62,2.38Z" style="fill: rgb(38, 50, 56); transform-origin: 307.049px 80.8013px;" id="elxr76s2830l" class="animable"></path></g><g id="freepik--Screen--inject-157" class="animable" style="transform-origin: 277.783px 238.771px;"><path d="M214.27,351.36c26.1,15.57,94,56.1,127.61,76.34a6.6,6.6,0,0,0,10-5.66V141.21a18.31,18.31,0,0,0-9.05-15.81L213.66,49.7a6.6,6.6,0,0,0-9.94,5.7V332.78A21.61,21.61,0,0,0,214.27,351.36Z" style="fill: rgb(245, 245, 245); transform-origin: 277.8px 238.718px;" id="el5vv6c47txq6" class="animable"></path><path d="M213.76,352.22Q245.2,371,276.62,389.76l36.71,22,16.4,9.84L337,426c2.23,1.34,4.59,3.27,7.23,3.63a7.69,7.69,0,0,0,8.62-7.58c0-.49,0-1,0-1.48V161.83c0-6.74,0-13.48,0-20.22A19.76,19.76,0,0,0,343,124.36c-2.95-1.75-5.91-3.47-8.87-5.2L291.86,94.37,241.65,65C232.6,59.64,223.59,54.23,214.47,49a7.71,7.71,0,0,0-11.75,6.8c0,2.22,0,4.44,0,6.66V310q0,11,0,22a23.24,23.24,0,0,0,11,20.2c1.1.68,2.11-1.05,1-1.72-6.78-4.17-10.05-11.19-10.05-19V77c0-7,0-14,0-21a6.06,6.06,0,0,1,1.94-4.87c2.23-1.9,4.92-1.51,7.24-.15l10,5.86L266.72,82l49.06,28.76c8.76,5.13,17.55,10.23,26.29,15.4a17.87,17.87,0,0,1,8.81,15.8c0,2.38,0,4.77,0,7.16v271c0,.6,0,1.21,0,1.81a5.68,5.68,0,0,1-8.82,4.77c-10.3-6.08-20.52-12.33-30.78-18.48Q275.65,386.83,240,365.55L214.77,350.5A1,1,0,0,0,213.76,352.22Z" style="fill: rgb(224, 224, 224); transform-origin: 277.783px 238.771px;" id="ela1o6l8dvz0m" class="animable"></path><path d="M281.5,383.12l-8.31-4.79a6.59,6.59,0,0,1-2.76-5.27v-8.61c0-2,1.23-3,2.76-2.09l8.31,4.8a6.61,6.61,0,0,1,2.75,5.27V381C284.25,383.07,283,384,281.5,383.12Z" style="fill: rgb(224, 224, 224); transform-origin: 277.34px 372.736px;" id="elzy198octbc" class="animable"></path><path d="M277.34,376.82a1.89,1.89,0,0,1-.86-1.49v-6.16c0-.55.38-.78.86-.5a1.88,1.88,0,0,1,.86,1.49v6.16C278.2,376.87,277.82,377.09,277.34,376.82Z" style="fill: rgb(255, 255, 255); transform-origin: 277.34px 372.743px;" id="elf1dgpeuep1v" class="animable"></path><path d="M280,375.28l-5.34-3.08a1.92,1.92,0,0,1-.86-1.49c0-.55.39-.78.86-.5l5.34,3.08a1.91,1.91,0,0,1,.86,1.49C280.87,375.33,280.48,375.55,280,375.28Z" style="fill: rgb(255, 255, 255); transform-origin: 277.33px 372.743px;" id="elwb82t0qy0fa" class="animable"></path><path d="M251.35,352.61a6.62,6.62,0,0,1,2.34,2.46c1.29,2.23,1.29,4.65,0,5.4a2.33,2.33,0,0,1-2.34-.23,7.35,7.35,0,0,1-3.3-5.72,2,2,0,0,1,3.3-1.91m0-2a3.54,3.54,0,0,0-3.55-.35c-2,1.13-2,4.8,0,8.2a10.24,10.24,0,0,0,3.55,3.75,3.57,3.57,0,0,0,3.56.36c2-1.14,2-4.81,0-8.21a10.18,10.18,0,0,0-3.56-3.75Z" style="fill: rgb(224, 224, 224); transform-origin: 251.355px 356.412px;" id="elpog8jhn4jrm" class="animable"></path><path d="M258.66,370.08a1.83,1.83,0,0,1-.61-.65l-3.75-6.5c-.34-.58-.34-1.21,0-1.41s.88.12,1.22.71l3.75,6.5c.34.58.34,1.21,0,1.41A.65.65,0,0,1,258.66,370.08Z" style="fill: rgb(224, 224, 224); transform-origin: 256.785px 365.825px;" id="el4ofti2e46ch" class="animable"></path><path d="M309.53,383.72c-2.08-1.2-3.76.12-3.76,2.95,0-2.83-1.68-6.09-3.76-7.29s-3.75.12-3.75,2.95c0,7.19,7.51,14.6,7.51,14.6s7.52,1.27,7.52-5.93C313.29,388.18,311.6,384.92,309.53,383.72Z" style="fill: rgb(224, 224, 224); transform-origin: 305.775px 387.977px;" id="elk9q32cqk81" class="animable"></path><path d="M333.59,401.46c0,2.12-1.49,3-3.33,1.92a7.35,7.35,0,0,1-3.33-5.77c0-2.12,1.49-3,3.33-1.92A7.36,7.36,0,0,1,333.59,401.46Z" style="fill: rgb(224, 224, 224); transform-origin: 330.26px 399.535px;" id="elei7p3oeexnu" class="animable"></path><path d="M330.26,403.38h0c-2.72-1.57-4.92.1-4.92,3.73v1.12l9.85,5.69v-1.13C335.19,409.17,333,405,330.26,403.38Z" style="fill: rgb(224, 224, 224); transform-origin: 330.265px 408.355px;" id="elsceveyshy2" class="animable"></path><path d="M227.05,336.15l-6.64,2.19v9.31l5.15,3v-5.08c0-.95.67-1.34,1.49-.86a3.31,3.31,0,0,1,1.5,2.59v5.07l5.15,3V346Z" style="fill: rgb(224, 224, 224); transform-origin: 227.055px 345.76px;" id="elc0n2stb7qkj" class="animable"></path><path d="M250.31,326.57l-30.86-17.81c-2.43-1.41-4.4-5.17-4.4-8.4V266.29c0-3.24,2-4.72,4.4-3.32l30.86,17.82c2.43,1.4,4.39,5.16,4.39,8.4v34.06C254.7,326.49,252.74,328,250.31,326.57Z" style="fill: #E82828; transform-origin: 234.875px 294.776px;" id="elp7oz8lwiho" class="animable"></path><g id="el27x6emrfedk"><path d="M250.31,326.57l-30.86-17.81c-2.43-1.41-4.4-5.17-4.4-8.4V266.29c0-3.24,2-4.72,4.4-3.32l30.86,17.82c2.43,1.4,4.39,5.16,4.39,8.4v34.06C254.7,326.49,252.74,328,250.31,326.57Z" style="fill: rgb(255, 255, 255); opacity: 0.5; transform-origin: 234.875px 294.776px;" class="animable" id="elejkmql6mgeo"></path></g><polygon points="219.7 297.11 250.06 314.64 241.09 291.31 234.88 298.68 228.53 289.64 219.7 297.11" style="fill: #E82828; transform-origin: 234.88px 302.14px;" id="elw0z87rt1ne" class="animable"></polygon><path d="M230.23,282.56a6.11,6.11,0,0,0,2.77,4.79c1.53.89,2.77.17,2.77-1.6A6.11,6.11,0,0,0,233,281C231.47,280.08,230.23,280.79,230.23,282.56Z" style="fill: #E82828; transform-origin: 233px 284.164px;" id="els9amu66hyym" class="animable"></path><path d="M293.23,351.37l-30.86-17.81c-2.43-1.41-4.4-5.17-4.4-8.4V291.09c0-3.24,2-4.72,4.4-3.32l30.86,17.82c2.43,1.4,4.4,5.16,4.4,8.4v34.06C297.63,351.29,295.66,352.78,293.23,351.37Z" style="fill: #E82828; transform-origin: 277.8px 319.572px;" id="el4qtni8al8qn" class="animable"></path><g id="elsgfx30fa76"><path d="M293.23,351.37l-30.86-17.81c-2.43-1.41-4.4-5.17-4.4-8.4V291.09c0-3.24,2-4.72,4.4-3.32l30.86,17.82c2.43,1.4,4.4,5.16,4.4,8.4v34.06C297.63,351.29,295.66,352.78,293.23,351.37Z" style="fill: rgb(255, 255, 255); opacity: 0.5; transform-origin: 277.8px 319.572px;" class="animable" id="elaoixy7ihcxb"></path></g><polygon points="262.62 321.91 292.98 339.44 284.01 316.11 277.8 323.48 271.45 314.44 262.62 321.91" style="fill: #E82828; transform-origin: 277.8px 326.94px;" id="elypmy1x0y7yo" class="animable"></polygon><path d="M273.15,307.36a6.11,6.11,0,0,0,2.77,4.79c1.53.89,2.77.17,2.77-1.6a6.11,6.11,0,0,0-2.77-4.79C274.39,304.88,273.15,305.59,273.15,307.36Z" style="fill: #E82828; transform-origin: 275.92px 308.957px;" id="elwzvxqhfprto" class="animable"></path><path d="M336.16,376.17l-30.87-17.81c-2.42-1.41-4.39-5.17-4.39-8.4V315.89c0-3.24,2-4.72,4.39-3.32l30.87,17.82c2.42,1.4,4.39,5.16,4.39,8.4v34.06C340.55,376.09,338.58,377.58,336.16,376.17Z" style="fill: #E82828; transform-origin: 320.725px 344.372px;" id="el5uep02bgq8c" class="animable"></path><g id="elodj1e84tf1"><path d="M336.16,376.17l-30.87-17.81c-2.42-1.41-4.39-5.17-4.39-8.4V315.89c0-3.24,2-4.72,4.39-3.32l30.87,17.82c2.42,1.4,4.39,5.16,4.39,8.4v34.06C340.55,376.09,338.58,377.58,336.16,376.17Z" style="fill: rgb(255, 255, 255); opacity: 0.5; transform-origin: 320.725px 344.372px;" class="animable" id="elq0hv3kh6p5"></path></g><polygon points="305.55 346.71 335.9 364.24 326.94 340.9 320.73 348.28 314.37 339.24 305.55 346.71" style="fill: #E82828; transform-origin: 320.725px 351.74px;" id="elxsv0t8v0gm" class="animable"></polygon><path d="M316.08,332.16a6.11,6.11,0,0,0,2.77,4.79c1.53.89,2.76.17,2.76-1.6a6.1,6.1,0,0,0-2.76-4.79C317.32,329.67,316.08,330.39,316.08,332.16Z" style="fill: #E82828; transform-origin: 318.845px 333.755px;" id="elo55r2gewyal" class="animable"></path><path d="M351.88,400.39a.66.66,0,0,1-.33-.09L203.42,314.78a.67.67,0,1,1,.67-1.17l148.13,85.52a.68.68,0,0,1,.25.93A.69.69,0,0,1,351.88,400.39Z" style="fill: rgb(224, 224, 224); transform-origin: 277.821px 356.955px;" id="el48u7v3zlyq5" class="animable"></path><path d="M351.88,322.45a.66.66,0,0,1-.33-.09L203.42,236.84a.68.68,0,0,1,.67-1.18l148.13,85.53a.66.66,0,0,1,.25.92A.68.68,0,0,1,351.88,322.45Z" style="fill: rgb(224, 224, 224); transform-origin: 277.84px 279.021px;" id="elf8yizz6x0go" class="animable"></path><path d="M342.83,125.4,213.66,49.7a6.6,6.6,0,0,0-9.94,5.7V67.58h0l148.12,85.53v-11.9A18.31,18.31,0,0,0,342.83,125.4Z" style="fill: rgb(224, 224, 224); transform-origin: 277.78px 100.951px;" id="elkxvucrneug" class="animable"></path><g id="eljdbnl3ywpom"><ellipse cx="239.94" cy="147.39" rx="20.43" ry="35.39" style="fill: #E82828; transform-origin: 239.94px 147.39px; transform: rotate(-30deg);" class="animable" id="elfemi19cv2hd"></ellipse></g><g id="ell1n6z6enex"><ellipse cx="222.56" cy="223.88" rx="6.41" ry="11.1" style="fill: rgb(224, 224, 224); transform-origin: 222.56px 223.88px; transform: rotate(-30deg);" class="animable" id="elzcq30hn7it9"></ellipse></g><path d="M249.3,239.62c0,5-3.52,7-7.85,4.54a17.38,17.38,0,0,1-7.86-13.6c0-5,3.52-7,7.86-4.53A17.36,17.36,0,0,1,249.3,239.62Z" style="fill: rgb(224, 224, 224); transform-origin: 241.445px 235.092px;" id="elv799g5ecu7o" class="animable"></path><path d="M268.18,250.83c0,5-3.51,7-7.85,4.53a17.36,17.36,0,0,1-7.85-13.6c0-5,3.52-7,7.85-4.53A17.33,17.33,0,0,1,268.18,250.83Z" style="fill: rgb(224, 224, 224); transform-origin: 260.33px 246.295px;" id="eldlxhdjsmcb" class="animable"></path><path d="M287.07,261.64c0,5-3.51,7-7.85,4.54a17.39,17.39,0,0,1-7.85-13.6c0-5,3.52-7,7.85-4.53A17.33,17.33,0,0,1,287.07,261.64Z" style="fill: rgb(224, 224, 224); transform-origin: 279.22px 257.112px;" id="elnvxezxaqw2" class="animable"></path><g id="elrw698ooot8e"><ellipse cx="298.11" cy="267.63" rx="6.41" ry="11.1" style="fill: rgb(224, 224, 224); transform-origin: 298.11px 267.63px; transform: rotate(-30deg);" class="animable" id="el10xs3vh318p"></ellipse></g><g id="elj4qtqm2zxrr"><ellipse cx="318.08" cy="278.83" rx="6.41" ry="11.1" style="fill: rgb(224, 224, 224); transform-origin: 318.08px 278.83px; transform: rotate(-30deg);" class="animable" id="ellsv2c4qhr2"></ellipse></g><path d="M265,204a1,1,0,0,1-.5-.13l-50.05-28.9a1,1,0,0,1-.37-1.36,1,1,0,0,1,1.37-.37l50.05,28.9A1,1,0,0,1,265,204Z" style="fill: #E82828; transform-origin: 239.97px 188.553px;" id="el0dwhkxvv0ehn" class="animable"></path><path d="M295.92,232.36a.9.9,0,0,1-.5-.14l-81-46.76a1,1,0,1,1,1-1.73l81,46.76a1,1,0,0,1,.36,1.37A1,1,0,0,1,295.92,232.36Z" style="fill: #E82828; transform-origin: 255.4px 207.967px;" id="el49z0zdx91qx" class="animable"></path><path d="M340.44,270.2a1,1,0,0,1-.5-.13L214.42,197.59a1,1,0,0,1-.37-1.36,1,1,0,0,1,1.37-.37l125.52,72.47a1,1,0,0,1-.5,1.87Z" style="fill: #E82828; transform-origin: 277.683px 232.963px;" id="elm7m0bcx3w9a" class="animable"></path><path d="M338.06,281.41c-4.34-2.5-7.85-.47-7.85,4.53a17.33,17.33,0,0,0,7.85,13.6Z" style="fill: rgb(224, 224, 224); transform-origin: 334.135px 289.94px;" id="el6twdkt1bvpv" class="animable"></path><path d="M296.68,164.82a.94.94,0,0,1-.42-.11l-15.43-8.92a.82.82,0,1,1,.82-1.43l15.44,8.91a.83.83,0,0,1-.41,1.55Z" style="fill: #E82828; transform-origin: 288.961px 159.535px;" id="el4st440b14a" class="animable"></path><path d="M282.26,149.72V144l-1.16-.67v-1.78l3.09,1.79v7.51Z" style="fill: rgb(55, 71, 79); transform-origin: 282.645px 146.2px;" id="el0ke0mdf2caa9" class="animable"></path><path d="M291.23,151.14c0,2.47-1.06,3.22-2.94,2.13a6,6,0,0,1-2.94-5.52c0-2.45,1-3.21,2.94-2.11A6.05,6.05,0,0,1,291.23,151.14Zm-3.9-2.25c0,1.61.27,2.36,1,2.77s.95-.06.95-1.66-.27-2.36-.95-2.75S287.33,147.29,287.33,148.89Z" style="fill: rgb(55, 71, 79); transform-origin: 288.289px 149.453px;" id="elkcriufmz0f8" class="animable"></path><path d="M297.79,154.93c0,2.47-1.05,3.22-2.93,2.14a6.06,6.06,0,0,1-2.94-5.53c0-2.45,1-3.21,2.94-2.11A6,6,0,0,1,297.79,154.93Zm-3.89-2.25c0,1.61.27,2.37,1,2.77s.95,0,.95-1.66-.27-2.35-.95-2.74S293.9,151.08,293.9,152.68Z" style="fill: rgb(55, 71, 79); transform-origin: 294.855px 153.244px;" id="elw91k0ofv28" class="animable"></path><path d="M317.56,177.22a.87.87,0,0,1-.41-.11l-15.44-8.92a.82.82,0,1,1,.82-1.43L318,175.67a.83.83,0,0,1-.41,1.55Z" style="fill: #E82828; transform-origin: 309.856px 171.935px;" id="elpz3s8a9t1k" class="animable"></path><path d="M304.35,157.05v1l.42.24a4.63,4.63,0,0,1,2.52,3.71c0,1.6-1.05,2-2.68,1.09a9.16,9.16,0,0,1-2.6-2.47l.76-1.25a4.57,4.57,0,0,0,1.62,1.92c.54.31.83.19.82-.34a1.41,1.41,0,0,0-.82-1.22l-1.81-1v-4.39l4.42,2.55v1.74Z" style="fill: rgb(55, 71, 79); transform-origin: 304.65px 158.954px;" id="el4pii2wl6lib" class="animable"></path><path d="M313.77,164.5c0,2.46-1.06,3.21-2.93,2.13a6,6,0,0,1-2.94-5.52c0-2.45,1-3.21,2.94-2.11A6.06,6.06,0,0,1,313.77,164.5Zm-3.9-2.25c0,1.61.27,2.36,1,2.77s.94-.06.94-1.66-.27-2.36-.94-2.75S309.87,160.65,309.87,162.25Z" style="fill: rgb(55, 71, 79); transform-origin: 310.834px 162.809px;" id="elc74n8zaycp" class="animable"></path><path d="M320.34,168.29c0,2.47-1.06,3.22-2.93,2.14a6.05,6.05,0,0,1-3-5.53c0-2.45,1-3.21,3-2.11A6.06,6.06,0,0,1,320.34,168.29Zm-3.9-2.25c0,1.61.27,2.37,1,2.77s.94-.06.94-1.66-.27-2.35-.94-2.74S316.44,164.44,316.44,166Z" style="fill: rgb(55, 71, 79); transform-origin: 317.375px 166.604px;" id="elxl839zzzts" class="animable"></path><path d="M339.68,189.79a.78.78,0,0,1-.41-.12l-15.44-8.91a.82.82,0,1,1,.82-1.43l15.44,8.91a.83.83,0,0,1-.41,1.55Z" style="fill: #E82828; transform-origin: 331.961px 184.505px;" id="elx368u4v8ejh" class="animable"></path><path d="M325.26,174.69V169l-1.16-.67v-1.78l3.09,1.79v7.51Z" style="fill: rgb(55, 71, 79); transform-origin: 325.645px 171.2px;" id="elystshef70dg" class="animable"></path><path d="M330.41,171.9v1l.42.24a4.66,4.66,0,0,1,2.52,3.72c0,1.59-1,2-2.68,1.09a9,9,0,0,1-2.59-2.48l.76-1.24a4.62,4.62,0,0,0,1.61,1.92c.54.31.84.19.83-.34a1.43,1.43,0,0,0-.83-1.23l-1.81-1v-4.39l4.42,2.55v1.73Z" style="fill: rgb(55, 71, 79); transform-origin: 330.715px 173.808px;" id="eln60084sjvyr" class="animable"></path><path d="M339.83,179.35c0,2.46-1.06,3.21-2.93,2.13A6.06,6.06,0,0,1,334,176c0-2.46,1-3.22,2.94-2.12A6.07,6.07,0,0,1,339.83,179.35Zm-3.9-2.25c0,1.6.27,2.36,1,2.76s1-.05,1-1.66-.27-2.35-1-2.74S335.93,175.49,335.93,177.1Z" style="fill: rgb(55, 71, 79); transform-origin: 336.915px 177.675px;" id="eleqc823t9q2s" class="animable"></path><path d="M221.21,91.85c0,1.79-.9,2.43-2.29,1.63a3.65,3.65,0,0,1-1.43-1.57v2.75l-1.88-1.08V85.67l1.88,1.08v.68c.33-.29.81-.28,1.38,0A5.08,5.08,0,0,1,221.21,91.85Zm-1.9-1.15a2.12,2.12,0,0,0-.91-1.82c-.54-.32-.91,0-.91.77a2.13,2.13,0,0,0,.91,1.82C219,91.79,219.31,91.47,219.31,90.7Z" style="fill: rgb(55, 71, 79); transform-origin: 218.411px 90.165px;" id="el4d21xu76wtw" class="animable"></path><path d="M223.82,91.33c.36-.43.9-.48,1.59-.09v2c-1-.69-1.59-.58-1.59.27v2.78L222,95.16V89.33l1.87,1.08Z" style="fill: rgb(55, 71, 79); transform-origin: 223.705px 92.81px;" id="elnkexbbj8kmr" class="animable"></path><path d="M231.29,97.64c0,1.8-1.1,2.35-2.8,1.37a5.52,5.52,0,0,1-2.81-4.61c0-1.81,1.11-2.35,2.81-1.37A5.5,5.5,0,0,1,231.29,97.64Zm-3.72-2.13a2.1,2.1,0,0,0,.92,1.83c.55.31.91,0,.91-.77a2.1,2.1,0,0,0-.91-1.82C227.93,94.42,227.57,94.74,227.57,95.51Z" style="fill: rgb(55, 71, 79); transform-origin: 228.485px 96.0189px;" id="el9a672brjsv" class="animable"></path><path d="M232.29,95.07c0-1.26.84-1.51,2-.82a5,5,0,0,1,1,.78l-.07,1.67a2,2,0,0,0-.57-.54c-.32-.2-.53-.13-.53.24v.19l1,.6v1.4l-1-.61v4.22l-1.86-1.07V96.91l-.68-.4V95.12l.68.4Zm3.44.55c0-.65.4-.88,1-.55a2,2,0,0,1,1,1.67c0,.65-.4.88-1,.56A2,2,0,0,1,235.73,95.62Zm1.89,2.76v5.83l-1.87-1.09V97.3Z" style="fill: rgb(55, 71, 79); transform-origin: 234.655px 99.0418px;" id="elc9tnkdjrnxd" class="animable"></path><path d="M238.8,104.89v-8L240.67,98v8Z" style="fill: rgb(55, 71, 79); transform-origin: 239.735px 101.445px;" id="el98u8l62bobr" class="animable"></path><path d="M246.76,107.09l-3.4-2a2.19,2.19,0,0,0,1,1.44,1.14,1.14,0,0,0,1.11.08l1,1.67c-.53.37-1.29.3-2.24-.25a5.33,5.33,0,0,1-2.72-4.53c0-1.83,1.07-2.4,2.66-1.48A5.39,5.39,0,0,1,246.76,107.09ZM244.91,105a1.65,1.65,0,0,0-.76-1.43c-.43-.25-.73,0-.82.51Z" style="fill: rgb(55, 71, 79); transform-origin: 244.145px 105.049px;" id="elnr4iwrdeno" class="animable"></path></g><g id="freepik--Character--inject-157" class="animable" style="transform-origin: 191.59px 236.445px;"><polygon points="125.66 368.46 126.29 377.66 136.31 377.66 136.5 365.68 125.66 368.46" style="fill: rgb(255, 168, 167); transform-origin: 131.08px 371.67px;" id="elwwh4zdr3vm" class="animable"></polygon><path d="M96.57,375.65l0,9.31s1,2,5.52,2,3.82-4.33,3.82-4.33l.53-6.23Z" style="fill: rgb(255, 168, 167); transform-origin: 101.505px 381.305px;" id="ellinopi0gaqd" class="animable"></path><path d="M140,268.2l-1.36,98.41s-4.79,6.06-15.44,2.18l-2-44.74-4.56-53.27Z" style="fill: #E82828; transform-origin: 128.32px 319.144px;" id="el0t3d0nmj0x2f" class="animable"></path><g id="elfeffm20pzl8"><path d="M140,268.2l-1.36,98.41s-4.79,6.06-15.44,2.18l-2-44.74-4.56-53.27Z" style="opacity: 0.3; transform-origin: 128.32px 319.144px;" class="animable" id="ellzw2xh6hzx"></path></g><path d="M120.51,315.65l3.81-30.19s8.83-4.21,11.22-15.88l-16.51.94-2.36.26Z" style="fill: #E82828; transform-origin: 126.105px 292.615px;" id="ele7i0hgh039o" class="animable"></path><g id="eltymtfxwvuze"><path d="M120.51,315.65l3.81-30.19s8.83-4.21,11.22-15.88l-16.51.94-2.36.26Z" style="opacity: 0.5; transform-origin: 126.105px 292.615px;" class="animable" id="elimtv2nezp0i"></path></g><path d="M100.62,268.08l-2.37,52.34s-4.13,37.16-4.13,56.06a18.14,18.14,0,0,0,14.46,1.18l8.09-54.8,6.65-39.27s11.31-3.24,14.2-14.8Z" style="fill: #E82828; transform-origin: 115.82px 323.359px;" id="el4ajl8kgy45k" class="animable"></path><g id="el6w3h6y4jkap"><path d="M100.62,268.08l-2.37,52.34s-4.13,37.16-4.13,56.06a18.14,18.14,0,0,0,14.46,1.18l8.09-54.8,6.65-39.27s11.31-3.24,14.2-14.8Z" style="opacity: 0.3; transform-origin: 115.82px 323.359px;" class="animable" id="elb2sm73i26nl"></path></g><path d="M130.2,209.38l16.77.07a16.66,16.66,0,0,1,.95,13.33l-12.22.32Z" style="fill: rgb(55, 71, 79); transform-origin: 139.541px 216.24px;" id="elw4vnzepqlw" class="animable"></path><path d="M113.8,209.79s-6.52.82-8.54,1.35a19.29,19.29,0,0,0-3.89,1.28A2.76,2.76,0,0,0,99.88,215c.3,5.44,1.24,22.39,1.26,24.24,0,2.2-.52,28.8-.52,28.8s1.3,5.62,22.17,5.62c11.08,0,17.22-5.5,17.22-5.5s-.46-28.89-.74-35.8.91-20.69-9.07-23l-7.65-.13Z" style="fill: rgb(69, 90, 100); transform-origin: 119.944px 241.445px;" id="elbqz5zcmn8t" class="animable"></path><path d="M135.58,177.44s2.17,2.22,2.17,8.06-4.84,10.9-4.84,10.9V177.72Z" style="fill: rgb(38, 50, 56); transform-origin: 135.33px 186.92px;" id="elu7bj8rln51" class="animable"></path><path d="M135.58,179a6.72,6.72,0,0,0,3.36-5.26c.3-3.73-1.88-2.39-2.64-2.07s-3,1.15-3,1.15,2.08-2.16.84-3.6c-.91-1.07-5.32,2.29-10.89,2.95s-10.92.6-12.49,5.59c0,0-5.39,1.08-4.09,10.52s5.45,15.18,7.14,15.1Z" style="fill: rgb(38, 50, 56); transform-origin: 122.718px 186.196px;" id="elk1jvit1tbgo" class="animable"></path><rect x="113.8" y="196.4" width="11.75" height="13.39" style="fill: rgb(255, 168, 167); transform-origin: 119.675px 203.095px;" id="ely9xd77kisr" class="animable"></rect><path d="M125.55,208.21a12.83,12.83,0,0,1-10.68-9.52v-3.91h10.68Z" style="fill: rgb(242, 143, 143); transform-origin: 120.21px 201.495px;" id="elnu8agro753" class="animable"></path><path d="M127.6,175.47s11.05.42,9.06,18.22c-.94,8.38-1.63,13-8.79,13s-17.74-5.4-17.06-19.78S127.6,175.47,127.6,175.47Z" style="fill: rgb(255, 168, 167); transform-origin: 123.839px 190.956px;" id="el09nylluy2hss" class="animable"></path><polygon points="128.71 190.15 128.71 196.4 132.37 195.27 128.71 190.15" style="fill: rgb(242, 143, 143); transform-origin: 130.54px 193.275px;" id="elve6h3xjrac" class="animable"></polygon><path d="M123.37,191.23a1.27,1.27,0,1,0,1.27-1.27A1.27,1.27,0,0,0,123.37,191.23Z" style="fill: rgb(38, 50, 56); transform-origin: 124.64px 191.23px;" id="elkbn4iumoum" class="animable"></path><path d="M131.74,190.34a1.28,1.28,0,1,0,1.27-1.27A1.27,1.27,0,0,0,131.74,190.34Z" style="fill: rgb(38, 50, 56); transform-origin: 133.02px 190.35px;" id="el8tvzyephti8" class="animable"></path><path d="M134.56,187.69l-2.48-1.48s.95-1,1.9-.39A1.73,1.73,0,0,1,134.56,187.69Z" style="fill: rgb(38, 50, 56); transform-origin: 133.359px 186.656px;" id="el8sw3x8arbir" class="animable"></path><path d="M124,187.26l-2.25,1.83s-.6-1.24.29-1.93A1.75,1.75,0,0,1,124,187.26Z" style="fill: rgb(38, 50, 56); transform-origin: 122.776px 187.999px;" id="el7kanv4zckt" class="animable"></path><path d="M128.13,199.37s-4.54-1.17-3.43-.92c0,0-.23,1.8,1.28,2.15A2,2,0,0,0,128.13,199.37Z" style="fill: rgb(242, 143, 143); transform-origin: 126.328px 199.518px;" id="el9klirqcgklh" class="animable"></path><path d="M135.58,179s-3.53,3.31-12.58,2.63-8.26,1.83-7.27,6.06c.68,2.92.74,10.67-1.52,6.87h-4.47v-9a11.43,11.43,0,0,1,11.43-11.43h9.26Z" style="fill: rgb(38, 50, 56); transform-origin: 122.66px 184.859px;" id="elyxpxjws3dhk" class="animable"></path><path d="M114.32,194.06s-.45-4.28-3.42-4.36c-3.27-.09-3.71,3.05-3.66,4.17.11,2.93,2.49,6.11,6.92,6.23Z" style="fill: rgb(255, 168, 167); transform-origin: 110.778px 194.899px;" id="elugkxkzrv8zb" class="animable"></path><path d="M110.75,177.72s-2.29-3-.82-4.3,2.15,4,2.15,4Z" style="fill: rgb(38, 50, 56); transform-origin: 110.759px 175.467px;" id="elr1sveqtzk8" class="animable"></path><path d="M110.94,178.72s-3.8-.05-3.89-2,4.44.72,4.44.72Z" style="fill: rgb(38, 50, 56); transform-origin: 109.269px 177.364px;" id="elv6dw6e8w1q" class="animable"></path><path d="M113.8,209.79s3.54,7.54,10,7.17,1.68-7.58,1.68-7.58Z" style="fill: rgb(255, 168, 167); transform-origin: 120.491px 213.177px;" id="el9hl2dmppooc" class="animable"></path><path d="M116.26,227l9,11.52s15.82,2.08,24.92,3.73v8.27s-25.45,1.51-30.61-1.75-13.12-12.9-13.12-12.9S108.14,227.57,116.26,227Z" style="fill: rgb(255, 168, 167); transform-origin: 128.315px 238.935px;" id="el3h95sjsaxrn" class="animable"></path><path d="M101.22,212.5s4.21-1.22,9.28,5.92a101.22,101.22,0,0,1,5.76,8.54s-6.24,1.38-9.85,8.87L98.55,226a9,9,0,0,1,2.56-13.46Z" style="fill: rgb(55, 71, 79); transform-origin: 106.412px 224.125px;" id="elsrbna2uahtm" class="animable"></path><path d="M125.22,238.48a8,8,0,0,0-4.17,3.72,7.38,7.38,0,0,1,3-5.18Z" style="fill: rgb(242, 143, 143); transform-origin: 123.135px 239.61px;" id="el5wycvojlk3" class="animable"></path><path d="M147,209.45l9.14-.2s-4.74-18.39-6-24.41c0,0-6-7-4-11.23s7.29-12.3,10-12.3,6.06,3.6,4.11,10.46-1.35,9.29-1.35,9.29,8.83,18.45,10.14,29.77-6.65,11.95-21.15,11.95Z" style="fill: rgb(255, 168, 167); transform-origin: 157.456px 192.045px;" id="el6u7kuywy11i" class="animable"></path><path d="M288.56,146.81V298.3c0,4.11-1.51,6.87-3.82,7.77l-.06,0v0l-9.8,5.37.05-8.73L276,142.88l10.35-5.29A22.34,22.34,0,0,1,288.56,146.81Z" style="fill: rgb(224, 224, 224); transform-origin: 281.72px 224.515px;" id="ela8jbrjqvb55" class="animable"></path><path d="M274.36,312.32l.06-9.57,1.09-160.17,11.08-5.67.22.47a22.89,22.89,0,0,1,2.25,9.43V298.3c0,4.14-1.55,7.22-4.13,8.24h0Zm2.15-169.13-1.14,167.44,9.15-5c2.23-.87,3.54-3.61,3.54-7.32V146.81a21.76,21.76,0,0,0-1.94-8.54Z" style="fill: rgb(224, 224, 224); transform-origin: 281.71px 224.615px;" id="elqasaanxjvh" class="animable"></path><path d="M286.36,137.59,276,142.88,165.22,78.43l-7.4-4.3L168,68.37l.29-.17h0c1.63-1,3.77-.92,6.12.44l104.87,60.55A18.89,18.89,0,0,1,286.36,137.59Z" style="fill: rgb(235, 235, 235); transform-origin: 222.09px 105.202px;" id="elfdzob3jkdsf" class="animable"></path><path d="M276,143.45l-.23-.13L156.81,74.12l11.27-6.36c1.85-1.12,4.2-1,6.62.43l104.87,60.55a19.35,19.35,0,0,1,7.24,8.64l.21.43ZM158.83,74.13,276,142.31l9.68-4.94a18.08,18.08,0,0,0-6.63-7.76L174.2,69.06c-2-1.16-3.94-1.35-5.44-.54l-.46.28Z" style="fill: rgb(224, 224, 224); transform-origin: 221.915px 105.229px;" id="elif8fxocj9vi" class="animable"></path><path d="M269.17,310.82,164.3,250.27c-5.1-3-9.24-10.85-9.24-17.64V81.31c0-6.8,4.14-9.93,9.24-7l104.87,60.55c5.1,2.94,9.24,10.84,9.24,17.64V303.84C278.41,310.64,274.27,313.76,269.17,310.82Z" style="fill: rgb(250, 250, 250); transform-origin: 216.735px 192.569px;" id="elz26zlpplmii" class="animable"></path><path d="M272.84,312.42a8,8,0,0,1-3.92-1.17L164.05,250.7c-5.23-3-9.49-11.13-9.49-18.07V81.31c0-3.76,1.26-6.64,3.44-7.9,1.84-1.06,4.17-.89,6.55.48l104.87,60.56c5.23,3,9.49,11.12,9.49,18.07V303.84c0,3.75-1.26,6.63-3.45,7.9A5.22,5.22,0,0,1,272.84,312.42ZM160.63,73.72a4.3,4.3,0,0,0-2.13.55c-1.86,1.08-2.94,3.65-2.94,7V232.63c0,6.62,4,14.34,9,17.2l104.87,60.55c2.06,1.19,4,1.37,5.54.49,1.87-1.08,3-3.64,3-7V152.52c0-6.63-4-14.35-9-17.21L164.05,74.76A7,7,0,0,0,160.63,73.72Z" style="fill: rgb(224, 224, 224); transform-origin: 216.735px 192.571px;" id="el1kngp4pmi9j" class="animable"></path><path d="M288.46,146.66V298.15c0,4.1-1.51,6.87-3.82,7.77l-.06,0h0l-9.81,5.37.06-8.72,1.09-159.87,10.35-5.29A22.34,22.34,0,0,1,288.46,146.66Z" style="fill: rgb(224, 224, 224); transform-origin: 281.615px 224.35px;" id="el4s2wat4koqn" class="animable"></path><path d="M274.26,312.17l.06-9.57,1.09-160.18,11.08-5.66.22.47a22.89,22.89,0,0,1,2.25,9.43V298.15c0,4.14-1.55,7.22-4.14,8.24h0ZM276.41,143l-1.14,167.44,9.15-5c2.23-.87,3.54-3.61,3.54-7.32V146.66a21.76,21.76,0,0,0-1.94-8.54Z" style="fill: rgb(224, 224, 224); transform-origin: 281.61px 224.465px;" id="el7twqappdbtt" class="animable"></path><path d="M286.26,137.44l-10.35,5.29L165.12,78.28l-7.4-4.3,10.22-5.76.29-.18h0c1.63-1,3.77-.91,6.12.45L279.22,129C282,130.65,284.57,133.79,286.26,137.44Z" style="fill: rgb(235, 235, 235); transform-origin: 221.99px 105.049px;" id="elo7i2g0cwchl" class="animable"></path><path d="M275.89,143.3l-.23-.14L156.71,74,168,67.61c1.86-1.12,4.21-1,6.63.43l104.87,60.55a19.41,19.41,0,0,1,7.24,8.64l.21.43ZM158.72,74l117.2,68.18,9.68-4.95a18.11,18.11,0,0,0-6.63-7.75L174.1,68.91c-2-1.17-3.94-1.35-5.44-.54l-.46.28Z" style="fill: rgb(224, 224, 224); transform-origin: 221.83px 105.079px;" id="elaigxzgcdug9" class="animable"></path><path d="M278.3,152.36V303.69c0,3.56-1.13,6.11-2.94,7.31l-.6.32c-1.57.75-3.54.59-5.69-.65L218.38,281.4,194.7,267.73l-30.5-17.61c-5.1-3-9.24-10.85-9.24-17.65V81.16c0-3.44,1-5.93,2.76-7.18a3.79,3.79,0,0,1,.94-.53c1.54-.66,3.46-.47,5.54.73l104.87,60.55a18.63,18.63,0,0,1,6.84,8A22.41,22.41,0,0,1,278.3,152.36Z" style="fill: rgb(250, 250, 250); transform-origin: 216.63px 192.423px;" id="elz13y83hqtyi" class="animable"></path><path d="M179.42,178.64c.05.16-.74,9.83,1.58,13.72l5.51,3.69,4.48-9.81,1.39-6-1-2.41Z" style="fill: rgb(255, 168, 167); transform-origin: 185.855px 186.94px;" id="elxmjz6arvqaq" class="animable"></path><path d="M177.39,235.21c3.24-.45,12.41-6.06,12.41-6.06s.48-14-7.68-15.82Z" style="fill: rgb(255, 168, 167); transform-origin: 183.598px 224.27px;" id="el0cyu6624l4v" class="animable"></path><polygon points="185.34 212.24 179.81 227.02 186.17 218.37 185.34 212.24" style="fill: rgb(242, 143, 143); transform-origin: 182.99px 219.63px;" id="elhitpt48519l" class="animable"></polygon><path d="M207.5,197.49H205a16,16,0,0,0-10.43,3.89l-14.37,12.42s8.64,5.78,9.64,15.34l12-8.3Z" style="fill: #E82828; transform-origin: 193.85px 213.315px;" id="ell3qqpvre3hc" class="animable"></path><path d="M250,252.37l2.63,9.11-12.75,6,2.12,14,20.63-6.89a12.67,12.67,0,0,0,8.14-15.57l-3.56-12.18Z" style="fill: rgb(255, 168, 167); transform-origin: 255.579px 264.16px;" id="eli6qdq4nilpe" class="animable"></path><polygon points="242.87 276.56 244.71 296.69 217.17 280.79 242.87 276.56" style="fill: rgb(69, 90, 100); transform-origin: 230.94px 286.625px;" id="elxmmae1z34lo" class="animable"></polygon><path d="M246.17,227.65l-2.83,11.78a64.63,64.63,0,0,0-1.65,19.4l1.18,17.73s-8,5-24.39,5L194.8,267.88c.26-4.64,1.51-26.07,3.6-43.36,2.35-19.51,9.1-27,9.1-27,1.13,0,10.43.69,10.43.69l14.54,1,13.7,6.52Z" style="fill: #E82828; transform-origin: 220.485px 239.54px;" id="elxl8agsy72sr" class="animable"></path><g id="el9jl7vwck0mq"><path d="M246.17,227.65l-2.83,11.78a64.63,64.63,0,0,0-1.65,19.4l1.18,17.73s-8,5-24.39,5L194.8,267.88c.26-4.64,1.51-26.07,3.6-43.36,2.35-19.51,9.1-27,9.1-27,1.13,0,10.43.69,10.43.69l14.54,1,13.7,6.52Z" style="opacity: 0.3; transform-origin: 220.485px 239.54px;" class="animable" id="ellpoa9b2hicr"></path></g><path d="M272.81,312.42a7.83,7.83,0,0,1-3.89-1.17L164.05,250.7c-5.23-3-9.49-11.13-9.49-18.07V81.31c0-3.49,1.05-6.18,3-7.59a4.87,4.87,0,0,1,1.06-.59c1.73-.74,3.81-.48,6,.77l104.87,60.55a19.11,19.11,0,0,1,7,8.22,23,23,0,0,1,2.44,9.84V303.84c0,3.64-1.12,6.38-3.17,7.73l-.63.34A5.18,5.18,0,0,1,272.81,312.42ZM160.64,73.72a4.36,4.36,0,0,0-1.69.34,3.66,3.66,0,0,0-.83.47c-1.65,1.21-2.56,3.62-2.56,6.78V232.63c0,6.62,4,14.34,9,17.2l104.87,60.55c1.94,1.13,3.75,1.35,5.23.64l.57-.31c1.69-1.12,2.68-3.63,2.68-6.87V152.51a22,22,0,0,0-2.34-9.41,18.05,18.05,0,0,0-6.64-7.78L164.05,74.77A6.87,6.87,0,0,0,160.64,73.72Z" style="fill: rgb(224, 224, 224); transform-origin: 216.745px 192.57px;" id="elytpx2ha1mb" class="animable"></path><path d="M238.08,176.36s11.2,11.52,4.7,17.36c-2,1.78-12.45-.35-14.92-3.45s-5.83-14-5.83-14Z" style="fill: rgb(69, 90, 100); transform-origin: 233.419px 185.319px;" id="elr4j2pngnv3" class="animable"></path><path d="M150.14,242.21a11.45,11.45,0,0,0,3.39-4.54c.95-2.68,1.57-2.92,2.55-3.33v3.71a8.29,8.29,0,0,0,5.66,3.17c3.71.37,9.64.06,9.5,2.15S167.5,251,163.48,251s-13.34-.55-13.34-.55Z" style="fill: rgb(255, 168, 167); transform-origin: 160.691px 242.67px;" id="elw7xio2fayk" class="animable"></path><path d="M269.17,134.88,164.3,74.33c-5.1-3-9.24.18-9.24,7V98.66l123.35,71.21V152.52C278.41,145.72,274.27,137.82,269.17,134.88Z" style="fill: rgb(255, 255, 255); transform-origin: 216.735px 121.534px;" id="elzzf1pwo4ktr" class="animable"></path><path d="M278.91,170.74,154.56,99V81.31c0-3.76,1.26-6.64,3.44-7.9,1.84-1.06,4.17-.89,6.55.48l104.87,60.56c5.23,3,9.49,11.12,9.49,18.07ZM155.56,98.37,277.91,169V152.52c0-6.63-4-14.35-9-17.21L164.05,74.76c-2.06-1.19-4-1.36-5.55-.49-1.86,1.08-2.94,3.65-2.94,7Z" style="fill: rgb(224, 224, 224); transform-origin: 216.735px 121.731px;" id="eloubekxfvepe" class="animable"></path><path d="M175.63,98.22c0,3.8-2.66,5.34-5.95,3.44a13.17,13.17,0,0,1-6-10.31c0-3.79,2.67-5.33,6-3.43A13.13,13.13,0,0,1,175.63,98.22Z" style="fill: #E82828; transform-origin: 169.655px 94.7899px;" id="elpb9rtsolno" class="animable"></path><path d="M224.76,126a1,1,0,0,1-.5-.14L182,101.44a1,1,0,0,1-.37-1.37,1,1,0,0,1,1.37-.36l42.28,24.41a1,1,0,0,1-.5,1.87Z" style="fill: #E82828; transform-origin: 203.641px 112.786px;" id="elymrp87l6cm" class="animable"></path><path d="M251.87,189.6l3,1.73v-1.08c0-.07,0-.15,0-.23s0-.14,0-.21v0h0c.11-1.42,1.19-2,2.51-1.21A5,5,0,0,1,258.9,190c.3-1.94,1.88-2.63,3.78-1.53a8.46,8.46,0,0,1,3.84,6.64v2.3a1,1,0,0,0,.52.9l1.78,1.05a2.57,2.57,0,0,1,1.27,2.22,1.06,1.06,0,0,1-1.59.92l-16.59-9.58a2.92,2.92,0,0,1-1.45-2.51A.94.94,0,0,1,251.87,189.6Z" style="fill: rgb(230, 230, 230); transform-origin: 260.275px 195.294px;" id="eljgd0w7ymry" class="animable"></path><path d="M171.21,130.43l3.78,2.15v-1.33a2.83,2.83,0,0,1,0-.29,2.45,2.45,0,0,1,0-.27v0h0c.13-1.77,1.47-2.45,3.11-1.5a6,6,0,0,1,1.86,1.78c.37-2.4,2.33-3.27,4.7-1.9a10.54,10.54,0,0,1,4.78,8.26v2.87a1.3,1.3,0,0,0,.64,1.12l2.22,1.3a3.2,3.2,0,0,1,1.58,2.76,1.32,1.32,0,0,1-2,1.14l-20.63-11.92a3.58,3.58,0,0,1-1.8-3.12A1.17,1.17,0,0,1,171.21,130.43Z" style="fill: rgb(230, 230, 230); transform-origin: 181.665px 137.564px;" id="el9523n3glsjb" class="animable"></path><circle cx="214.78" cy="169.15" r="12.4" style="fill: rgb(38, 50, 56); transform-origin: 214.78px 169.15px;" id="elumppa7fj8l" class="animable"></circle><path d="M217.93,198.18s-5.27,9,2.93,9.87,11.62-8.86,11.62-8.86Z" style="fill: rgb(255, 168, 167); transform-origin: 224.371px 203.143px;" id="elmdybaf1qbqq" class="animable"></path><polygon points="217.93 198.18 232.48 199.19 232.48 182.6 217.93 182.6 217.93 198.18" style="fill: rgb(255, 168, 167); transform-origin: 225.205px 190.895px;" id="elju3kz8lpte" class="animable"></polygon><path d="M217.93,197.24a15.89,15.89,0,0,0,13.22-11.79v-4.84H217.93Z" style="fill: rgb(242, 143, 143); transform-origin: 224.54px 188.925px;" id="elqoyyez7484" class="animable"></path><path d="M215.39,156.69s-13.7.52-11.23,22.57c1.16,10.37,2,16.1,10.89,16.1s22-6.68,21.13-24.49S215.39,156.69,215.39,156.69Z" style="fill: rgb(255, 168, 167); transform-origin: 220.042px 175.873px;" id="elaojo75htzw8" class="animable"></path><polygon points="214.01 174.87 214.01 182.6 209.48 181.21 214.01 174.87" style="fill: rgb(242, 143, 143); transform-origin: 211.745px 178.735px;" id="el7vr6c0ekhqr" class="animable"></polygon><path d="M220.62,176.2a1.58,1.58,0,1,1-1.57-1.57A1.57,1.57,0,0,1,220.62,176.2Z" style="fill: rgb(38, 50, 56); transform-origin: 219.04px 176.21px;" id="elpk1otafz3ek" class="animable"></path><path d="M210.26,175.1a1.58,1.58,0,1,1-1.58-1.57A1.58,1.58,0,0,1,210.26,175.1Z" style="fill: rgb(38, 50, 56); transform-origin: 208.68px 175.11px;" id="el5ft8cvil0qn" class="animable"></path><path d="M206.76,171.82l3.08-1.83s-1.18-1.23-2.36-.49A2.14,2.14,0,0,0,206.76,171.82Z" style="fill: rgb(38, 50, 56); transform-origin: 208.251px 170.542px;" id="elszwokyyd41k" class="animable"></path><path d="M219.87,171.29l2.78,2.26s.75-1.53-.35-2.38A2.16,2.16,0,0,0,219.87,171.29Z" style="fill: rgb(38, 50, 56); transform-origin: 221.385px 172.201px;" id="elrl3eo3rnu" class="animable"></path><path d="M214.73,186.28s5.62-1.45,4.24-1.13c0,0,.29,2.23-1.58,2.66A2.41,2.41,0,0,1,214.73,186.28Z" style="fill: rgb(242, 143, 143); transform-origin: 216.959px 186.474px;" id="el7z4lqqd8uvl" class="animable"></path><path d="M205.5,161s4.37,4.09,15.58,3.25,10.23,2.27,9,7.51c-.84,3.62-.92,13.21,1.87,8.51h5.55V169.2A14.16,14.16,0,0,0,223.34,155H211.88Z" style="fill: rgb(38, 50, 56); transform-origin: 221.5px 168.27px;" id="el58wr3s213n" class="animable"></path><path d="M203.45,164.49c4.82-.86,21.69-2.39,35.51,14.15,0,0,3-1.87,2.72-10.6s-7.75-14.65-12.62-16.93-22.7-6.19-26.68,12.24A1,1,0,0,0,203.45,164.49Z" style="fill: rgb(69, 90, 100); transform-origin: 222.034px 163.88px;" id="eldxqz4c32na" class="animable"></path><path d="M231.83,179.71s.56-5.3,4.24-5.4c4-.12,4.59,3.78,4.53,5.16-.14,3.64-3.09,7.57-8.57,7.72Z" style="fill: rgb(255, 168, 167); transform-origin: 236.217px 180.749px;" id="eldtcokgpm456" class="animable"></path><path d="M207.63,160.1s8.4-.09,12,1c0,0,.88-5.24-4.56-5.49C210.69,155.42,209.55,156,207.63,160.1Z" style="fill: rgb(38, 50, 56); transform-origin: 213.656px 158.339px;" id="elput2ueme16" class="animable"></path><path d="M246.17,205.72l.8.37a19.32,19.32,0,0,1,10.26,11.37l10,29.45h0a24.77,24.77,0,0,1-17.76,5.59l-1.6-.13-7.41-24.74a22.55,22.55,0,0,1,.48-14.84A16,16,0,0,1,246.17,205.72Z" style="fill: #E82828; transform-origin: 253.331px 229.15px;" id="elswqzwv1fa3" class="animable"></path><path d="M179.81,227,191,197.13l-10-4.77s-18.69,24.78-18.69,33.52,7.28,10.38,15.08,9.33Z" style="fill: rgb(255, 168, 167); transform-origin: 176.655px 213.925px;" id="el56ausnqjpgv" class="animable"></path><path d="M191.33,178.5s1.17-15.45.86-16.51-3.53-1.24-4.59,6.39a98.83,98.83,0,0,0-1.09,11.29Z" style="fill: rgb(255, 168, 167); transform-origin: 189.376px 170.564px;" id="elje0x76gnz2i" class="animable"></path><path d="M194.19,179.87s5.87-13.72,5.92-14.79-2.83-2.22-6.17,4.4a94.07,94.07,0,0,0-4.5,10Z" style="fill: rgb(255, 168, 167); transform-origin: 194.775px 172.063px;" id="el551xellm4q8" class="animable"></path><path d="M194.19,180.25h0l-4.76-.44a.37.37,0,0,1-.28-.17.36.36,0,0,1,0-.32c0-.08.72-2,2.55-5.95a.38.38,0,1,1,.68.32c-1.32,2.81-2.05,4.63-2.35,5.42l4.27.39a.38.38,0,0,1,0,.75Z" style="fill: rgb(242, 143, 143); transform-origin: 191.866px 176.674px;" id="elgawuhak2i3" class="animable"></path><path d="M183.29,174s-3.81-1.7-4.78,1.11.44,9.58,2.39,10.75,3.73-.47,2.67-3.91A20.08,20.08,0,0,1,183.29,174Z" style="fill: rgb(255, 168, 167); transform-origin: 181.041px 179.863px;" id="elxm5ggga9qo" class="animable"></path><path d="M182.12,186.62a2.74,2.74,0,0,1-1.41-.43c-2.19-1.31-3.53-8.37-2.55-11.2a.38.38,0,0,1,.71.25c-.94,2.71.48,9.26,2.23,10.31a1.65,1.65,0,0,0,1.56.2,1.78,1.78,0,0,0,.83-1.49.36.36,0,0,1,.41-.33.37.37,0,0,1,.34.41,2.51,2.51,0,0,1-1.24,2.08A2,2,0,0,1,182.12,186.62Z" style="fill: rgb(242, 143, 143); transform-origin: 181.038px 180.702px;" id="el8npfcthccxb" class="animable"></path><path d="M187.09,173.32s-3.81-1.7-4.78,1.1.44,9.59,2.39,10.76,3.73-.47,2.66-3.91A20.19,20.19,0,0,1,187.09,173.32Z" style="fill: rgb(255, 168, 167); transform-origin: 184.839px 179.182px;" id="elr5z159tbi0r" class="animable"></path><path d="M185.92,185.93a2.78,2.78,0,0,1-1.41-.43c-2.2-1.31-3.53-8.37-2.55-11.2a.36.36,0,0,1,.47-.23.37.37,0,0,1,.23.48c-.93,2.71.48,9.26,2.23,10.31a1.54,1.54,0,0,0,1.77.07c.56-.44.94-1.61.34-3.55a20.49,20.49,0,0,1-.28-8.13.36.36,0,0,1,.43-.3.38.38,0,0,1,.31.43,19.94,19.94,0,0,0,.26,7.78c.61,2,.38,3.59-.6,4.36A1.94,1.94,0,0,1,185.92,185.93Z" style="fill: rgb(242, 143, 143); transform-origin: 184.845px 179.436px;" id="elj68e0vuxt4e" class="animable"></path><path d="M191,197.13s4.87-6.29,6.09-10.9-.42-7.56-3.05-8-10.58-.19-8.32,2.52,4.66.84,5.69,1.57c0,0-8,4-6.81,11.75Z" style="fill: rgb(255, 168, 167); transform-origin: 190.99px 187.593px;" id="el3h4o63ug05v" class="animable"></path><path d="M185.21,189.21a.32.32,0,0,1-.14,0,.37.37,0,0,1-.21-.49,14.06,14.06,0,0,1,5.42-6.16l-.35,0a4.43,4.43,0,0,1-4.51-1.58,1.42,1.42,0,0,1-.32-1.72c1.06-1.84,7.26-1.71,9-1.41a4.18,4.18,0,0,1,1.3.45.38.38,0,1,1-.36.66,3.32,3.32,0,0,0-1.07-.37c-2.29-.39-7.54-.15-8.22,1.05-.05.08-.19.33.25.86a3.71,3.71,0,0,0,3.85,1.31,2.55,2.55,0,0,1,1.77.19.4.4,0,0,1,.15.34.38.38,0,0,1-.2.3,14,14,0,0,0-6,6.33A.36.36,0,0,1,185.21,189.21Z" style="fill: rgb(242, 143, 143); transform-origin: 190.24px 183.445px;" id="el9xv1v5eohlf" class="animable"></path><path d="M241.32,251.87c-.11.07-5.58,3.25-20.45,3.25A39.26,39.26,0,0,1,196,246c-.15,1.85-.29,3.66-.42,5.39,3.88,3,12.84,9,23.88,9,14.86,0,21.81-3.37,21.81-3.37h0C241.24,255.29,241.25,253.58,241.32,251.87Z" style="fill: #E82828; transform-origin: 218.45px 253.195px;" id="elynqslex3o3b" class="animable"></path><path d="M149.1,174.78s.41-.65,4.32-3.14c2.09-1.32,3.21-4.53,4.81-4.18s1.51,5.91-2.77,8.07c0,0,.88,5.53-2.84,7.68Z" style="fill: rgb(255, 168, 167); transform-origin: 154.143px 175.322px;" id="el8leo6i2wnmq" class="animable"></path><path d="M152.81,183.53l-.37-.65c3.45-2,2.66-7.24,2.65-7.29a.36.36,0,0,1,.2-.4,6.42,6.42,0,0,0,3.49-6.16c-.08-.67-.33-1.14-.63-1.2-.68-.15-1.38.72-2.18,1.74a10.05,10.05,0,0,1-2.35,2.39c-3.65,2.33-4.19,3-4.21,3l-.62-.41c.07-.12.64-.84,4.43-3.25a9.5,9.5,0,0,0,2.16-2.22c.92-1.17,1.78-2.27,2.93-2,.64.14,1.08.81,1.21,1.83a7.1,7.1,0,0,1-3.66,6.81C156,176.91,156.27,181.54,152.81,183.53Z" style="fill: rgb(242, 143, 143); transform-origin: 154.167px 175.284px;" id="el4riqp6w6jns" class="animable"></path><path d="M96.53,383.56s1,2.56,2.83,2.41c0,0-.64-4.2,3.35-4.2s4.17.19,4.17,4.21c0,0,.77,5.59,3.73,8.73s7.32,9.87-1.33,11.19-11-7.56-11.43-8.94c-.51-1.82-4.21-3.11-2.42-7.84.51-1.34.28-3.3.19-4.77a2.51,2.51,0,0,1,.9-2.18Z" style="fill: rgb(69, 90, 100); transform-origin: 104.657px 393.902px;" id="eldddehl8d7pl" class="animable"></path><path d="M109.67,405c-8.89,1.35-11.34-7.77-11.74-9.18s-2.6-2.49-2.94-5c-.41,3.36,2.42,4.55,2.86,6.12.4,1.38,2.78,10.26,11.43,8.94,3.07-.47,4.49-1.61,4.94-3C113.47,403.85,112.05,404.61,109.67,405Z" style="fill: rgb(38, 50, 56); transform-origin: 104.585px 398.417px;" id="elb12w27q1fre" class="animable"></path><path d="M101.46,389.39a.38.38,0,0,1-.28-.12.37.37,0,0,1,0-.53c.13-.12,3.19-2.84,6.22-1.25a.37.37,0,0,1,.16.51.38.38,0,0,1-.51.15c-2.57-1.35-5.34,1.12-5.37,1.15A.38.38,0,0,1,101.46,389.39Z" style="fill: rgb(255, 255, 255); transform-origin: 104.337px 388.191px;" id="elakpjrj29idr" class="animable"></path><path d="M102.66,392.1a.39.39,0,0,1-.28-.12.37.37,0,0,1,0-.53c.13-.12,3.19-2.84,6.22-1.25a.37.37,0,0,1,.16.51.38.38,0,0,1-.51.15c-2.56-1.35-5.34,1.12-5.37,1.15A.38.38,0,0,1,102.66,392.1Z" style="fill: rgb(255, 255, 255); transform-origin: 105.537px 390.901px;" id="el9svpo04ih6s" class="animable"></path><path d="M103.68,394.64a.39.39,0,0,1-.28-.12.39.39,0,0,1,0-.53c.13-.12,3.2-2.85,6.23-1.25a.36.36,0,0,1,.15.5.36.36,0,0,1-.5.16c-2.57-1.35-5.35,1.12-5.38,1.14A.35.35,0,0,1,103.68,394.64Z" style="fill: rgb(255, 255, 255); transform-origin: 106.562px 393.439px;" id="eleghzwspr3qi" class="animable"></path><path d="M126.12,375.24s1.68,1,2.44,1.57,3.32.69,4-.06-.4-2.82,3.1-4,2.5,3.68,2.5,3.68,1.27,3.09,5.68,4.9,11,2.28,8,8.14c-1.31,2.56-9.73,4.69-15.26.66a10.55,10.55,0,0,0-6-1.75c-2.32,0-7.29-1.14-6.86-4.84S125,379,125,377.66s-.23-2.83,1.06-3.33Z" style="fill: rgb(69, 90, 100); transform-origin: 138.145px 382.471px;" id="elailghjcyp1p" class="animable"></path><path d="M136.51,389.08a11.28,11.28,0,0,0-6.45-1.86,10.08,10.08,0,0,1-6.11-2c1,2.36,4.71,3.14,6.63,3.14a10.55,10.55,0,0,1,6,1.75c5.52,4,13.95,1.9,15.26-.65C149.07,391.61,141.63,392.82,136.51,389.08Z" style="fill: rgb(38, 50, 56); transform-origin: 137.895px 388.782px;" id="el6a0fyw37cqk" class="animable"></path><path d="M134,381.13a.31.31,0,0,1-.13,0,.37.37,0,0,1-.22-.48c.06-.16,1.49-4,4.91-4h0a.38.38,0,0,1,.38.38.37.37,0,0,1-.37.37c-2.9,0-4.21,3.5-4.22,3.53A.38.38,0,0,1,134,381.13Z" style="fill: rgb(255, 255, 255); transform-origin: 136.283px 378.893px;" id="eleyh6ptjjpe" class="animable"></path><path d="M136.84,382.87a.31.31,0,0,1-.13,0,.37.37,0,0,1-.22-.48c0-.13,1.26-3.38,4.16-3.39h0a.37.37,0,0,1,.38.37.38.38,0,0,1-.38.38c-2.37,0-3.45,2.87-3.46,2.9A.38.38,0,0,1,136.84,382.87Z" style="fill: rgb(255, 255, 255); transform-origin: 138.748px 380.938px;" id="el648f09rb4c7" class="animable"></path><path d="M140,384.82l-.12,0a.38.38,0,0,1-.23-.48c.05-.14,1.27-3.39,4.17-3.4h0a.38.38,0,0,1,0,.75c-2.38,0-3.45,2.87-3.46,2.9A.39.39,0,0,1,140,384.82Z" style="fill: rgb(255, 255, 255); transform-origin: 141.884px 382.88px;" id="eljs5tci0rqp" class="animable"></path></g><g id="freepik--Sparkles--inject-157" class="animable" style="transform-origin: 375.505px 276.477px;"><path d="M438.43,217.64a1.88,1.88,0,0,1-.86-1.49V210c0-.55.38-.77.86-.49a1.91,1.91,0,0,1,.86,1.49v6.16C439.29,217.7,438.9,217.92,438.43,217.64Z" style="fill: #E82828; transform-origin: 438.43px 213.575px;" id="elb2hg246b3qd" class="animable"></path><path d="M441.09,216.11,435.76,213a1.91,1.91,0,0,1-.86-1.5c0-.55.38-.77.86-.49l5.33,3.08a1.89,1.89,0,0,1,.87,1.49C442,216.16,441.57,216.38,441.09,216.11Z" style="fill: #E82828; transform-origin: 438.431px 213.556px;" id="elou877h9s5bd" class="animable"></path><path d="M445.48,201a1.91,1.91,0,0,1-.86-1.49v-6.16c0-.55.39-.77.86-.5a1.92,1.92,0,0,1,.87,1.5v6.16C446.35,201.07,446,201.3,445.48,201Z" style="fill: #E82828; transform-origin: 445.485px 196.934px;" id="el51yz5zmgxpc" class="animable"></path><path d="M448.15,199.48l-5.33-3.08a1.88,1.88,0,0,1-.86-1.49c0-.55.38-.77.86-.5l5.33,3.08A1.91,1.91,0,0,1,449,199C449,199.54,448.63,199.76,448.15,199.48Z" style="fill: #E82828; transform-origin: 445.48px 196.948px;" id="elq8yrikoglx" class="animable"></path><path d="M412.43,275.9a1.94,1.94,0,0,1-.86-1.5v-6.16c0-.55.39-.77.86-.49a1.88,1.88,0,0,1,.86,1.49v6.16C413.29,276,412.91,276.17,412.43,275.9Z" style="fill: #E82828; transform-origin: 412.43px 271.826px;" id="el1ta2ql164vk" class="animable"></path><path d="M415.1,274.36l-5.34-3.08a1.94,1.94,0,0,1-.86-1.5c0-.55.39-.77.86-.49l5.34,3.08a1.88,1.88,0,0,1,.86,1.49C416,274.41,415.58,274.63,415.1,274.36Z" style="fill: #E82828; transform-origin: 412.431px 271.822px;" id="elbbbgrogdgqd" class="animable"></path><path d="M305.54,206.73a1.92,1.92,0,0,1-.86-1.49v-6.16c0-.55.39-.78.86-.5a1.88,1.88,0,0,1,.86,1.49v6.16C306.4,206.78,306,207,305.54,206.73Z" style="fill: #E82828; transform-origin: 305.54px 202.653px;" id="elc9qepc1brvw" class="animable"></path><path d="M308.21,205.19l-5.34-3.08a1.92,1.92,0,0,1-.86-1.49c0-.55.39-.78.86-.5l5.34,3.08a1.88,1.88,0,0,1,.86,1.49C309.07,205.24,308.69,205.46,308.21,205.19Z" style="fill: #E82828; transform-origin: 305.54px 202.653px;" id="ellmcl256bk9" class="animable"></path><path d="M408.85,360.22a4,4,0,0,1-2-.58,8.21,8.21,0,0,1-3.77-6.51,3,3,0,0,1,4.77-2.75,8.23,8.23,0,0,1,3.76,6.51,3.27,3.27,0,0,1-1.46,3A2.68,2.68,0,0,1,408.85,360.22Zm-2.92-8.42a.72.72,0,0,0-.35.08,1.42,1.42,0,0,0-.46,1.25,6.19,6.19,0,0,0,2.77,4.78,1,1,0,0,0,1.76-1,6.21,6.21,0,0,0-2.76-4.78A2.09,2.09,0,0,0,405.93,351.8Z" style="fill: #E82828; transform-origin: 407.341px 355.004px;" id="elhe73vee2lq6" class="animable"></path><path d="M428.66,292.45a4,4,0,0,1-2-.58,8.2,8.2,0,0,1-3.76-6.51,3,3,0,0,1,4.76-2.75,8.21,8.21,0,0,1,3.77,6.51,3.29,3.29,0,0,1-1.46,3A2.68,2.68,0,0,1,428.66,292.45ZM425.74,284a.72.72,0,0,0-.35.08,1.42,1.42,0,0,0-.46,1.25,6.21,6.21,0,0,0,2.76,4.78,1.44,1.44,0,0,0,1.31.23,1.42,1.42,0,0,0,.46-1.25,6.22,6.22,0,0,0-2.77-4.78A2,2,0,0,0,425.74,284Z" style="fill: #E82828; transform-origin: 427.161px 287.238px;" id="elfqyt9gg0ctu" class="animable"></path><path d="M367.34,223.85a4,4,0,0,1-2-.58,8.2,8.2,0,0,1-3.76-6.51,3,3,0,0,1,4.76-2.75,8.2,8.2,0,0,1,3.76,6.51,3.28,3.28,0,0,1-1.45,3A2.72,2.72,0,0,1,367.34,223.85Zm-2.92-8.42a.71.71,0,0,0-.34.08,1.42,1.42,0,0,0-.46,1.25,6.21,6.21,0,0,0,2.76,4.78,1,1,0,0,0,1.76-1,6.18,6.18,0,0,0-2.76-4.78A2.06,2.06,0,0,0,364.42,215.43Z" style="fill: #E82828; transform-origin: 365.836px 218.638px;" id="elehjmnb9aoun" class="animable"></path></g><g id="freepik--Icons--inject-157" class="animable" style="transform-origin: 351.331px 234.168px;"><path d="M405.28,307.35c0-10.4-7.3-23-16.3-28.23-4.56-2.63-8.68-2.84-11.64-1.06h0l-6.11,3.59,1.84,3.08a18,18,0,0,0-.38,3.81c0,10.39,7.29,23,16.29,28.22a17.42,17.42,0,0,0,4.38,1.84l1.52,2.55,5.29-3.07a5.77,5.77,0,0,0,.68-.4h0C403.6,315.88,405.28,312.32,405.28,307.35Z" style="fill: #E82828; transform-origin: 388.255px 299.026px;" id="eloyzj7wsr1ic" class="animable"></path><g id="eltruqyoxieu"><path d="M405.28,307.35c0-10.4-7.3-23-16.3-28.23-4.56-2.63-8.68-2.84-11.64-1.06h0l-6.11,3.59,1.84,3.08a18,18,0,0,0-.38,3.81c0,10.39,7.29,23,16.29,28.22a17.42,17.42,0,0,0,4.38,1.84l1.52,2.55,5.29-3.07a5.77,5.77,0,0,0,.68-.4h0C403.6,315.88,405.28,312.32,405.28,307.35Z" style="opacity: 0.3; transform-origin: 388.255px 299.026px;" class="animable" id="el23fu8rchyim"></path></g><path d="M399.73,310.55c0,10.39-7.29,14.6-16.29,9.4s-16.3-17.83-16.3-28.22,7.3-14.6,16.3-9.41S399.73,300.16,399.73,310.55Z" style="fill: #E82828; transform-origin: 383.435px 301.138px;" id="elr4qwv7id42" class="animable"></path><path d="M388.09,295.87c-2.57-1.48-4.65.15-4.65,3.64,0-3.49-2.08-7.52-4.65-9s-4.65.15-4.65,3.65c0,8.9,9.3,18.07,9.3,18.07s9.3,1.56,9.3-7.34C392.74,301.39,390.65,297.35,388.09,295.87Z" style="fill: rgb(255, 255, 255); transform-origin: 383.44px 301.149px;" id="elu1k03gdy4f" class="animable"></path><path d="M305.54,179c0-10.39-7.29-23-16.29-28.22-4.56-2.63-8.68-2.84-11.64-1.07h0l-6.12,3.59,1.84,3.07a18.8,18.8,0,0,0-.38,3.82c0,10.39,7.3,23,16.3,28.22a17.36,17.36,0,0,0,4.37,1.84l1.53,2.55,5.29-3.07a6.71,6.71,0,0,0,.68-.4h0C303.86,187.5,305.54,183.94,305.54,179Z" style="fill: #E82828; transform-origin: 288.515px 170.68px;" id="elhnun4g60p8" class="animable"></path><g id="elnht0clwkdv8"><path d="M305.54,179c0-10.39-7.29-23-16.29-28.22-4.56-2.63-8.68-2.84-11.64-1.07h0l-6.12,3.59,1.84,3.07a18.8,18.8,0,0,0-.38,3.82c0,10.39,7.3,23,16.3,28.22a17.36,17.36,0,0,0,4.37,1.84l1.53,2.55,5.29-3.07a6.71,6.71,0,0,0,.68-.4h0C303.86,187.5,305.54,183.94,305.54,179Z" style="opacity: 0.3; transform-origin: 288.515px 170.68px;" class="animable" id="el9k19953g7wq"></path></g><g id="elm9gf5xr005"><ellipse cx="283.7" cy="172.76" rx="13.3" ry="23.04" style="fill: #E82828; transform-origin: 283.7px 172.76px; transform: rotate(-30deg);" class="animable" id="el0127ete40mfw"></ellipse></g><path d="M288.35,167.49c-2.57-1.48-4.65.15-4.65,3.64,0-3.49-2.08-7.53-4.65-9s-4.64.15-4.64,3.65c0,8.89,9.29,18.07,9.29,18.07s9.3,1.56,9.3-7.34C293,173,290.92,169,288.35,167.49Z" style="fill: rgb(255, 255, 255); transform-origin: 283.705px 172.772px;" id="ell5e4hhhn2kc" class="animable"></path><path d="M365.88,246c0-9-6.32-20-14.13-24.47-3.95-2.29-7.52-2.47-10.09-.93h0l-5.3,3.11,1.59,2.67a16.06,16.06,0,0,0-.32,3.3c0,9,6.32,20,14.12,24.47a14.94,14.94,0,0,0,3.79,1.59l1.33,2.22,4.59-2.67A4.88,4.88,0,0,0,362,255h0C364.43,253.43,365.88,250.34,365.88,246Z" style="fill: #E82828; transform-origin: 351.12px 238.779px;" id="el5nap6unejcj" class="animable"></path><g id="elqyypvy4xsz"><path d="M365.88,246c0-9-6.32-20-14.13-24.47-3.95-2.29-7.52-2.47-10.09-.93h0l-5.3,3.11,1.59,2.67a16.06,16.06,0,0,0-.32,3.3c0,9,6.32,20,14.12,24.47a14.94,14.94,0,0,0,3.79,1.59l1.33,2.22,4.59-2.67A4.88,4.88,0,0,0,362,255h0C364.43,253.43,365.88,250.34,365.88,246Z" style="opacity: 0.3; transform-origin: 351.12px 238.779px;" class="animable" id="elf99qpzemo4a"></path></g><g id="el384tnnq773f"><ellipse cx="346.95" cy="240.65" rx="11.54" ry="19.98" style="fill: #E82828; transform-origin: 346.95px 240.65px; transform: rotate(-30deg);" class="animable" id="elc5mqjl1eyet"></ellipse></g><path d="M351,236.08c-2.23-1.29-4,.13-4,3.16,0-3-1.81-6.53-4-7.82s-4,.13-4,3.16c0,7.72,8.06,15.67,8.06,15.67s8.06,1.36,8.06-6.36C355,240.86,353.2,237.36,351,236.08Z" style="fill: rgb(255, 255, 255); transform-origin: 347.06px 240.643px;" id="ele7juib6p6uw" class="animable"></path><path d="M442,180c0-9-6.33-20-14.13-24.47-4-2.28-7.53-2.47-10.09-.93h0l-5.31,3.11,1.6,2.67a16.14,16.14,0,0,0-.33,3.31c0,9,6.33,20,14.13,24.47a15,15,0,0,0,3.79,1.59l1.32,2.21,4.59-2.66c.2-.11.4-.22.59-.34h0C440.5,187.38,442,184.3,442,180Z" style="fill: #E82828; transform-origin: 427.235px 172.781px;" id="el2kugzqe99mp" class="animable"></path><g id="elcny8b7yrf05"><path d="M442,180c0-9-6.33-20-14.13-24.47-4-2.28-7.53-2.47-10.09-.93h0l-5.31,3.11,1.6,2.67a16.14,16.14,0,0,0-.33,3.31c0,9,6.33,20,14.13,24.47a15,15,0,0,0,3.79,1.59l1.32,2.21,4.59-2.66c.2-.11.4-.22.59-.34h0C440.5,187.38,442,184.3,442,180Z" style="opacity: 0.3; transform-origin: 427.235px 172.781px;" class="animable" id="eled26vhfkfqd"></path></g><path d="M437.15,182.76c0,9-6.33,12.66-14.13,8.15s-14.13-15.46-14.13-24.47,6.33-12.66,14.13-8.15S437.15,173.75,437.15,182.76Z" style="fill: #E82828; transform-origin: 423.02px 174.599px;" id="elodpj5gb5x7n" class="animable"></path><path d="M427.05,170c-2.23-1.28-4,.13-4,3.16,0-3-1.8-6.53-4-7.81s-4,.13-4,3.16c0,7.71,8.06,15.66,8.06,15.66s8.06,1.36,8.06-6.36C431.08,174.81,429.28,171.32,427.05,170Z" style="fill: rgb(255, 255, 255); transform-origin: 423.11px 174.57px;" id="el0bs3m0h4tsai" class="animable"></path></g><defs>     <filter id="active" height="200%">         <feMorphology in="SourceAlpha" result="DILATED" operator="dilate" radius="2"></feMorphology>                <feFlood flood-color="#32DFEC" flood-opacity="1" result="PINK"></feFlood>        <feComposite in="PINK" in2="DILATED" operator="in" result="OUTLINE"></feComposite>        <feMerge>            <feMergeNode in="OUTLINE"></feMergeNode>            <feMergeNode in="SourceGraphic"></feMergeNode>        </feMerge>    </filter>    <filter id="hover" height="200%">        <feMorphology in="SourceAlpha" result="DILATED" operator="dilate" radius="2"></feMorphology>                <feFlood flood-color="#ff0000" flood-opacity="0.5" result="PINK"></feFlood>        <feComposite in="PINK" in2="DILATED" operator="in" result="OUTLINE"></feComposite>        <feMerge>            <feMergeNode in="OUTLINE"></feMergeNode>            <feMergeNode in="SourceGraphic"></feMergeNode>        </feMerge>            <feColorMatrix type="matrix" values="0   0   0   0   0                0   1   0   0   0                0   0   0   0   0                0   0   0   1   0 "></feColorMatrix>    </filter></defs></svg>