<svg width="567" height="267" viewBox="0 0 567 267" fill="none" xmlns="http://www.w3.org/2000/svg">
<path d="M20.64 212.76H38.61L45.84 208.76H148.79V212.76H169.15L174 208.76H213.6L218.49 212.76H234.4L241.89 208.76H279.12L283.84 212.76H301.14L305.04 208.76H346.08L350.57 212.76H365.19L368.54 208.76H411.73L415.99 212.76H453.1L457.15 208.76L520.02 212.76H543.32V17.41H501.75L492.02 21.56L457.15 23L452.6 17.41H20.64V212.76Z" fill="#E52421"/>
<path d="M38.61 212.76H92.99L148.59 73.88V46.8H39.07V78.88H91.69L38.61 212.76Z" fill="#FEFAFC"/>
<path d="M283.96 194.63H234.8V211.19C234.8 211.78 234.65 212.3 234.4 212.76H283.83C283.9 212.29 283.96 211.82 283.96 211.33V194.63Z" fill="#FEFAFC"/>
<path d="M218.49 212.76C218.24 211.62 218.08 210.37 218.08 208.92V162.18H283.97V85.95C283.97 58.93 264.71 45.42 226.19 45.42C188.01 45.42 168.93 59.51 168.93 87.68V207.55C168.93 209.35 169.01 211.08 169.16 212.76H218.49V212.76ZM218.08 86.3C218.08 79.75 220.9 76.47 226.53 76.47C232.05 76.47 234.81 79.75 234.81 86.3V132.18H218.08V86.3Z" fill="#FEFAFC"/>
<path d="M350.57 212.76C350.32 212.31 350.17 211.82 350.17 211.26V194.63H301.01V211.39C301.01 211.86 301.06 212.31 301.13 212.76H350.57Z" fill="#FEFAFC"/>
<path d="M399.15 145.11C371.78 131.66 356.75 122.17 354.05 116.65C351.35 111.13 350 102.97 350 92.16C350 81.7 353.04 76.47 359.14 76.47C365.23 76.47 368.28 84.81 368.28 101.48L367.69 115.09H415.19V85.95C415.19 58.93 396.62 45.42 359.48 45.42C321.3 45.42 302.22 59.51 302.22 87.68V114.59C302.22 125.28 304.86 133.3 310.15 138.65C315.44 144 330.9 153.4 356.55 166.85C363.33 171.8 366.73 182.72 366.73 199.62C366.73 205.21 366.22 209.58 365.2 212.77H416C416.16 211.09 416.24 209.35 416.24 207.56V177.55C416.23 164.08 410.54 153.27 399.15 145.11Z" fill="#FEFAFC"/>
<path d="M501.75 17.41H452.6V46.8H430.69V76.47H452.6V198.58C452.6 203.78 452.77 208.49 453.1 212.76H520.02C513.74 212.32 509.41 211.42 507.02 210.05C503.51 208.04 501.76 204.1 501.76 198.23V76.46H528.32V46.8H501.76V17.41H501.75Z" fill="#FEFAFC"/>
<path d="M196.03 236.24H184.18V248.09H196.03V236.24Z" fill="black"/>
<path d="M148.79 212.76H86.01L94.18 194.63H148.79V212.76Z" fill="#FEFAFC"/>
<path d="M29.31 222.52L29.17 224.97C29.76 223.99 30.47 223.26 31.32 222.77C32.17 222.28 33.14 222.04 34.25 222.04C35.64 222.04 36.77 222.37 37.65 223.02C38.53 223.67 39.1 224.5 39.35 225.49C39.6 226.48 39.73 228.14 39.73 230.46V249.08H31.64V230.68C31.64 228.85 31.58 227.74 31.46 227.34C31.34 226.94 31.01 226.74 30.46 226.74C29.89 226.74 29.53 226.97 29.38 227.43C29.23 227.89 29.16 229.12 29.16 231.12V249.08H21.07V222.51H29.31V222.52Z" fill="black"/>
<path d="M85.81 236.27H75.34V242.02C75.34 243.22 75.43 243.99 75.6 244.34C75.77 244.69 76.11 244.86 76.6 244.86C77.21 244.86 77.62 244.63 77.83 244.17C78.04 243.71 78.14 242.82 78.14 241.5V238H85.81V239.96C85.81 241.6 85.71 242.86 85.5 243.74C85.29 244.62 84.81 245.56 84.05 246.56C83.29 247.56 82.32 248.31 81.16 248.81C79.99 249.31 78.53 249.56 76.77 249.56C75.06 249.56 73.55 249.31 72.25 248.82C70.94 248.33 69.92 247.65 69.2 246.79C68.47 245.93 67.97 244.98 67.69 243.95C67.41 242.92 67.27 241.41 67.27 239.44V231.69C67.27 229.37 67.58 227.54 68.21 226.19C68.84 224.85 69.86 223.82 71.29 223.11C72.72 222.4 74.36 222.04 76.21 222.04C78.48 222.04 80.35 222.47 81.83 223.33C83.3 224.19 84.34 225.33 84.93 226.75C85.52 228.17 85.82 230.17 85.82 232.75V236.27H85.81ZM77.7 231.95V230.01C77.7 228.63 77.63 227.75 77.48 227.35C77.33 226.95 77.03 226.75 76.58 226.75C76.02 226.75 75.67 226.92 75.54 227.26C75.41 227.6 75.34 228.52 75.34 230.01V231.95H77.7V231.95Z" fill="black"/>
<path d="M139.57 222.52L136.34 249.09H127.56C127.08 245.84 126.52 241.57 125.88 236.26C125.66 238.6 125.36 240.95 124.97 243.33L124.08 249.1H115.28L111.85 222.53H118.82C118.87 223.22 119.46 228.3 120.59 237.74C120.68 236.77 121.28 231.7 122.41 222.53H129.11L130.75 237.74C131.01 233.3 131.63 228.23 132.6 222.53H139.57V222.52Z" fill="black"/>
<path d="M248.11 232.55H240.48V229.49C240.48 228.42 240.39 227.7 240.22 227.32C240.05 226.94 239.73 226.75 239.26 226.75C238.79 226.75 238.48 226.92 238.32 227.25C238.16 227.58 238.08 228.33 238.08 229.49V242.02C238.08 242.97 238.2 243.68 238.44 244.15C238.68 244.62 239.03 244.86 239.5 244.86C240.05 244.86 240.42 244.61 240.61 244.12C240.8 243.63 240.9 242.69 240.9 241.32V238.16H248.11C248.1 240.28 248.02 241.87 247.88 242.93C247.74 243.99 247.29 245.08 246.54 246.19C245.79 247.3 244.8 248.15 243.59 248.71C242.38 249.28 240.87 249.56 239.09 249.56C236.81 249.56 235 249.17 233.66 248.39C232.33 247.61 231.38 246.51 230.83 245.11C230.28 243.7 230 241.7 230 239.11V231.56C230 229.31 230.23 227.6 230.68 226.46C231.13 225.31 232.1 224.29 233.58 223.39C235.06 222.49 236.86 222.04 238.99 222.04C241.1 222.04 242.9 222.49 244.4 223.38C245.89 224.27 246.89 225.4 247.38 226.76C247.86 228.13 248.11 230.06 248.11 232.55Z" fill="black"/>
<path d="M283.57 222.52L283.25 226.01C284.42 223.51 286.13 222.18 288.36 222.04V231.39C286.88 231.39 285.79 231.59 285.1 231.99C284.4 232.39 283.98 232.95 283.82 233.66C283.66 234.37 283.58 236.02 283.58 238.59V249.08H275.49V222.51H283.57V222.52Z" fill="black"/>
<path d="M333.44 236.27H322.97V242.02C322.97 243.22 323.06 243.99 323.23 244.34C323.4 244.69 323.74 244.86 324.23 244.86C324.84 244.86 325.25 244.63 325.46 244.17C325.67 243.71 325.77 242.82 325.77 241.5V238H333.44V239.96C333.44 241.6 333.33 242.86 333.13 243.74C332.92 244.62 332.44 245.56 331.68 246.56C330.92 247.56 329.95 248.31 328.79 248.81C327.62 249.31 326.16 249.56 324.4 249.56C322.69 249.56 321.18 249.31 319.87 248.82C318.56 248.33 317.54 247.65 316.82 246.79C316.09 245.93 315.59 244.98 315.31 243.95C315.03 242.92 314.89 241.41 314.89 239.44V231.69C314.89 229.37 315.2 227.54 315.83 226.19C316.46 224.85 317.48 223.82 318.91 223.11C320.34 222.4 321.98 222.04 323.84 222.04C326.11 222.04 327.98 222.47 329.46 223.33C330.93 224.19 331.97 225.33 332.56 226.75C333.15 228.17 333.45 230.17 333.45 232.75V236.27H333.44ZM325.33 231.95V230.01C325.33 228.63 325.26 227.75 325.11 227.35C324.96 226.95 324.66 226.75 324.21 226.75C323.65 226.75 323.3 226.92 323.17 227.26C323.04 227.6 322.97 228.52 322.97 230.01V231.95H325.33V231.95Z" fill="black"/>
<path d="M368.28 232.81H360.69V231.03C360.69 228.98 360.93 227.39 361.4 226.28C361.87 225.17 362.82 224.18 364.25 223.33C365.68 222.48 367.53 222.05 369.81 222.05C372.55 222.05 374.61 222.53 376 223.5C377.39 224.47 378.22 225.66 378.5 227.06C378.78 228.47 378.92 231.37 378.92 235.76V249.09H371.05V246.72C370.56 247.67 369.92 248.38 369.14 248.86C368.36 249.34 367.43 249.57 366.35 249.57C364.94 249.57 363.64 249.17 362.46 248.38C361.28 247.59 360.69 245.85 360.69 243.17V240.99C360.69 239 361 237.65 361.63 236.93C362.26 236.21 363.81 235.37 366.29 234.41C368.95 233.37 370.37 232.67 370.56 232.31C370.75 231.95 370.84 231.22 370.84 230.11C370.84 228.72 370.74 227.82 370.53 227.4C370.32 226.98 369.98 226.77 369.5 226.77C368.95 226.77 368.61 226.95 368.48 227.3C368.35 227.65 368.28 228.57 368.28 230.05V232.81V232.81ZM370.84 236.45C369.55 237.4 368.8 238.19 368.59 238.83C368.38 239.47 368.28 240.39 368.28 241.59C368.28 242.97 368.37 243.85 368.55 244.25C368.73 244.65 369.09 244.85 369.62 244.85C370.13 244.85 370.46 244.69 370.61 244.38C370.76 244.07 370.84 243.24 370.84 241.91V236.45Z" fill="black"/>
<path d="M415.21 218.98V223.16H417.39V227.37H415.21V241.58C415.21 243.33 415.3 244.3 415.48 244.5C415.66 244.7 416.41 244.8 417.73 244.8V249.08H414.47C412.63 249.08 411.31 249 410.53 248.85C409.74 248.7 409.05 248.34 408.45 247.79C407.85 247.24 407.48 246.6 407.33 245.89C407.18 245.18 407.11 243.5 407.11 240.85V227.36H405.37V223.15H407.11V218.97H415.21V218.98Z" fill="black"/>
<path d="M452.47 216.67V220.89H444.14V216.67H452.47ZM452.47 222.52V249.09H444.14V222.52H452.47Z" fill="black"/>
<path d="M497.08 222.52L493.3 249.09H482.73L478.67 222.52H485.89L488.17 241.92C488.35 240.49 488.65 237.02 489.08 231.49C489.31 228.41 489.57 225.42 489.86 222.52H497.08V222.52Z" fill="black"/>
<path d="M541.54 236.27H531.07V242.02C531.07 243.22 531.16 243.99 531.33 244.34C531.5 244.69 531.84 244.86 532.33 244.86C532.94 244.86 533.35 244.63 533.56 244.17C533.77 243.71 533.87 242.82 533.87 241.5V238H541.54V239.96C541.54 241.6 541.44 242.86 541.23 243.74C541.02 244.62 540.54 245.56 539.78 246.56C539.02 247.56 538.06 248.31 536.89 248.81C535.72 249.31 534.26 249.56 532.5 249.56C530.79 249.56 529.28 249.31 527.97 248.82C526.66 248.33 525.65 247.65 524.92 246.79C524.19 245.93 523.69 244.98 523.41 243.95C523.13 242.92 522.99 241.41 522.99 239.44V231.69C522.99 229.37 523.3 227.54 523.93 226.19C524.56 224.85 525.58 223.82 527.01 223.11C528.44 222.4 530.08 222.04 531.94 222.04C534.21 222.04 536.08 222.47 537.56 223.33C539.03 224.19 540.07 225.33 540.66 226.75C541.25 228.17 541.55 230.17 541.55 232.75V236.27H541.54ZM533.44 231.95V230.01C533.44 228.63 533.37 227.75 533.22 227.35C533.07 226.95 532.77 226.75 532.32 226.75C531.76 226.75 531.41 226.92 531.28 227.26C531.15 227.6 531.08 228.52 531.08 230.01V231.95H533.44V231.95Z" fill="black"/>
</svg>
